<svg width="240" height="150" viewBox="0 0 240 150" fill="none" xmlns="http://www.w3.org/2000/svg">
<path d="M0 9.14062C0 4.09239 3.91646 0 8.74766 0H231.252C236.084 0 240 4.0924 240 9.14062V140.859C240 145.908 236.084 150 231.252 150H8.74766C3.91648 150 0 145.908 0 140.859V9.14062Z" fill="url(#paint0_linear)"/>
<g filter="url(#filter0_i)">
<path d="M0 9.14062C0 4.09239 3.91646 0 8.74766 0H231.252C236.084 0 240 4.0924 240 9.14062V140.859C240 145.908 236.084 150 231.252 150H8.74766C3.91648 150 0 145.908 0 140.859V9.14062Z" fill="url(#paint1_linear)"/>
</g>
<mask id="mask0" mask-type="alpha" maskUnits="userSpaceOnUse" x="0" y="0" width="240" height="150">
<path d="M0 9.14062C0 4.09239 3.91646 0 8.74766 0H231.252C236.084 0 240 4.0924 240 9.14062V140.859C240 145.908 236.084 150 231.252 150H8.74766C3.91648 150 0 145.908 0 140.859V9.14062Z" fill="white"/>
</mask>
<g mask="url(#mask0)">
<path fill-rule="evenodd" clip-rule="evenodd" d="M25.7725 -0.240984C69.5775 3.55834 227.045 36.7751 243.166 145.229C259.286 253.683 254.861 -12.3417 254.861 -12.3417C254.861 -12.3417 -18.0326 -4.04031 25.7725 -0.240984Z" fill="white" fill-opacity="0.15"/>
<path fill-rule="evenodd" clip-rule="evenodd" d="M239.597 -69.1481C235.961 -23.3753 204.172 141.166 100.381 158.011C-3.41093 174.855 251.178 170.232 251.178 170.232C251.178 170.232 243.233 -114.921 239.597 -69.1481Z" fill="white" fill-opacity="0.15"/>
<path fill-rule="evenodd" clip-rule="evenodd" d="M284.84 -2.85132C271.566 62.4046 182.712 182.119 79.6672 160.855C-23.3787 139.59 217.37 226.231 217.37 226.231C217.37 226.231 298.114 -68.1073 284.84 -2.85132Z" fill="white" fill-opacity="0.15"/>
<path fill-rule="evenodd" clip-rule="evenodd" d="M-49.9862 176.656C-34.4168 133.704 39.5445 -15.3078 143.759 -1.60584C247.973 12.0961 2.02737 -56.7859 2.02737 -56.7859C2.02737 -56.7859 -65.5557 219.609 -49.9862 176.656Z" fill="white" fill-opacity="0.1"/>
<path fill-rule="evenodd" clip-rule="evenodd" d="M-28.4425 243.641C-17.5648 188.971 44.1247 -4.65659 171.756 -8.91384C299.388 -13.171 -8.47423 -47.0067 -8.47423 -47.0067C-8.47423 -47.0067 -39.3201 298.312 -28.4425 243.641Z" fill="white" fill-opacity="0.1"/>
<path d="M27.3689 115.005C27.3482 115.2 27.3005 115.334 27.2261 115.407C27.1515 115.485 27.0335 115.524 26.8721 115.524C26.6982 115.524 26.5678 115.47 26.4809 115.362C26.398 115.258 26.3505 115.088 26.3381 114.849L26.2573 113.344V113.227C26.2573 113.02 26.2946 112.873 26.3691 112.786C26.4478 112.699 26.5761 112.656 26.7541 112.656C27.0025 112.656 27.1805 112.842 27.2881 113.214C27.3378 113.4 27.3854 113.541 27.431 113.636C27.5758 113.939 27.8036 114.173 28.1141 114.337C28.4287 114.501 28.8033 114.584 29.238 114.584C29.7721 114.584 30.2047 114.452 30.5359 114.188C30.8712 113.923 31.0389 113.586 31.0389 113.175C31.0389 112.834 30.9354 112.559 30.7284 112.351C30.5255 112.144 30.2275 112.009 29.8341 111.949L28.9151 111.819C28.0581 111.694 27.433 111.458 27.0398 111.112C26.6465 110.766 26.4498 110.279 26.4498 109.652C26.4498 108.99 26.7106 108.434 27.2323 107.984C27.758 107.534 28.4121 107.309 29.1946 107.309C29.4223 107.309 29.6624 107.341 29.9149 107.407C30.1675 107.467 30.4531 107.565 30.7719 107.698C30.7802 107.573 30.8133 107.487 30.8712 107.439C30.9292 107.391 31.0285 107.368 31.1693 107.368C31.3515 107.368 31.4777 107.396 31.5481 107.452C31.6184 107.509 31.662 107.642 31.6785 107.855L31.7654 109.211V109.276C31.7654 109.427 31.724 109.546 31.6412 109.632C31.5584 109.715 31.4425 109.755 31.2935 109.755C31.0741 109.755 30.9044 109.595 30.7843 109.276C30.7263 109.094 30.6684 108.958 30.6104 108.866C30.4738 108.65 30.2771 108.484 30.0205 108.367C29.7638 108.25 29.4719 108.192 29.1449 108.192C28.6439 108.192 28.2362 108.322 27.9216 108.581C27.611 108.841 27.4558 109.18 27.4558 109.6C27.4558 109.929 27.5717 110.188 27.8036 110.379C28.0395 110.569 28.3977 110.698 28.8779 110.768L29.8715 110.898C30.5918 110.997 31.1341 111.229 31.4984 111.592C31.8627 111.951 32.0449 112.438 32.0449 113.052C32.0449 113.779 31.7861 114.363 31.2687 114.804C30.7512 115.241 30.0598 115.459 29.1946 115.459C28.8965 115.459 28.6005 115.423 28.3065 115.349C28.0126 115.276 27.7001 115.161 27.3689 115.005Z" fill="white"/>
<path d="M35.9648 111.91H38.5047L37.1695 108.471L35.9648 111.91ZM36.2816 108.471H35.3749C35.1224 108.471 34.9444 108.436 34.8409 108.367C34.7415 108.294 34.6919 108.173 34.6919 108.004C34.6919 107.827 34.7353 107.705 34.8223 107.641C34.9133 107.571 35.1576 107.537 35.555 107.537H37.3248C37.5525 107.537 37.7057 107.569 37.7844 107.634C37.8671 107.695 37.9417 107.809 38.0079 107.977L40.4359 114.317H40.5415C40.7651 114.317 40.9183 114.35 41.001 114.415C41.0839 114.48 41.1253 114.596 41.1253 114.765C41.1253 114.942 41.086 115.066 41.0072 115.135C40.9286 115.2 40.7817 115.232 40.5663 115.232H38.8773C38.5627 115.232 38.3598 115.2 38.2688 115.135C38.1818 115.066 38.1383 114.942 38.1383 114.765C38.1383 114.601 38.1859 114.486 38.2812 114.421C38.3805 114.352 38.5648 114.317 38.8338 114.317H39.4113L38.809 112.773H35.6544L35.1204 114.317H35.7227C35.9959 114.317 36.1822 114.352 36.2816 114.421C36.3809 114.486 36.4306 114.601 36.4306 114.765C36.4306 114.942 36.3851 115.066 36.294 115.135C36.2071 115.2 36.0125 115.232 35.7103 115.232H34.0771C33.8122 115.232 33.6362 115.2 33.5492 115.135C33.4623 115.066 33.4188 114.942 33.4188 114.765C33.4188 114.596 33.4623 114.48 33.5492 114.415C33.6362 114.35 33.8039 114.317 34.0522 114.317H34.1702L36.2816 108.471Z" fill="white"/>
<path d="M42.2324 108.471H42.1516C41.9446 108.471 41.7977 108.436 41.7107 108.367C41.6238 108.294 41.5803 108.173 41.5803 108.004C41.5803 107.852 41.6176 107.738 41.6921 107.659C41.7666 107.577 41.8742 107.537 42.015 107.537H43.8966C44.1408 107.537 44.3044 107.571 44.3871 107.641C44.4741 107.709 44.5176 107.83 44.5176 108.004C44.5176 108.164 44.4721 108.283 44.3809 108.36C44.2899 108.434 44.145 108.471 43.9462 108.471H43.2632L45.3745 114.129L47.43 108.471H46.6041C46.4095 108.471 46.2646 108.434 46.1694 108.36C46.0783 108.283 46.0327 108.164 46.0327 108.004C46.0327 107.83 46.0762 107.709 46.1632 107.641C46.2501 107.571 46.4137 107.537 46.6537 107.537H48.6037C48.7444 107.537 48.8499 107.577 48.9204 107.659C48.9948 107.738 49.0321 107.852 49.0321 108.004C49.0321 108.173 48.9886 108.294 48.9017 108.367C48.8148 108.436 48.6637 108.471 48.4484 108.471H48.3739L46.1383 114.584C46.01 114.908 45.9085 115.111 45.8341 115.193C45.7595 115.271 45.6643 115.31 45.5484 115.31H45.1945C44.9212 115.31 44.6997 115.08 44.53 114.622L44.5176 114.584L42.2324 108.471Z" fill="white"/>
<path d="M55.2561 114.317C55.5748 114.317 55.7776 114.35 55.8646 114.415C55.9556 114.475 56.0013 114.592 56.0013 114.765C56.0013 114.942 55.9556 115.066 55.8646 115.135C55.7776 115.2 55.5748 115.232 55.2561 115.232H51.4866H51.1948C51.0457 115.232 50.9319 115.193 50.8533 115.116C50.7746 115.038 50.7352 114.921 50.7352 114.765C50.7352 114.592 50.7808 114.475 50.8719 114.415C50.963 114.35 51.1679 114.317 51.4866 114.317H52.8901V108.471H51.4866C51.1761 108.471 50.9733 108.438 50.8781 108.373C50.7829 108.304 50.7352 108.181 50.7352 108.004C50.7352 107.844 50.7746 107.727 50.8533 107.653C50.9319 107.575 51.0499 107.537 51.2072 107.537H51.4866H55.2561H55.5479C55.697 107.537 55.8087 107.575 55.8832 107.653C55.9618 107.731 56.0013 107.848 56.0013 108.004C56.0013 108.181 55.9536 108.304 55.8584 108.373C55.7673 108.438 55.5666 108.471 55.2561 108.471H53.8526V114.317H55.2561Z" fill="white"/>
<path d="M59.7411 114.317H60.0579H60.5174C60.7409 114.317 60.9003 114.352 60.9955 114.421C61.0907 114.491 61.1384 114.605 61.1384 114.765C61.1384 114.942 61.0928 115.066 61.0017 115.135C60.9147 115.2 60.7202 115.232 60.418 115.232H58.8656H58.5737C58.4247 115.232 58.3129 115.193 58.2383 115.116C58.1638 115.038 58.1266 114.921 58.1266 114.765C58.1266 114.592 58.168 114.475 58.2507 114.415C58.3377 114.35 58.5033 114.317 58.7476 114.317H58.8656V108.471H58.7103C58.3625 108.471 58.1266 108.436 58.0024 108.367C57.8823 108.298 57.8223 108.177 57.8223 108.004C57.8223 107.844 57.874 107.729 57.9776 107.659C58.0851 107.586 58.257 107.549 58.4929 107.549C58.4929 107.549 58.5343 107.547 58.6172 107.543C58.6999 107.538 58.7827 107.537 58.8656 107.537H59.4493C59.6397 107.537 59.7722 107.56 59.8467 107.608C59.9254 107.651 60.0164 107.766 60.1199 107.952L63.2497 113.597V108.471H63.0075H62.5666C62.343 108.471 62.1795 108.434 62.076 108.36C61.9767 108.283 61.927 108.164 61.927 108.004C61.927 107.827 61.9704 107.705 62.0574 107.641C62.1444 107.571 62.3265 107.537 62.6039 107.537H64.088H64.3861C64.5351 107.537 64.6448 107.575 64.7152 107.653C64.7897 107.731 64.827 107.848 64.827 108.004C64.827 108.177 64.7814 108.298 64.6904 108.367C64.6034 108.436 64.442 108.471 64.206 108.471H64.1315V115.005C64.1315 115.13 64.1025 115.217 64.0445 115.265C63.9907 115.313 63.8624 115.336 63.6595 115.336C63.4567 115.336 63.3304 115.323 63.2807 115.297C63.2352 115.276 63.1565 115.165 63.0448 114.966L59.7411 109.016V114.317Z" fill="white"/>
<path d="M71.467 114.116V112.572H69.927C69.8028 112.572 69.7096 112.537 69.6475 112.468C69.5895 112.398 69.5605 112.293 69.5605 112.15C69.5605 111.986 69.5874 111.873 69.6413 111.812C69.6951 111.752 69.7986 111.722 69.9518 111.722H72.6345C72.7421 111.722 72.8207 111.759 72.8704 111.832C72.9242 111.902 72.9511 112.007 72.9511 112.15C72.9511 112.31 72.916 112.42 72.8455 112.481C72.7793 112.541 72.6593 112.572 72.4854 112.572H72.4046V114.37V114.525C72.4046 114.641 72.3922 114.724 72.3674 114.771C72.3426 114.815 72.2929 114.858 72.2184 114.902C71.9824 115.048 71.6388 115.173 71.1875 115.277C70.7363 115.381 70.2788 115.434 69.8152 115.434C68.7056 115.434 67.8093 115.063 67.1263 114.323C66.4432 113.584 66.1017 112.62 66.1017 111.43C66.1017 110.24 66.4349 109.258 67.1015 108.484C67.7721 107.709 68.625 107.323 69.6599 107.323C69.9415 107.323 70.223 107.357 70.5044 107.426C70.7901 107.491 71.0861 107.591 71.3924 107.725C71.4339 107.612 71.4897 107.532 71.5602 107.484C71.6346 107.433 71.7299 107.407 71.8458 107.407C72.0404 107.407 72.1687 107.467 72.2308 107.588C72.2971 107.709 72.3302 107.988 72.3302 108.426V109.308C72.3302 109.52 72.295 109.669 72.2246 109.755C72.1542 109.837 72.0321 109.879 71.8582 109.879C71.6429 109.879 71.4877 109.741 71.3924 109.463C71.3593 109.381 71.3324 109.319 71.3117 109.276C71.1586 108.934 70.9391 108.67 70.6535 108.484C70.3679 108.298 70.0408 108.205 69.6723 108.205C68.9313 108.205 68.3393 108.486 67.8963 109.048C67.4534 109.606 67.2319 110.361 67.2319 111.313C67.2319 112.295 67.4761 113.076 67.9646 113.655C68.4532 114.235 69.1031 114.525 69.9145 114.525C70.1505 114.525 70.3927 114.492 70.641 114.427C70.8936 114.362 71.1689 114.259 71.467 114.116Z" fill="white"/>
<path d="M75.7414 115.005C75.7204 115.2 75.6726 115.334 75.5986 115.407C75.5238 115.485 75.4057 115.524 75.2442 115.524C75.0707 115.524 74.9399 115.47 74.8531 115.362C74.7701 115.258 74.7227 115.088 74.7103 114.849L74.6295 113.344V113.227C74.6295 113.02 74.6667 112.873 74.7413 112.786C74.8202 112.699 74.9481 112.656 75.126 112.656C75.375 112.656 75.553 112.842 75.6606 113.214C75.71 113.4 75.7578 113.541 75.8034 113.636C75.9477 113.939 76.1758 114.173 76.486 114.337C76.8008 114.501 77.1754 114.584 77.6105 114.584C78.1444 114.584 78.5773 114.452 78.9077 114.188C79.2434 113.923 79.4109 113.586 79.4109 113.175C79.4109 112.834 79.3077 112.559 79.1006 112.351C78.898 112.144 78.5997 112.009 78.2064 111.949L77.2875 111.819C76.4307 111.694 75.8049 111.458 75.4116 111.112C75.0184 110.766 74.8217 110.279 74.8217 109.652C74.8217 108.99 75.0827 108.434 75.6045 107.984C76.1302 107.534 76.7844 107.309 77.5664 107.309C77.7945 107.309 78.0344 107.341 78.2872 107.407C78.5399 107.467 78.8255 107.565 79.144 107.698C79.1522 107.573 79.1851 107.487 79.2434 107.439C79.3017 107.391 79.4004 107.368 79.5417 107.368C79.7234 107.368 79.8498 107.396 79.9201 107.452C79.9903 107.509 80.0344 107.642 80.0509 107.855L80.1376 109.211V109.276C80.1376 109.427 80.0965 109.546 80.0135 109.632C79.9305 109.715 79.8146 109.755 79.6659 109.755C79.446 109.755 79.2763 109.595 79.1567 109.276C79.0984 109.094 79.0408 108.958 78.9825 108.866C78.8457 108.65 78.649 108.484 78.3926 108.367C78.1361 108.25 77.8438 108.192 77.5171 108.192C77.0161 108.192 76.6087 108.322 76.2939 108.581C75.9836 108.841 75.8281 109.18 75.8281 109.6C75.8281 109.929 75.944 110.188 76.1758 110.379C76.412 110.569 76.7701 110.698 77.2501 110.768L78.2438 110.898C78.9638 110.997 79.5066 111.229 79.8707 111.592C80.2348 111.951 80.4173 112.438 80.4173 113.052C80.4173 113.779 80.1586 114.363 79.6412 114.804C79.123 115.241 78.4322 115.459 77.5664 115.459C77.2688 115.459 76.9728 115.423 76.6789 115.349C76.3851 115.276 76.0726 115.161 75.7414 115.005Z" fill="white"/>
<path d="M26.8125 83.1883C26.8125 82.5843 27.0184 82.0625 27.4302 81.6226C27.842 81.1836 28.3327 80.9633 28.9021 80.9633C29.4805 80.9633 29.9755 81.1836 30.3872 81.6226C30.799 82.0625 31.005 82.5843 31.005 83.1883C31.005 83.7922 30.799 84.3101 30.3872 84.7398C29.9755 85.1703 29.4805 85.3851 28.9021 85.3851C28.3327 85.3851 27.842 85.1703 27.4302 84.7398C27.0184 84.3101 26.8125 83.7922 26.8125 83.1883Z" fill="white"/>
<path d="M35.3438 83.1883C35.3438 82.5843 35.5497 82.0625 35.9615 81.6226C36.3733 81.1836 36.8639 80.9633 37.4335 80.9633C38.0117 80.9633 38.5067 81.1836 38.9186 81.6226C39.3304 82.0625 39.5363 82.5843 39.5363 83.1883C39.5363 83.7922 39.3304 84.3101 38.9186 84.7398C38.5067 85.1703 38.0117 85.3851 37.4335 85.3851C36.8639 85.3851 36.3733 85.1703 35.9615 84.7398C35.5497 84.3101 35.3438 83.7922 35.3438 83.1883Z" fill="white"/>
<path d="M43.875 83.1883C43.875 82.5843 44.0809 82.0625 44.4927 81.6226C44.9045 81.1836 45.3951 80.9633 45.9646 80.9633C46.5429 80.9633 47.038 81.1836 47.4497 81.6226C47.8615 82.0625 48.0674 82.5843 48.0674 83.1883C48.0674 83.7922 47.8615 84.3101 47.4497 84.7398C47.038 85.1703 46.5429 85.3851 45.9646 85.3851C45.3951 85.3851 44.9045 85.1703 44.4927 84.7398C44.0809 84.3101 43.875 83.7922 43.875 83.1883Z" fill="white"/>
<path d="M52.4062 83.1883C52.4062 82.5843 52.6122 82.0625 53.024 81.6226C53.4358 81.1836 53.9264 80.9633 54.496 80.9633C55.0742 80.9633 55.5692 81.1836 55.9811 81.6226C56.3929 82.0625 56.5988 82.5843 56.5988 83.1883C56.5988 83.7922 56.3929 84.3101 55.9811 84.7398C55.5692 85.1703 55.0742 85.3851 54.496 85.3851C53.9264 85.3851 53.4358 85.1703 53.024 84.7398C52.6122 84.3101 52.4062 83.7922 52.4062 83.1883Z" fill="white"/>
<path d="M78 83.1883C78 82.5843 78.2056 82.0625 78.6176 81.6226C79.0295 81.1836 79.52 80.9633 80.0897 80.9633C80.6677 80.9633 81.1626 81.1836 81.5746 81.6226C81.9865 82.0625 82.1921 82.5843 82.1921 83.1883C82.1921 83.7922 81.9865 84.3101 81.5746 84.7398C81.1626 85.1703 80.6677 85.3851 80.0897 85.3851C79.52 85.3851 79.0295 85.1703 78.6176 84.7398C78.2056 84.3101 78 83.7922 78 83.1883Z" fill="white"/>
<path d="M86.5316 83.1883C86.5316 82.5843 86.7372 82.0625 87.1492 81.6226C87.5604 81.1836 88.0516 80.9633 88.6206 80.9633C89.1993 80.9633 89.6942 81.1836 90.1062 81.6226C90.5182 82.0625 90.7238 82.5843 90.7238 83.1883C90.7238 83.7922 90.5182 84.3101 90.1062 84.7398C89.6942 85.1703 89.1993 85.3851 88.6206 85.3851C88.0516 85.3851 87.5604 85.1703 87.1492 84.7398C86.7372 84.3101 86.5316 83.7922 86.5316 83.1883Z" fill="white"/>
<path d="M95.0624 83.1883C95.0624 82.5843 95.268 82.0625 95.6799 81.6226C96.0919 81.1836 96.5824 80.9633 97.1521 80.9633C97.73 80.9633 98.2257 81.1836 98.637 81.6226C99.0489 82.0625 99.2545 82.5843 99.2545 83.1883C99.2545 83.7922 99.0489 84.3101 98.637 84.7398C98.2257 85.1703 97.73 85.3851 97.1521 85.3851C96.5824 85.3851 96.0919 85.1703 95.6799 84.7398C95.268 84.3101 95.0624 83.7922 95.0624 83.1883Z" fill="white"/>
<path d="M103.594 83.1883C103.594 82.5843 103.8 82.0625 104.212 81.6226C104.624 81.1836 105.114 80.9633 105.684 80.9633C106.262 80.9633 106.757 81.1836 107.169 81.6226C107.581 82.0625 107.786 82.5843 107.786 83.1883C107.786 83.7922 107.581 84.3101 107.169 84.7398C106.757 85.1703 106.262 85.3851 105.684 85.3851C105.114 85.3851 104.624 85.1703 104.212 84.7398C103.8 84.3101 103.594 83.7922 103.594 83.1883Z" fill="white"/>
<path d="M129.187 83.1883C129.187 82.5843 129.394 82.0625 129.805 81.6226C130.217 81.1836 130.707 80.9633 131.277 80.9633C131.856 80.9633 132.351 81.1836 132.763 81.6226C133.174 82.0625 133.38 82.5843 133.38 83.1883C133.38 83.7922 133.174 84.3101 132.763 84.7398C132.351 85.1703 131.856 85.3851 131.277 85.3851C130.707 85.3851 130.217 85.1703 129.805 84.7398C129.394 84.3101 129.187 83.7922 129.187 83.1883Z" fill="white"/>
<path d="M137.719 83.1883C137.719 82.5843 137.924 82.0625 138.336 81.6226C138.748 81.1836 139.239 80.9633 139.809 80.9633C140.387 80.9633 140.881 81.1836 141.293 81.6226C141.705 82.0625 141.911 82.5843 141.911 83.1883C141.911 83.7922 141.705 84.3101 141.293 84.7398C140.881 85.1703 140.387 85.3851 139.809 85.3851C139.239 85.3851 138.748 85.1703 138.336 84.7398C137.924 84.3101 137.719 83.7922 137.719 83.1883Z" fill="white"/>
<path d="M146.25 83.1883C146.25 82.5843 146.456 82.0625 146.868 81.6226C147.279 81.1836 147.771 80.9633 148.339 80.9633C148.918 80.9633 149.413 81.1836 149.825 81.6226C150.236 82.0625 150.443 82.5843 150.443 83.1883C150.443 83.7922 150.236 84.3101 149.825 84.7398C149.413 85.1703 148.918 85.3851 148.339 85.3851C147.771 85.3851 147.279 85.1703 146.868 84.7398C146.456 84.3101 146.25 83.7922 146.25 83.1883Z" fill="white"/>
<path d="M154.781 83.1883C154.781 82.5843 154.987 82.0625 155.399 81.6226C155.811 81.1836 156.301 80.9633 156.871 80.9633C157.449 80.9633 157.944 81.1836 158.356 81.6226C158.768 82.0625 158.973 82.5843 158.973 83.1883C158.973 83.7922 158.768 84.3101 158.356 84.7398C157.944 85.1703 157.449 85.3851 156.871 85.3851C156.301 85.3851 155.811 85.1703 155.399 84.7398C154.987 84.3101 154.781 83.7922 154.781 83.1883Z" fill="white"/>
<path d="M180.901 80.4071C180.843 80.4164 180.8 80.4235 180.769 80.4281C180.743 80.4328 180.719 80.4352 180.697 80.4352C180.561 80.4352 180.449 80.3961 180.362 80.318C180.279 80.236 180.237 80.1281 180.237 79.9953C180.237 79.8852 180.274 79.7891 180.348 79.7071C180.423 79.6242 180.531 79.5625 180.671 79.5219L182.622 78.9719C182.671 78.9586 182.716 78.9492 182.76 78.9446C182.808 78.936 182.857 78.9313 182.905 78.9313C182.988 78.9313 183.054 78.9719 183.102 79.0547C183.15 79.1328 183.175 79.2399 183.175 79.3774V86.8071H184.226C184.615 86.8071 184.863 86.8414 184.968 86.9102C185.074 86.9742 185.126 87.0977 185.126 87.2805C185.126 87.4453 185.082 87.5688 184.994 87.6516C184.907 87.7336 184.775 87.775 184.6 87.775H180.671C180.496 87.775 180.364 87.7336 180.277 87.6516C180.189 87.5688 180.145 87.4453 180.145 87.2805C180.145 87.0977 180.197 86.9742 180.303 86.9102C180.407 86.8414 180.656 86.8071 181.045 86.8071H182.136V80.0985L180.901 80.4071Z" fill="white"/>
<path d="M188.715 87.775C188.484 87.775 188.31 87.7273 188.197 87.6305C188.087 87.5305 188.032 87.3766 188.032 87.1711C188.032 86.8734 188.453 86.3148 189.294 85.4953L189.485 85.3031C189.611 85.175 189.796 84.9922 190.037 84.7539C191.552 83.2617 192.31 82.1742 192.31 81.4922C192.31 81.0023 192.176 80.6062 191.909 80.3047C191.642 79.9976 191.296 79.8445 190.871 79.8445C190.595 79.8445 190.33 79.9039 190.076 80.0226C189.827 80.1422 189.625 80.3023 189.471 80.5031C189.445 80.5398 189.403 80.6016 189.347 80.6891C189.184 80.9953 189.003 81.1492 188.801 81.1492C188.644 81.1492 188.532 81.0984 188.466 80.9976C188.4 80.8969 188.367 80.7047 188.367 80.4211C188.367 80.2562 188.383 80.1375 188.413 80.0641C188.444 79.9859 188.501 79.9039 188.584 79.8172C188.864 79.5328 189.21 79.3086 189.622 79.1437C190.039 78.9742 190.464 78.8898 190.897 78.8898C191.625 78.8898 192.231 79.1344 192.718 79.6242C193.208 80.1141 193.453 80.7164 193.453 81.4305C193.453 82.3273 192.709 83.5203 191.219 85.0078C190.838 85.3789 190.547 85.6695 190.345 85.8797L189.537 86.6898H192.54C192.558 86.493 192.608 86.3445 192.692 86.2437C192.779 86.1383 192.895 86.0859 193.039 86.0859C193.184 86.0859 193.298 86.1359 193.381 86.2367C193.465 86.3375 193.506 86.475 193.506 86.6492C193.506 86.6625 193.504 86.6875 193.5 86.7242C193.495 86.7562 193.493 86.7797 193.493 86.793L193.441 87.3219C193.427 87.4641 193.388 87.5758 193.322 87.6586C193.256 87.7359 193.171 87.775 193.066 87.775H188.715Z" fill="white"/>
<path d="M200.558 83.0508C201.071 83.1976 201.468 83.4648 201.748 83.8539C202.033 84.2391 202.176 84.7101 202.176 85.2687C202.176 86.0695 201.904 86.7266 201.361 87.2398C200.817 87.7477 200.114 88.0016 199.251 88.0016C198.585 88.0016 197.992 87.8687 197.471 87.6031C196.953 87.3336 196.695 87.0383 196.695 86.718C196.695 86.5805 196.741 86.468 196.833 86.3812C196.929 86.2898 197.045 86.2437 197.181 86.2437C197.255 86.2437 197.525 86.3609 197.99 86.5937C198.458 86.8273 198.894 86.9445 199.297 86.9445C199.818 86.9445 200.241 86.7883 200.565 86.4773C200.894 86.1656 201.058 85.7633 201.058 85.2687C201.058 84.8617 200.944 84.518 200.716 84.2391C200.493 83.9547 200.184 83.7742 199.79 83.6961C199.672 83.6734 199.516 83.6555 199.323 83.6414C198.956 83.6187 198.772 83.4586 198.772 83.1609C198.772 82.8906 198.951 82.7328 199.311 82.6867C199.45 82.6734 199.566 82.657 199.658 82.6391C200 82.5844 200.277 82.4375 200.487 82.1992C200.697 81.9617 200.802 81.6734 200.802 81.3344C200.802 80.8992 200.673 80.5445 200.414 80.2703C200.155 79.9953 199.827 79.8578 199.429 79.8578C199.061 79.8578 198.682 79.9773 198.292 80.2148C197.907 80.4531 197.665 80.5719 197.569 80.5719C197.446 80.5719 197.344 80.5312 197.26 80.4484C197.181 80.3664 197.142 80.2633 197.142 80.1398C197.142 79.8601 197.387 79.5836 197.877 79.3086C198.369 79.0297 198.911 78.8898 199.507 78.8898C200.191 78.8898 200.758 79.107 201.21 79.5422C201.665 79.9726 201.893 80.5031 201.893 81.1351C201.893 81.6156 201.783 82.0117 201.564 82.3234C201.35 82.6344 201.015 82.8773 200.558 83.0508Z" fill="white"/>
<path d="M208.617 84.6093V79.9539L206.126 84.6093H208.617ZM207.907 87.7749C207.697 87.7749 207.554 87.7406 207.48 87.6718C207.406 87.5984 207.368 87.4679 207.368 87.2804C207.368 87.1156 207.406 86.9968 207.48 86.9234C207.559 86.846 207.684 86.807 207.855 86.807H208.617V85.6531H205.548C205.438 85.6531 205.353 85.6164 205.292 85.5437C205.231 85.4703 205.2 85.3648 205.2 85.2273V84.7539C205.2 84.5703 205.264 84.3781 205.391 84.1773C205.412 84.1406 205.429 84.1109 205.443 84.0875L208.216 79.1711C208.277 79.057 208.327 78.9836 208.367 78.9515C208.407 78.9195 208.459 78.9039 208.525 78.9039C208.551 78.9039 208.597 78.9078 208.663 78.9171C208.68 78.9218 208.698 78.9265 208.715 78.9312L209.385 79.0406C209.447 79.05 209.495 79.0867 209.53 79.1507C209.57 79.2101 209.589 79.2906 209.589 79.3914V84.6093H209.924C210.021 84.6093 210.096 84.5703 210.148 84.4929C210.2 84.4101 210.259 84.3695 210.325 84.3695C210.413 84.3695 210.487 84.4039 210.549 84.4726C210.61 84.5406 210.641 84.6257 210.641 84.7265C210.641 84.7671 210.638 84.8062 210.634 84.8429C210.63 84.875 210.621 84.9093 210.608 84.946L210.555 85.2273C210.525 85.3921 210.478 85.5046 210.417 85.564C210.36 85.6234 210.268 85.6531 210.141 85.6531H209.589V86.807H209.82C210.1 86.807 210.292 86.8437 210.398 86.9164C210.503 86.9851 210.555 87.107 210.555 87.2804C210.555 87.4453 210.511 87.5687 210.424 87.6515C210.336 87.7335 210.205 87.7749 210.03 87.7749H207.907Z" fill="white"/>
<path d="M29.9215 51.4563L30.1368 50.9219L24.6729 36.1282H28.7372L32.2093 46.1125L36.1929 36.1282H40.1764L33.7166 51.9344C32.9988 53.6969 32.1644 54.9532 31.2134 55.7032C30.2624 56.4532 29.0243 56.8282 27.499 56.8282C27.176 56.8282 26.862 56.8094 26.557 56.7719C26.2699 56.7532 26.0366 56.7157 25.8572 56.6594V53.3407C26.0366 53.3782 26.225 53.4063 26.4224 53.4251C26.6198 53.4438 26.862 53.4532 27.1491 53.4532C27.813 53.4532 28.3693 53.2844 28.8179 52.9469C29.2844 52.6094 29.6523 52.1125 29.9215 51.4563Z" fill="white"/>
<path d="M53.6786 48.9531C52.8173 49.6844 51.9291 50.2188 51.0139 50.5563C50.1167 50.8938 49.1119 51.0625 47.9993 51.0625C46.9406 51.0625 45.9448 50.8656 45.0117 50.4719C44.0965 50.0781 43.298 49.5438 42.6162 48.8688C41.9522 48.1938 41.4229 47.3969 41.0281 46.4781C40.6513 45.5406 40.4629 44.5375 40.4629 43.4688C40.4629 42.4188 40.6423 41.4344 41.0012 40.5156C41.378 39.5781 41.8894 38.7719 42.5354 38.0969C43.1814 37.4031 43.944 36.8594 44.8233 36.4656C45.7205 36.0719 46.6715 35.875 47.6763 35.875C48.6633 35.875 49.5784 36.0813 50.4218 36.4938C51.2831 36.8875 52.0188 37.4313 52.6289 38.125C53.2569 38.8188 53.7414 39.6531 54.0823 40.6281C54.4412 41.5844 54.6206 42.625 54.6206 43.75V44.7625H44.1773C44.4285 45.6813 44.913 46.4219 45.6307 46.9844C46.3485 47.5469 47.1919 47.8281 48.1608 47.8281C48.7709 47.8281 49.3451 47.725 49.8835 47.5188C50.4218 47.3125 50.8793 47.0219 51.2562 46.6469L53.6786 48.9531ZM47.5956 39.0531C46.7522 39.0531 46.0255 39.325 45.4154 39.8688C44.8053 40.3938 44.3836 41.1063 44.1504 42.0063H51.0139C50.7806 41.1438 50.35 40.4406 49.722 39.8969C49.1119 39.3344 48.4031 39.0531 47.5956 39.0531Z" fill="white"/>
<path d="M60.5674 30.25V50.7812H56.8799V31.0937L60.5674 30.25Z" fill="white"/>
<path d="M67.1387 30.25V50.7812H63.4512V31.0937L67.1387 30.25Z" fill="white"/>
<path d="M69.3763 43.4687C69.3763 42.4 69.5648 41.4062 69.9416 40.4875C70.3363 39.55 70.8657 38.7437 71.5296 38.0687C72.2115 37.375 73.01 36.8312 73.9251 36.4375C74.8403 36.0437 75.8183 35.8469 76.859 35.8469C77.8998 35.8469 78.8777 36.0437 79.7929 36.4375C80.708 36.8312 81.4975 37.375 82.1615 38.0687C82.8433 38.7437 83.3727 39.55 83.7495 40.4875C84.1443 41.4062 84.3416 42.4 84.3416 43.4687C84.3416 44.5375 84.1443 45.5406 83.7495 46.4781C83.3727 47.3969 82.8433 48.1937 82.1615 48.8687C81.4975 49.5437 80.708 50.0781 79.7929 50.4719C78.8777 50.8656 77.8998 51.0625 76.859 51.0625C75.8183 51.0625 74.8403 50.8656 73.9251 50.4719C73.01 50.0781 72.2115 49.5437 71.5296 48.8687C70.8657 48.1937 70.3363 47.3969 69.9416 46.4781C69.5648 45.5406 69.3763 44.5375 69.3763 43.4687ZM76.859 47.7156C77.9357 47.7156 78.8508 47.3031 79.6045 46.4781C80.3581 45.6531 80.7349 44.65 80.7349 43.4687C80.7349 42.2687 80.3581 41.2562 79.6045 40.4312C78.8508 39.6062 77.9357 39.1937 76.859 39.1937C75.7824 39.1937 74.8673 39.6062 74.1135 40.4312C73.3599 41.2562 72.9831 42.2687 72.9831 43.4687C72.9831 44.65 73.3599 45.6531 74.1135 46.4781C74.8673 47.3031 75.7824 47.7156 76.859 47.7156Z" fill="white"/>
<path d="M92.563 50.7813H89.0101L85.1611 36.1282H88.6602L90.975 45.6063L93.7742 36.1282H96.8695L99.6419 45.6063L101.957 36.1282H105.402L101.526 50.7813H98L95.2815 41.4157L92.563 50.7813Z" fill="white"/>
<path d="M108.914 46.4781C109.524 46.4781 110.044 46.7031 110.475 47.1531C110.905 47.6031 111.121 48.1469 111.121 48.7844C111.121 49.4031 110.905 49.9375 110.475 50.3875C110.044 50.8375 109.524 51.0625 108.914 51.0625C108.321 51.0625 107.81 50.8375 107.379 50.3875C106.949 49.9375 106.733 49.4031 106.733 48.7844C106.733 48.1469 106.949 47.6031 107.379 47.1531C107.81 46.7031 108.321 46.4781 108.914 46.4781Z" fill="white"/>
</g>
<defs>
<filter id="filter0_i" x="0" y="0" width="241" height="151" filterUnits="userSpaceOnUse" color-interpolation-filters="sRGB">
<feFlood flood-opacity="0" result="BackgroundImageFix"/>
<feBlend mode="normal" in="SourceGraphic" in2="BackgroundImageFix" result="shape"/>
<feColorMatrix in="SourceAlpha" type="matrix" values="0 0 0 0 0 0 0 0 0 0 0 0 0 0 0 0 0 0 127 0" result="hardAlpha"/>
<feOffset dx="1" dy="1"/>
<feGaussianBlur stdDeviation="1.5"/>
<feComposite in2="hardAlpha" operator="arithmetic" k2="-1" k3="1"/>
<feColorMatrix type="matrix" values="0 0 0 0 1 0 0 0 0 1 0 0 0 0 1 0 0 0 0.25 0"/>
<feBlend mode="normal" in2="shape" result="effect1_innerShadow"/>
</filter>
<linearGradient id="paint0_linear" x1="0" y1="150" x2="240" y2="150" gradientUnits="userSpaceOnUse">
<stop stop-color="#00A558"/>
<stop offset="1" stop-color="#74D836"/>
</linearGradient>
<linearGradient id="paint1_linear" x1="0" y1="150" x2="240" y2="150" gradientUnits="userSpaceOnUse">
<stop stop-color="#00A558"/>
<stop offset="1" stop-color="#74D836"/>
</linearGradient>
</defs>
</svg>
