<svg width="24" height="24" viewBox="0 0 24 24" fill="none" xmlns="http://www.w3.org/2000/svg">
<path d="M12.2962 9.01453C11.6807 8.95374 11.0614 9.08469 10.5232 9.38945C9.98499 9.69421 9.55412 10.1579 9.2896 10.717C9.02507 11.2761 8.93982 11.9033 9.04553 12.5127C9.15123 13.1221 9.44271 13.684 9.88007 14.1213C10.3174 14.5587 10.8793 14.8502 11.4887 14.9559C12.0981 15.0616 12.7253 14.9763 13.2844 14.7118C13.8435 14.4473 14.3072 14.0164 14.6119 13.4782C14.9167 12.94 15.0477 12.3207 14.9869 11.7052C14.9176 11.0151 14.6118 10.3703 14.1215 9.87995C13.6311 9.38958 12.9863 9.08384 12.2962 9.01453V9.01453ZM19.5197 12C19.5178 12.3261 19.4938 12.6517 19.448 12.9745L21.5672 14.6367C21.6595 14.7132 21.7216 14.8199 21.7427 14.9379C21.7637 15.056 21.7422 15.1776 21.682 15.2812L19.6772 18.75C19.6163 18.8527 19.5211 18.9305 19.4084 18.9699C19.2958 19.0093 19.1728 19.0076 19.0612 18.9652L16.9566 18.1177C16.8405 18.0714 16.7148 18.0547 16.5907 18.0691C16.4666 18.0834 16.348 18.1283 16.2455 18.1997C15.9243 18.4209 15.5867 18.6174 15.2358 18.7875C15.1254 18.8411 15.03 18.9211 14.9579 19.0203C14.8858 19.1196 14.8392 19.2351 14.8223 19.3566L14.5069 21.6014C14.4861 21.72 14.4249 21.8276 14.3336 21.906C14.2423 21.9844 14.1266 22.0287 14.0062 22.0312H9.99656C9.87821 22.0292 9.7641 21.9869 9.67302 21.9113C9.58193 21.8357 9.51931 21.7314 9.49546 21.6155L9.18046 19.3739C9.16277 19.2511 9.115 19.1345 9.0414 19.0346C8.9678 18.9346 8.87065 18.8544 8.75859 18.8011C8.40806 18.6319 8.07167 18.4349 7.75265 18.2119C7.65051 18.1408 7.53229 18.0963 7.40864 18.0823C7.28499 18.0683 7.15981 18.0853 7.04437 18.1317L4.94015 18.9788C4.82864 19.0212 4.70572 19.023 4.59304 18.9837C4.48037 18.9444 4.38517 18.8666 4.32421 18.7641L2.31937 15.2953C2.25909 15.1917 2.23755 15.07 2.25858 14.952C2.27961 14.834 2.34185 14.7272 2.43421 14.6508L4.22531 13.2445C4.32343 13.1666 4.40055 13.0655 4.44967 12.9502C4.49878 12.835 4.51834 12.7093 4.50656 12.5845C4.48968 12.3891 4.47937 12.1941 4.47937 11.9986C4.47937 11.8031 4.48921 11.6109 4.50656 11.4197C4.51705 11.2957 4.49654 11.1711 4.44686 11.057C4.39719 10.9429 4.31993 10.843 4.22202 10.7662L2.43187 9.36C2.34101 9.28317 2.28008 9.17681 2.25977 9.05957C2.23946 8.94232 2.26105 8.82167 2.32077 8.71875L4.32562 5.25C4.3865 5.14734 4.48167 5.06946 4.59435 5.0301C4.70703 4.99074 4.82999 4.99242 4.94156 5.03484L7.04624 5.88234C7.16231 5.92856 7.28802 5.94525 7.41213 5.93094C7.53623 5.91662 7.65484 5.87174 7.75734 5.80031C8.07855 5.57912 8.41608 5.38262 8.76702 5.2125C8.87736 5.15887 8.97279 5.07891 9.04489 4.97966C9.117 4.88042 9.16356 4.76494 9.18046 4.64344L9.49593 2.39859C9.51665 2.28004 9.5779 2.17236 9.66921 2.09396C9.76052 2.01555 9.87623 1.9713 9.99656 1.96875H14.0062C14.1246 1.9708 14.2387 2.01309 14.3298 2.08867C14.4209 2.16425 14.4835 2.2686 14.5073 2.38453L14.8223 4.62609C14.84 4.74894 14.8878 4.86551 14.9614 4.96544C15.035 5.06537 15.1321 5.14557 15.2442 5.19891C15.5947 5.3681 15.9311 5.56514 16.2501 5.78813C16.3523 5.85919 16.4705 5.90373 16.5942 5.91772C16.7178 5.93172 16.843 5.91473 16.9584 5.86828L19.0626 5.02125C19.1742 4.97879 19.2971 4.97704 19.4098 5.01631C19.5224 5.05558 19.6176 5.13336 19.6786 5.23594L21.6834 8.70469C21.7437 8.80832 21.7652 8.92999 21.7442 9.04802C21.7232 9.16604 21.6609 9.27278 21.5686 9.34922L19.7775 10.7555C19.6789 10.8331 19.6014 10.9342 19.5518 11.0494C19.5023 11.1647 19.4824 11.2905 19.4939 11.4155C19.5094 11.6095 19.5197 11.8045 19.5197 12Z" stroke="#333435" stroke-width="1.5" stroke-linecap="round" stroke-linejoin="round"/>
</svg>
