<svg width="32" height="32" viewBox="0 0 32 32" fill="none" xmlns="http://www.w3.org/2000/svg">
<path d="M5.97015 6.50105H25.9701C26.2038 6.50094 26.4372 6.51576 26.6689 6.54543C26.5903 5.99404 26.4009 5.46426 26.1121 4.98805C25.8233 4.51183 25.441 4.09904 24.9883 3.77456C24.5357 3.45007 24.022 3.22062 23.4782 3.10004C22.9345 2.97945 22.3719 2.97023 21.8245 3.07293L5.3764 5.88105H5.35765C4.32519 6.07849 3.40706 6.66263 2.79077 7.51418C3.71927 6.85376 4.83073 6.49958 5.97015 6.50105Z" fill="#4F6EF6"/>
<path d="M25.9688 8H5.96875C4.90824 8.00116 3.8915 8.42296 3.1416 9.17285C2.39171 9.92275 1.96991 10.9395 1.96875 12V24C1.96991 25.0605 2.39171 26.0773 3.1416 26.8271C3.8915 27.577 4.90824 27.9988 5.96875 28H25.9688C27.0293 27.9988 28.046 27.577 28.7959 26.8271C29.5458 26.0773 29.9676 25.0605 29.9688 24V12C29.9676 10.9395 29.5458 9.92275 28.7959 9.17285C28.046 8.42296 27.0293 8.00116 25.9688 8ZM23 20C22.6044 20 22.2178 19.8827 21.8889 19.6629C21.56 19.4432 21.3036 19.1308 21.1522 18.7654C21.0009 18.3999 20.9613 17.9978 21.0384 17.6098C21.1156 17.2219 21.3061 16.8655 21.5858 16.5858C21.8655 16.3061 22.2219 16.1156 22.6098 16.0384C22.9978 15.9613 23.3999 16.0009 23.7654 16.1522C24.1308 16.3036 24.4432 16.56 24.6629 16.8889C24.8827 17.2178 25 17.6044 25 18C25 18.5304 24.7893 19.0391 24.4142 19.4142C24.0391 19.7893 23.5304 20 23 20Z" fill="#4F6EF6"/>
<path d="M2 16.2188V10C2 8.64563 2.75 6.375 5.35313 5.88312C7.5625 5.46875 9.75 5.46875 9.75 5.46875C9.75 5.46875 11.1875 6.46875 10 6.46875C8.8125 6.46875 8.84375 8 10 8C11.1562 8 10 9.46875 10 9.46875L5.34375 14.75L2 16.2188Z" fill="#4F6EF6"/>
</svg>
