<svg width="184" height="35" viewBox="0 0 184 35" fill="none" xmlns="http://www.w3.org/2000/svg">
<path d="M7.02 27.864L7.308 27.18L0 8.244H5.436L10.08 21.024L15.408 8.244H20.736L12.096 28.476C11.136 30.732 10.02 32.34 8.748 33.3C7.476 34.26 5.82 34.74 3.78 34.74C3.348 34.74 2.928 34.716 2.52 34.668C2.136 34.644 1.824 34.596 1.584 34.524V30.276C1.824 30.324 2.076 30.36 2.34 30.384C2.604 30.408 2.928 30.42 3.312 30.42C4.2 30.42 4.944 30.204 5.544 29.772C6.168 29.34 6.66 28.704 7.02 27.864ZM38.7951 24.66C37.6431 25.596 36.4551 26.28 35.2311 26.712C34.0311 27.144 32.6871 27.36 31.1991 27.36C29.7831 27.36 28.4511 27.108 27.2031 26.604C25.9791 26.1 24.9111 25.416 23.9991 24.552C23.1111 23.688 22.4031 22.668 21.8751 21.492C21.3711 20.292 21.1191 19.008 21.1191 17.64C21.1191 16.296 21.3591 15.036 21.8391 13.86C22.3431 12.66 23.0271 11.628 23.8911 10.764C24.7551 9.876 25.7751 9.18 26.9511 8.676C28.1511 8.172 29.4231 7.92 30.7671 7.92C32.0871 7.92 33.3111 8.184 34.4391 8.712C35.5911 9.216 36.5751 9.912 37.3911 10.8C38.2311 11.688 38.8791 12.756 39.3351 14.004C39.8151 15.228 40.0551 16.56 40.0551 18V19.296H26.0871C26.4231 20.472 27.0711 21.42 28.0311 22.14C28.9911 22.86 30.1191 23.22 31.4151 23.22C32.2311 23.22 32.9991 23.088 33.7191 22.824C34.4391 22.56 35.0511 22.188 35.5551 21.708L38.7951 24.66ZM30.6591 11.988C29.5311 11.988 28.5591 12.336 27.7431 13.032C26.9271 13.704 26.3631 14.616 26.0511 15.768H35.2311C34.9191 14.664 34.3431 13.764 33.5031 13.068C32.6871 12.348 31.7391 11.988 30.6591 11.988ZM48.0088 0.719999V27H43.0768V1.8L48.0088 0.719999ZM56.7979 0.719999V27H51.8659V1.8L56.7979 0.719999ZM59.7909 17.64C59.7909 16.272 60.0429 15 60.5469 13.824C61.0749 12.624 61.7829 11.592 62.6709 10.728C63.5829 9.84 64.6509 9.144 65.8749 8.64C67.0989 8.136 68.4069 7.884 69.7989 7.884C71.1909 7.884 72.4989 8.136 73.7229 8.64C74.9469 9.144 76.0029 9.84 76.8909 10.728C77.8029 11.592 78.5109 12.624 79.0149 13.824C79.5429 15 79.8069 16.272 79.8069 17.64C79.8069 19.008 79.5429 20.292 79.0149 21.492C78.5109 22.668 77.8029 23.688 76.8909 24.552C76.0029 25.416 74.9469 26.1 73.7229 26.604C72.4989 27.108 71.1909 27.36 69.7989 27.36C68.4069 27.36 67.0989 27.108 65.8749 26.604C64.6509 26.1 63.5829 25.416 62.6709 24.552C61.7829 23.688 61.0749 22.668 60.5469 21.492C60.0429 20.292 59.7909 19.008 59.7909 17.64ZM69.7989 23.076C71.2389 23.076 72.4629 22.548 73.4709 21.492C74.4789 20.436 74.9829 19.152 74.9829 17.64C74.9829 16.104 74.4789 14.808 73.4709 13.752C72.4629 12.696 71.2389 12.168 69.7989 12.168C68.3589 12.168 67.1349 12.696 66.1269 13.752C65.1189 14.808 64.6149 16.104 64.6149 17.64C64.6149 19.152 65.1189 20.436 66.1269 21.492C67.1349 22.548 68.3589 23.076 69.7989 23.076ZM90.803 27H86.051L80.903 8.244H85.583L88.679 20.376L92.423 8.244H96.563L100.271 20.376L103.367 8.244H107.975L102.791 27H98.075L94.439 15.012L90.803 27Z" fill="#3540A8"/>
<path d="M112.672 21.492C113.488 21.492 114.184 21.78 114.76 22.356C115.336 22.932 115.624 23.628 115.624 24.444C115.624 25.236 115.336 25.92 114.76 26.496C114.184 27.072 113.488 27.36 112.672 27.36C111.88 27.36 111.196 27.072 110.62 26.496C110.044 25.92 109.756 25.236 109.756 24.444C109.756 23.628 110.044 22.932 110.62 22.356C111.196 21.78 111.88 21.492 112.672 21.492ZM124.205 27L129.389 14.4H132.413L137.525 27H134.699L133.421 23.688H128.219L126.923 27H124.205ZM129.029 21.6H132.629L130.847 16.956L129.029 21.6ZM138.595 27V14.4H143.437C144.373 14.4 145.249 14.562 146.065 14.886C146.881 15.21 147.583 15.654 148.171 16.218C148.771 16.782 149.239 17.454 149.575 18.234C149.923 19.014 150.097 19.848 150.097 20.736C150.097 21.612 149.923 22.434 149.575 23.202C149.239 23.97 148.771 24.636 148.171 25.2C147.583 25.752 146.881 26.19 146.065 26.514C145.249 26.838 144.373 27 143.437 27H138.595ZM143.419 16.722H141.205V24.678H143.419C143.971 24.678 144.487 24.576 144.967 24.372C145.459 24.168 145.885 23.892 146.245 23.544C146.605 23.184 146.887 22.764 147.091 22.284C147.295 21.804 147.397 21.288 147.397 20.736C147.397 20.172 147.295 19.644 147.091 19.152C146.887 18.66 146.605 18.234 146.245 17.874C145.885 17.514 145.459 17.232 144.967 17.028C144.487 16.824 143.971 16.722 143.419 16.722ZM158.652 26.1L154.296 17.73V27H151.884V14.4H155.232L158.688 21.168L162.144 14.4H165.492V27H163.026V17.748L158.652 26.1ZM167.757 27V14.4H170.367V27H167.757ZM172.661 14.4H175.145L181.409 22.554V14.4H183.857V27H181.553L175.127 18.576V27H172.661V14.4Z" fill="#FEBA46"/>
</svg>
