<svg width="24" height="24" viewBox="0 0 24 24" fill="none" xmlns="http://www.w3.org/2000/svg">
<path d="M12 23C5.93466 23 1 18.0653 1 12C1 5.93466 5.93466 1 12 1C18.0653 1 23 5.93466 23 12C23 18.0653 18.0653 23 12 23ZM12 2.69231C6.87019 2.69231 2.69231 6.87019 2.69231 12C2.69231 17.1298 6.87019 21.3077 12 21.3077C17.1298 21.3077 21.3077 17.1325 21.3077 12C21.3077 6.86755 17.1325 2.69231 12 2.69231Z" fill="#333435"/>
<path d="M15.5004 14C14.6246 14 13.7786 13.5827 13.1177 12.8254C12.4641 12.064 12.0733 11.0848 12.0105 10.0514C11.9365 8.93243 12.2561 7.9027 12.9104 7.15297C13.5647 6.40324 14.4792 6 15.5004 6C16.514 6 17.4315 6.41189 18.0838 7.16C18.7361 7.90811 19.0637 8.94378 18.9897 10.0524C18.9257 11.0853 18.5351 12.0637 17.8825 12.8254C17.2211 13.5827 16.3756 14 15.5004 14Z" fill="#333435"/>
<path d="M7.00049 14C5.47415 14 4.13194 12.4521 4.00884 10.5492C3.94576 9.57471 4.22169 8.6739 4.78689 8.01278C5.35208 7.35166 6.13166 7 6.99997 7C7.86828 7 8.64735 7.36235 9.20896 8.02066C9.77057 8.67896 10.0552 9.58597 9.9911 10.5526C9.86596 12.4527 8.52426 14 7.00049 14Z" fill="#333435"/>
<path d="M19.9995 16.9722C19.9179 16.7173 19.7194 16.4457 19.3212 16.1881C18.1177 15.411 16.637 15 15.0384 15C13.47 15 11.9483 15.4284 10.7529 16.2065C9.40621 17.0834 8.5012 18.362 8.13643 19.9036C8.05024 20.2664 7.92454 20.9415 8.05896 21.3195C10.216 22.1865 12.5925 22.2263 14.7745 21.4319C16.9564 20.6375 18.8056 19.0593 20 16.9722H19.9995Z" fill="#333435"/>
<path d="M7.41701 19.9059C7.79449 18.375 8.59802 17.0986 9.84469 16.0664C9.90363 16.017 9.94844 15.9524 9.97446 15.8794C10.0005 15.8063 10.0068 15.7276 9.99264 15.6512C9.97852 15.5749 9.94451 15.5038 9.89416 15.4454C9.84382 15.387 9.77898 15.3434 9.70641 15.3191C9.06572 15.1113 8.33427 15 7.42716 15C6.15539 15 4.80514 15.35 3.78911 15.9861C3.5008 16.1668 3.21783 16.2363 3 16.2981C3.87458 18.2629 5.32495 19.905 7.15273 21L7.2483 20.9924C7.2692 20.6255 7.32571 20.2616 7.41701 19.9059Z" fill="#333435"/>
</svg>
