<svg width="480" height="300" viewBox="0 0 480 300" fill="none" xmlns="http://www.w3.org/2000/svg">
<g clip-path="url(#clip0)">
<g filter="url(#filter0_i)">
<path d="M462.505 0L17.4953 0C7.83292 0 0 8.18479 0 18.2812L0 281.719C0 291.815 7.83292 300 17.4953 300H462.505C472.167 300 480 291.815 480 281.719V18.2813C480 8.18479 472.167 0 462.505 0Z" fill="url(#paint0_linear)"/>
</g>
<mask id="mask0" mask-type="alpha" maskUnits="userSpaceOnUse" x="0" y="0" width="480" height="300">
<path d="M462.505 0L17.4953 0C7.83292 0 0 8.18479 0 18.2812L0 281.719C0 291.815 7.83292 300 17.4953 300H462.505C472.167 300 480 291.815 480 281.719V18.2813C480 8.18479 472.167 0 462.505 0Z" fill="white"/>
</mask>
<g mask="url(#mask0)">
<path fill-rule="evenodd" clip-rule="evenodd" d="M440.465 246.098L441.009 248.934C441.009 248.934 442.579 256.786 442.907 258.43H436.123C436.801 256.542 439.378 249.233 439.378 249.233C439.329 249.322 440.049 247.33 440.465 246.098ZM439.888 237.228C437.93 237.228 436.463 237.808 435.599 239.958L423.468 270.108H432.051C432.051 270.108 433.455 266.048 433.772 265.161C434.708 265.161 443.044 265.18 444.235 265.18C444.487 266.327 445.229 270.106 445.229 270.106H452.819L446.201 237.228H439.888ZM380.567 237.225L372.567 259.65L371.714 255.094C369.723 249.506 365.41 243.645 360.387 241.269L367.705 270.066L376.356 270.061L389.22 237.225H380.567ZM392.537 237.194L387.423 270.097H395.593L400.709 237.192H392.537V237.194ZM417.915 236.62C409.832 236.62 404.152 241.088 404.102 247.477C404.051 252.209 408.163 254.848 411.257 256.422C414.448 258.03 415.514 259.063 415.503 260.502C415.471 262.708 412.949 263.711 410.606 263.711C407.339 263.711 405.597 263.216 402.92 261.992L401.859 261.467L400.716 268.831C402.627 269.747 406.156 270.542 409.826 270.583C418.406 270.583 423.988 266.166 424.054 259.347C424.087 255.592 421.905 252.752 417.184 250.405C414.336 248.88 412.574 247.869 412.6 246.323C412.603 244.958 414.078 243.495 417.283 243.495C419.96 243.448 421.884 244.086 423.399 244.759L424.128 245.138L425.24 238.005C423.625 237.341 421.077 236.62 417.915 236.62Z" fill="white"/>
<path fill-rule="evenodd" clip-rule="evenodd" d="M365.996 235.753L352.357 235.006L352.251 235.552C362.721 238.781 369.39 245.67 371.918 253.522L369.691 238.658C369.283 236.608 367.829 235.925 365.996 235.753Z" fill="white"/>
<path d="M62.3136 228.233V225.144H59.2335C58.9852 225.144 58.7989 225.075 58.6747 224.936C58.5587 224.798 58.5008 224.586 58.5008 224.3C58.5008 223.972 58.5547 223.747 58.6622 223.625C58.7698 223.505 58.9769 223.444 59.2832 223.444H64.6486C64.8638 223.444 65.0211 223.517 65.1205 223.664C65.2282 223.803 65.282 224.014 65.282 224.3C65.282 224.62 65.2116 224.841 65.0709 224.962C64.9384 225.083 64.6982 225.144 64.3504 225.144H64.1891V228.739V229.05C64.1891 229.283 64.1642 229.448 64.1144 229.544C64.0648 229.63 63.9655 229.716 63.8164 229.803C63.3445 230.097 62.6572 230.348 61.7548 230.555C60.8522 230.762 59.9374 230.867 59.01 230.867C56.7911 230.867 54.9985 230.127 53.6324 228.648C52.2661 227.169 51.583 225.239 51.583 222.859C51.583 220.48 52.2496 218.517 53.5826 216.967C54.9239 215.419 56.6296 214.645 58.6996 214.645C59.2626 214.645 59.8255 214.714 60.3885 214.853C60.9599 214.983 61.5519 215.181 62.1645 215.45C62.2474 215.225 62.3592 215.064 62.4999 214.969C62.649 214.866 62.8394 214.814 63.0713 214.814C63.4604 214.814 63.7171 214.934 63.8413 215.177C63.9737 215.419 64.04 215.977 64.04 216.852V218.616C64.04 219.041 63.9695 219.339 63.8288 219.511C63.6881 219.677 63.4438 219.758 63.0961 219.758C62.6655 219.758 62.355 219.481 62.1645 218.928C62.0983 218.762 62.0446 218.637 62.0032 218.552C61.6968 217.867 61.2579 217.341 60.6867 216.967C60.1153 216.595 59.4613 216.409 58.7244 216.409C57.2422 216.409 56.0582 216.972 55.1724 218.097C54.2864 219.212 53.8435 220.723 53.8435 222.627C53.8435 224.591 54.3319 226.152 55.3089 227.311C56.286 228.47 57.5858 229.05 59.2087 229.05C59.6806 229.05 60.165 228.984 60.6619 228.855C61.1669 228.725 61.7174 228.517 62.3136 228.233ZM81.2072 222.756C81.2072 225.127 80.578 227.073 79.3195 228.595C78.0609 230.109 76.4506 230.867 74.4883 230.867C72.5426 230.867 70.9363 230.106 69.6694 228.583C68.4108 227.059 67.7816 225.117 67.7816 222.756C67.7816 220.369 68.4068 218.422 69.657 216.916C70.9073 215.402 72.5176 214.645 74.4883 214.645C76.4506 214.645 78.0609 215.406 79.3195 216.93C80.578 218.452 81.2072 220.394 81.2072 222.756ZM74.4883 229.023C75.8792 229.023 76.9722 228.47 77.7671 227.362C78.5702 226.247 78.9717 224.711 78.9717 222.756C78.9717 220.8 78.5702 219.269 77.7671 218.162C76.9722 217.045 75.8792 216.487 74.4883 216.487C73.0889 216.487 71.9918 217.041 71.1971 218.148C70.4105 219.247 70.0171 220.783 70.0171 222.756C70.0171 224.711 70.4146 226.247 71.2095 227.362C72.0126 228.47 73.1055 229.023 74.4883 229.023ZM95.2946 225.234C95.2946 224.586 95.3566 224.166 95.4809 223.975C95.605 223.786 95.841 223.691 96.1888 223.691C96.4868 223.691 96.7103 223.772 96.8594 223.937C97.0085 224.092 97.083 224.339 97.083 224.677V225.234V229.505C97.083 229.806 97.0043 230.045 96.847 230.219C96.6897 230.383 96.4703 230.464 96.1888 230.464H85.1725H84.5888C84.2907 230.464 84.0672 230.386 83.9181 230.231C83.769 230.075 83.6946 229.842 83.6946 229.53C83.6946 229.184 83.7814 228.95 83.9553 228.83C84.1375 228.7 84.5432 228.634 85.1725 228.634H86.725V216.942H85.1725C84.5597 216.942 84.1583 216.877 83.9678 216.747C83.7856 216.609 83.6946 216.362 83.6946 216.008C83.6946 215.687 83.769 215.453 83.9181 215.306C84.0754 215.152 84.3156 215.073 84.6384 215.073H85.1725H90.7737H91.3575C91.6555 215.073 91.8833 215.152 92.0406 215.306C92.1979 215.462 92.2765 215.695 92.2765 216.008C92.2765 216.362 92.1813 216.609 91.9909 216.747C91.8088 216.877 91.403 216.942 90.7737 216.942H88.6873V228.634H95.2946V225.234ZM103.768 228.634C104.033 228.661 104.294 228.683 104.55 228.7C104.815 228.708 105.072 228.712 105.321 228.712C107.357 228.712 108.848 228.237 109.792 227.284C110.744 226.333 111.22 224.833 111.22 222.781C111.22 220.723 110.744 219.227 109.792 218.292C108.839 217.348 107.316 216.877 105.221 216.877C104.832 216.877 104.534 216.881 104.327 216.891C104.128 216.898 103.942 216.916 103.768 216.942V228.634ZM103.768 230.464H101.806H101.247C100.94 230.464 100.709 230.386 100.551 230.231C100.402 230.075 100.328 229.842 100.328 229.53C100.328 229.192 100.415 228.959 100.589 228.83C100.771 228.7 101.11 228.634 101.607 228.634H101.831V216.942H101.632C101.135 216.942 100.792 216.873 100.601 216.734C100.419 216.595 100.328 216.353 100.328 216.008C100.328 215.687 100.402 215.453 100.551 215.306C100.709 215.152 100.949 215.073 101.272 215.073H101.806H103.768H106.513C108.575 215.073 110.218 215.77 111.443 217.162C112.669 218.547 113.282 220.42 113.282 222.781C113.282 223.933 113.104 225.002 112.748 225.987C112.4 226.973 111.891 227.839 111.22 228.583C110.599 229.258 109.841 229.752 108.947 230.062C108.061 230.366 106.918 230.517 105.519 230.517C105.354 230.517 105.072 230.508 104.675 230.491C104.286 230.473 103.983 230.464 103.768 230.464Z" fill="white"/>
<path d="M53.625 166.377C53.625 165.169 54.0368 164.125 54.8604 163.245C55.6839 162.367 56.6653 161.927 57.8043 161.927C58.9609 161.927 59.951 162.367 60.7745 163.245C61.5981 164.125 62.0099 165.169 62.0099 166.377C62.0099 167.584 61.5981 168.62 60.7745 169.48C59.951 170.341 58.9609 170.77 57.8043 170.77C56.6653 170.77 55.6839 170.341 54.8604 169.48C54.0368 168.62 53.625 167.584 53.625 166.377ZM70.6874 166.377C70.6874 165.169 71.0992 164.125 71.9229 163.245C72.7465 162.367 73.7277 161.927 74.8669 161.927C76.0234 161.927 77.0134 162.367 77.837 163.245C78.6607 164.125 79.0725 165.169 79.0725 166.377C79.0725 167.584 78.6607 168.62 77.837 169.48C77.0134 170.341 76.0234 170.77 74.8669 170.77C73.7277 170.77 72.7465 170.341 71.9229 169.48C71.0992 168.62 70.6874 167.584 70.6874 166.377ZM87.75 166.377C87.75 165.169 88.1618 164.125 88.9855 163.245C89.8089 162.367 90.7903 161.927 91.9293 161.927C93.0858 161.927 94.076 162.367 94.8995 163.245C95.7231 164.125 96.1349 165.169 96.1349 166.377C96.1349 167.584 95.7231 168.62 94.8995 169.48C94.076 170.341 93.0858 170.77 91.9293 170.77C90.7903 170.77 89.8089 170.341 88.9855 169.48C88.1618 168.62 87.75 167.584 87.75 166.377ZM104.812 166.377C104.812 165.169 105.224 164.125 106.048 163.245C106.872 162.367 107.853 161.927 108.992 161.927C110.148 161.927 111.138 162.367 111.962 163.245C112.786 164.125 113.197 165.169 113.197 166.377C113.197 167.584 112.786 168.62 111.962 169.48C111.138 170.341 110.148 170.77 108.992 170.77C107.853 170.77 106.872 170.341 106.048 169.48C105.224 168.62 104.812 167.584 104.812 166.377ZM156 166.377C156 165.169 156.411 164.125 157.235 163.245C158.059 162.367 159.04 161.927 160.179 161.927C161.335 161.927 162.325 162.367 163.149 163.245C163.973 164.125 164.384 165.169 164.384 166.377C164.384 167.584 163.973 168.62 163.149 169.48C162.325 170.341 161.335 170.77 160.179 170.77C159.04 170.77 158.059 170.341 157.235 169.48C156.411 168.62 156 167.584 156 166.377ZM173.063 166.377C173.063 165.169 173.474 164.125 174.298 163.245C175.121 162.367 176.103 161.927 177.241 161.927C178.399 161.927 179.388 162.367 180.212 163.245C181.036 164.125 181.448 165.169 181.448 166.377C181.448 167.584 181.036 168.62 180.212 169.48C179.388 170.341 178.399 170.77 177.241 170.77C176.103 170.77 175.121 170.341 174.298 169.48C173.474 168.62 173.063 167.584 173.063 166.377ZM190.125 166.377C190.125 165.169 190.536 164.125 191.36 163.245C192.184 162.367 193.165 161.927 194.304 161.927C195.46 161.927 196.452 162.367 197.274 163.245C198.098 164.125 198.509 165.169 198.509 166.377C198.509 167.584 198.098 168.62 197.274 169.48C196.452 170.341 195.46 170.77 194.304 170.77C193.165 170.77 192.184 170.341 191.36 169.48C190.536 168.62 190.125 167.584 190.125 166.377ZM207.188 166.377C207.188 165.169 207.599 164.125 208.423 163.245C209.247 162.367 210.228 161.927 211.368 161.927C212.523 161.927 213.513 162.367 214.337 163.245C215.161 164.125 215.572 165.169 215.572 166.377C215.572 167.584 215.161 168.62 214.337 169.48C213.513 170.341 212.523 170.77 211.368 170.77C210.228 170.77 209.247 170.341 208.423 169.48C207.599 168.62 207.188 167.584 207.188 166.377ZM258.375 166.377C258.375 165.169 258.787 164.125 259.61 163.245C260.434 162.367 261.415 161.927 262.554 161.927C263.711 161.927 264.701 162.367 265.525 163.245C266.348 164.125 266.76 165.169 266.76 166.377C266.76 167.584 266.348 168.62 265.525 169.48C264.701 170.341 263.711 170.77 262.554 170.77C261.415 170.77 260.434 170.341 259.61 169.48C258.787 168.62 258.375 167.584 258.375 166.377ZM275.438 166.377C275.438 165.169 275.849 164.125 276.673 163.245C277.497 162.367 278.478 161.927 279.617 161.927C280.773 161.927 281.763 162.367 282.587 163.245C283.411 164.125 283.822 165.169 283.822 166.377C283.822 167.584 283.411 168.62 282.587 169.48C281.763 170.341 280.773 170.77 279.617 170.77C278.478 170.77 277.497 170.341 276.673 169.48C275.849 168.62 275.438 167.584 275.438 166.377ZM292.499 166.377C292.499 165.169 292.912 164.125 293.736 163.245C294.559 162.367 295.541 161.927 296.679 161.927C297.836 161.927 298.826 162.367 299.65 163.245C300.473 164.125 300.885 165.169 300.885 166.377C300.885 167.584 300.473 168.62 299.65 169.48C298.826 170.341 297.836 170.77 296.679 170.77C295.541 170.77 294.559 170.341 293.736 169.48C292.912 168.62 292.499 167.584 292.499 166.377ZM309.563 166.377C309.563 165.169 309.974 164.125 310.798 163.245C311.622 162.367 312.603 161.927 313.742 161.927C314.898 161.927 315.888 162.367 316.712 163.245C317.536 164.125 317.947 165.169 317.947 166.377C317.947 167.584 317.536 168.62 316.712 169.48C315.888 170.341 314.898 170.77 313.742 170.77C312.603 170.77 311.622 170.341 310.798 169.48C309.974 168.62 309.563 167.584 309.563 166.377ZM361.802 160.814C361.687 160.833 361.6 160.847 361.539 160.856C361.486 160.866 361.439 160.87 361.394 160.87C361.123 160.87 360.899 160.792 360.724 160.636C360.558 160.472 360.474 160.256 360.474 159.991C360.474 159.77 360.549 159.578 360.697 159.414C360.846 159.249 361.062 159.125 361.341 159.044L365.244 157.944C365.341 157.917 365.433 157.899 365.521 157.889C365.617 157.872 365.714 157.863 365.809 157.863C365.977 157.863 366.108 157.944 366.204 158.109C366.3 158.266 366.349 158.48 366.349 158.755V173.614H368.452C369.231 173.614 369.726 173.683 369.937 173.82C370.147 173.949 370.252 174.195 370.252 174.561C370.252 174.891 370.164 175.138 369.989 175.303C369.814 175.467 369.551 175.55 369.201 175.55H361.341C360.991 175.55 360.728 175.467 360.553 175.303C360.378 175.138 360.29 174.891 360.29 174.561C360.29 174.195 360.395 173.949 360.606 173.82C360.815 173.683 361.311 173.614 362.091 173.614H364.272V160.197L361.802 160.814ZM377.431 175.55C376.968 175.55 376.621 175.455 376.393 175.261C376.174 175.061 376.064 174.753 376.064 174.342C376.064 173.747 376.906 172.63 378.588 170.991L378.97 170.606C379.223 170.35 379.592 169.984 380.073 169.508C383.104 166.524 384.621 164.349 384.621 162.984C384.621 162.005 384.353 161.213 383.819 160.609C383.284 159.995 382.591 159.689 381.742 159.689C381.19 159.689 380.66 159.808 380.153 160.045C379.653 160.284 379.249 160.605 378.943 161.006C378.891 161.08 378.807 161.203 378.693 161.378C378.369 161.991 378.005 162.299 377.602 162.299C377.288 162.299 377.063 162.197 376.932 161.995C376.8 161.794 376.734 161.409 376.734 160.842C376.734 160.513 376.766 160.275 376.827 160.128C376.888 159.972 377.002 159.808 377.168 159.634C377.729 159.066 378.421 158.617 379.245 158.288C380.078 157.949 380.927 157.78 381.794 157.78C383.249 157.78 384.462 158.269 385.436 159.249C386.417 160.228 386.907 161.433 386.907 162.861C386.907 164.655 385.418 167.041 382.439 170.016C381.676 170.758 381.093 171.339 380.691 171.759L379.074 173.38H385.08C385.116 172.986 385.216 172.689 385.383 172.488C385.558 172.277 385.79 172.172 386.079 172.172C386.369 172.172 386.596 172.272 386.762 172.474C386.929 172.675 387.012 172.95 387.012 173.299C387.012 173.325 387.007 173.375 387 173.449C386.991 173.513 386.986 173.559 386.986 173.586L386.882 174.644C386.855 174.928 386.775 175.152 386.644 175.317C386.512 175.472 386.342 175.55 386.132 175.55H377.431ZM401.117 166.102C402.143 166.395 402.935 166.93 403.496 167.708C404.066 168.478 404.351 169.42 404.351 170.538C404.351 172.139 403.807 173.453 402.722 174.48C401.634 175.495 400.229 176.003 398.502 176.003C397.171 176.003 395.984 175.738 394.941 175.206C393.907 174.667 393.389 174.077 393.389 173.436C393.389 173.161 393.482 172.936 393.666 172.763C393.859 172.58 394.091 172.488 394.363 172.488C394.511 172.488 395.051 172.722 395.979 173.188C396.917 173.655 397.788 173.889 398.594 173.889C399.637 173.889 400.483 173.577 401.131 172.955C401.788 172.331 402.116 171.527 402.116 170.538C402.116 169.724 401.889 169.036 401.433 168.478C400.987 167.909 400.368 167.549 399.58 167.392C399.344 167.347 399.033 167.311 398.647 167.283C397.911 167.238 397.543 166.917 397.543 166.322C397.543 165.781 397.902 165.466 398.621 165.374C398.901 165.347 399.133 165.314 399.317 165.278C400 165.169 400.553 164.875 400.974 164.399C401.394 163.924 401.605 163.347 401.605 162.669C401.605 161.799 401.346 161.089 400.828 160.541C400.311 159.991 399.655 159.716 398.858 159.716C398.122 159.716 397.364 159.955 396.583 160.43C395.813 160.906 395.33 161.144 395.137 161.144C394.892 161.144 394.687 161.063 394.52 160.897C394.363 160.733 394.283 160.527 394.283 160.28C394.283 159.72 394.774 159.167 395.755 158.617C396.737 158.059 397.823 157.78 399.015 157.78C400.381 157.78 401.516 158.214 402.42 159.084C403.33 159.945 403.786 161.006 403.786 162.27C403.786 163.231 403.566 164.024 403.128 164.647C402.699 165.269 402.029 165.755 401.117 166.102ZM417.234 169.219V159.908L412.253 169.219H417.234ZM415.815 175.55C415.394 175.55 415.109 175.481 414.961 175.344C414.811 175.197 414.737 174.936 414.737 174.561C414.737 174.231 414.811 173.994 414.961 173.847C415.118 173.692 415.368 173.614 415.71 173.614H417.234V171.306H411.097C410.877 171.306 410.707 171.233 410.584 171.088C410.461 170.941 410.4 170.73 410.4 170.455V169.508C410.4 169.141 410.527 168.756 410.781 168.355C410.825 168.281 410.859 168.222 410.886 168.175L416.432 158.342C416.555 158.114 416.655 157.967 416.734 157.903C416.814 157.839 416.918 157.808 417.05 157.808C417.102 157.808 417.195 157.816 417.326 157.834C417.361 157.844 417.397 157.853 417.431 157.863L418.771 158.081C418.895 158.1 418.991 158.174 419.061 158.302C419.14 158.42 419.179 158.581 419.179 158.783V169.219H419.849C420.042 169.219 420.191 169.141 420.296 168.986C420.401 168.82 420.519 168.739 420.651 168.739C420.827 168.739 420.975 168.808 421.098 168.945C421.22 169.081 421.282 169.252 421.282 169.453C421.282 169.534 421.277 169.613 421.268 169.686C421.261 169.75 421.243 169.819 421.216 169.892L421.111 170.455C421.05 170.784 420.957 171.009 420.834 171.128C420.721 171.247 420.537 171.306 420.283 171.306H419.179V173.614H419.64C420.2 173.614 420.585 173.688 420.796 173.833C421.006 173.97 421.111 174.214 421.111 174.561C421.111 174.891 421.023 175.138 420.848 175.303C420.673 175.467 420.41 175.55 420.06 175.55H415.815Z" fill="white"/>
<path d="M59.8429 102.913L60.2736 101.844L49.3457 72.2563H57.4743L64.4186 92.2251L72.3857 72.2563H80.3528L67.4332 103.869C65.9977 107.394 64.3289 109.906 62.4268 111.406C60.5248 112.906 58.0485 113.656 54.998 113.656C54.3521 113.656 53.724 113.619 53.1139 113.544C52.5397 113.506 52.0732 113.431 51.7143 113.319V106.681C52.0732 106.756 52.45 106.813 52.8448 106.85C53.2395 106.888 53.724 106.906 54.2982 106.906C55.6261 106.906 56.7386 106.569 57.6358 105.894C58.5689 105.219 59.3046 104.225 59.8429 102.913Z" fill="white"/>
<path d="M107.357 97.9063C105.635 99.3688 103.858 100.438 102.028 101.113C100.233 101.788 98.2237 102.125 95.9987 102.125C93.8813 102.125 91.8895 101.731 90.0234 100.944C88.1931 100.156 86.5961 99.0875 85.2323 97.7375C83.9045 96.3875 82.8458 94.7938 82.0563 92.9563C81.3026 91.0813 80.9258 89.075 80.9258 86.9375C80.9258 84.8375 81.2847 82.8688 82.0024 81.0313C82.7561 79.1563 83.7789 77.5438 85.0708 76.1938C86.3628 74.8063 87.888 73.7188 89.6465 72.9313C91.4409 72.1438 93.343 71.75 95.3527 71.75C97.3265 71.75 99.1568 72.1625 100.844 72.9875C102.566 73.775 104.038 74.8625 105.258 76.25C106.514 77.6375 107.483 79.3063 108.165 81.2563C108.882 83.1688 109.241 85.25 109.241 87.5V89.525H88.3546C88.857 91.3625 89.826 92.8438 91.2615 93.9688C92.697 95.0938 94.3837 95.6563 96.3217 95.6563C97.5419 95.6563 98.6903 95.45 99.7669 95.0375C100.844 94.625 101.759 94.0438 102.512 93.2938L107.357 97.9063ZM95.1912 78.1063C93.5045 78.1063 92.051 78.65 90.8308 79.7375C89.6106 80.7875 88.7673 82.2125 88.3007 84.0125H102.028C101.561 82.2875 100.7 80.8813 99.4439 79.7938C98.2237 78.6688 96.8062 78.1063 95.1912 78.1063Z" fill="white"/>
<path d="M121.135 60.5V101.562H113.76V62.1875L121.135 60.5Z" fill="white"/>
<path d="M134.277 60.5V101.562H126.902V62.1875L134.277 60.5Z" fill="white"/>
<path d="M138.753 86.9376C138.753 84.8001 139.13 82.8126 139.883 80.9751C140.673 79.1001 141.731 77.4876 143.059 76.1376C144.423 74.7501 146.02 73.6626 147.85 72.8751C149.681 72.0876 151.637 71.6938 153.718 71.6938C155.8 71.6938 157.755 72.0876 159.586 72.8751C161.416 73.6626 162.995 74.7501 164.323 76.1376C165.687 77.4876 166.745 79.1001 167.499 80.9751C168.289 82.8126 168.683 84.8001 168.683 86.9376C168.683 89.0751 168.289 91.0814 167.499 92.9564C166.745 94.7939 165.687 96.3876 164.323 97.7376C162.995 99.0876 161.416 100.156 159.586 100.944C157.755 101.731 155.8 102.125 153.718 102.125C151.637 102.125 149.681 101.731 147.85 100.944C146.02 100.156 144.423 99.0876 143.059 97.7376C141.731 96.3876 140.673 94.7939 139.883 92.9564C139.13 91.0814 138.753 89.0751 138.753 86.9376ZM153.718 95.4314C155.871 95.4314 157.702 94.6064 159.209 92.9564C160.716 91.3064 161.47 89.3001 161.47 86.9376C161.47 84.5376 160.716 82.5126 159.209 80.8626C157.702 79.2126 155.871 78.3876 153.718 78.3876C151.565 78.3876 149.735 79.2126 148.227 80.8626C146.72 82.5126 145.966 84.5376 145.966 86.9376C145.966 89.3001 146.72 91.3064 148.227 92.9564C149.735 94.6064 151.565 95.4314 153.718 95.4314Z" fill="white"/>
<path d="M185.126 101.563H178.02L170.322 72.2563H177.32L181.95 91.2126L187.548 72.2563H193.739L199.284 91.2126L203.913 72.2563H210.804L203.052 101.563H196L190.563 82.8314L185.126 101.563Z" fill="white"/>
<path d="M217.827 92.9563C219.047 92.9563 220.088 93.4063 220.949 94.3063C221.811 95.2063 222.241 96.2938 222.241 97.5688C222.241 98.8063 221.811 99.875 220.949 100.775C220.088 101.675 219.047 102.125 217.827 102.125C216.643 102.125 215.62 101.675 214.759 100.775C213.897 99.875 213.467 98.8063 213.467 97.5688C213.467 96.2938 213.897 95.2063 214.759 94.3063C215.62 93.4063 216.643 92.9563 217.827 92.9563Z" fill="white"/>
</g>
</g>
<defs>
<filter id="filter0_i" x="0" y="0" width="481" height="301" filterUnits="userSpaceOnUse" color-interpolation-filters="sRGB">
<feFlood flood-opacity="0" result="BackgroundImageFix"/>
<feBlend mode="normal" in="SourceGraphic" in2="BackgroundImageFix" result="shape"/>
<feColorMatrix in="SourceAlpha" type="matrix" values="0 0 0 0 0 0 0 0 0 0 0 0 0 0 0 0 0 0 127 0" result="hardAlpha"/>
<feOffset dx="1" dy="1"/>
<feGaussianBlur stdDeviation="1.5"/>
<feComposite in2="hardAlpha" operator="arithmetic" k2="-1" k3="1"/>
<feColorMatrix type="matrix" values="0 0 0 0 1 0 0 0 0 1 0 0 0 0 1 0 0 0 0.08 0"/>
<feBlend mode="normal" in2="shape" result="effect1_innerShadow"/>
</filter>
<linearGradient id="paint0_linear" x1="-6.3062e-06" y1="300" x2="258.015" y2="-132.445" gradientUnits="userSpaceOnUse">
<stop stop-color="#CE9038"/>
<stop offset="1" stop-color="#FFDDA3"/>
</linearGradient>
<clipPath id="clip0">
<path d="M0 12C0 5.37259 5.37258 0 12 0L468 0C474.627 0 480 5.37258 480 12V288C480 294.627 474.627 300 468 300H12C5.37257 300 0 294.627 0 288L0 12Z" fill="white"/>
</clipPath>
</defs>
</svg>
