<svg width="480" height="300" viewBox="0 0 480 300" fill="none" xmlns="http://www.w3.org/2000/svg">
<g filter="url(#filter0_i)">
<path d="M462.505 0L17.4953 0C7.83292 0 0 8.18479 0 18.2812L0 281.719C0 291.815 7.83292 300 17.4953 300H462.505C472.167 300 480 291.815 480 281.719V18.2813C480 8.18479 472.167 0 462.505 0Z" fill="url(#paint0_linear)"/>
</g>
<mask id="mask0" mask-type="alpha" maskUnits="userSpaceOnUse" x="0" y="0" width="480" height="300">
<path d="M462.505 0L17.4953 0C7.83292 0 0 8.18479 0 18.2812L0 281.719C0 291.815 7.83292 300 17.4953 300H462.505C472.167 300 480 291.815 480 281.719V18.2813C480 8.18479 472.167 0 462.505 0Z" fill="white"/>
</mask>
<g mask="url(#mask0)">
<path fill-rule="evenodd" clip-rule="evenodd" d="M440.465 246.098L441.009 248.934C441.009 248.934 442.579 256.786 442.907 258.43H436.123C436.801 256.542 439.378 249.233 439.378 249.233C439.329 249.322 440.049 247.33 440.465 246.098ZM439.888 237.228C437.93 237.228 436.463 237.808 435.599 239.958L423.468 270.108H432.051C432.051 270.108 433.455 266.048 433.772 265.161C434.708 265.161 443.044 265.18 444.235 265.18C444.487 266.327 445.229 270.106 445.229 270.106H452.819L446.201 237.228H439.888ZM380.567 237.225L372.567 259.65L371.714 255.094C369.723 249.506 365.41 243.645 360.387 241.269L367.705 270.066L376.356 270.061L389.22 237.225H380.567ZM392.537 237.194L387.423 270.097H395.593L400.709 237.192H392.537V237.194ZM417.915 236.62C409.832 236.62 404.152 241.088 404.102 247.477C404.051 252.209 408.163 254.848 411.257 256.422C414.448 258.03 415.514 259.063 415.503 260.502C415.471 262.708 412.949 263.711 410.606 263.711C407.339 263.711 405.597 263.216 402.92 261.992L401.859 261.467L400.716 268.831C402.627 269.747 406.156 270.542 409.826 270.583C418.406 270.583 423.988 266.166 424.054 259.347C424.087 255.592 421.905 252.752 417.184 250.405C414.336 248.88 412.574 247.869 412.6 246.323C412.603 244.958 414.078 243.495 417.283 243.495C419.96 243.448 421.884 244.086 423.399 244.759L424.128 245.138L425.24 238.005C423.625 237.341 421.077 236.62 417.915 236.62Z" fill="white"/>
<path fill-rule="evenodd" clip-rule="evenodd" d="M365.996 235.753L352.357 235.006L352.251 235.552C362.721 238.781 369.391 245.67 371.918 253.522L369.691 238.658C369.283 236.608 367.83 235.925 365.996 235.753Z" fill="white"/>
<path d="M56.2777 216.942V222.964H58.6C59.8999 222.964 60.8729 222.713 61.5188 222.211C62.1645 221.709 62.4874 220.952 62.4874 219.939C62.4874 218.945 62.1604 218.197 61.5062 217.695C60.8605 217.192 59.8917 216.942 58.6 216.942H56.2777ZM58.8732 228.634C59.2791 228.634 59.5729 228.708 59.755 228.855C59.9373 228.994 60.0284 229.219 60.0284 229.53C60.0284 229.877 59.9414 230.119 59.7676 230.256C59.5937 230.395 59.2625 230.464 58.774 230.464H52.7007C52.4193 230.464 52.2039 230.386 52.0548 230.231C51.9059 230.067 51.8313 229.833 51.8313 229.53C51.8313 229.228 51.9017 229.003 52.0424 228.855C52.1915 228.708 52.4193 228.634 52.7255 228.634H54.3277V216.942H53.4584C52.7297 216.942 52.2744 216.877 52.0922 216.747C51.9183 216.609 51.8313 216.363 51.8313 216.008C51.8313 215.705 51.9059 215.475 52.0548 215.32C52.2039 215.155 52.4193 215.073 52.7007 215.073H58.4511C60.4631 215.073 61.9907 215.48 63.0338 216.294C64.0771 217.106 64.5988 218.305 64.5988 219.888C64.5988 221.47 64.0813 222.666 63.0463 223.47C62.0113 224.275 60.4795 224.677 58.4511 224.677H56.2777V228.634H58.8732ZM79.1704 225.234C79.1704 224.586 79.2324 224.166 79.3567 223.975C79.4809 223.786 79.7169 223.691 80.0646 223.691C80.3627 223.691 80.5863 223.772 80.7352 223.938C80.8843 224.092 80.9588 224.339 80.9588 224.677V225.234V229.505C80.9588 229.806 80.8801 230.045 80.7228 230.219C80.5655 230.383 80.3461 230.464 80.0646 230.464H69.0483H68.4646C68.1666 230.464 67.943 230.386 67.7939 230.231C67.645 230.075 67.5704 229.842 67.5704 229.53C67.5704 229.184 67.6574 228.95 67.8311 228.83C68.0134 228.7 68.4191 228.634 69.0483 228.634H70.6008V216.942H69.0483C68.4357 216.942 68.0341 216.877 67.8437 216.747C67.6614 216.609 67.5704 216.363 67.5704 216.008C67.5704 215.688 67.645 215.453 67.7939 215.306C67.9512 215.152 68.1914 215.073 68.5144 215.073H69.0483H74.6497H75.2333C75.5315 215.073 75.7591 215.152 75.9164 215.306C76.0737 215.463 76.1523 215.695 76.1523 216.008C76.1523 216.363 76.0572 216.609 75.8667 216.747C75.6846 216.877 75.2789 216.942 74.6497 216.942H72.5631V228.634H79.1704V225.234ZM88.0538 223.82H93.1334L90.4632 216.942L88.0538 223.82ZM88.6872 216.942H86.8738C86.3689 216.942 86.0128 216.873 85.8059 216.734C85.6072 216.588 85.5077 216.345 85.5077 216.008C85.5077 215.653 85.5947 215.411 85.7685 215.281C85.9508 215.142 86.4391 215.073 87.2341 215.073H90.7737C91.2291 215.073 91.5354 215.138 91.6927 215.267C91.8584 215.389 92.0074 215.619 92.1398 215.956L96.996 228.634H97.2072C97.6543 228.634 97.9605 228.7 98.1262 228.83C98.2917 228.959 98.3746 229.192 98.3746 229.53C98.3746 229.884 98.2959 230.131 98.1386 230.27C97.9813 230.4 97.6873 230.464 97.2568 230.464H93.8785C93.2493 230.464 92.8436 230.4 92.6615 230.27C92.4876 230.131 92.4007 229.884 92.4007 229.53C92.4007 229.202 92.4958 228.972 92.6863 228.842C92.8851 228.705 93.2535 228.634 93.7917 228.634H94.9467L93.742 225.545H87.4328L86.3647 228.634H87.5695C88.1159 228.634 88.4885 228.705 88.6872 228.842C88.886 228.972 88.9852 229.202 88.9852 229.53C88.9852 229.884 88.8942 230.131 88.712 230.27C88.5381 230.4 88.1491 230.464 87.5445 230.464H84.2782C83.7483 230.464 83.3965 230.4 83.2226 230.27C83.0486 230.131 82.9618 229.884 82.9618 229.53C82.9618 229.192 83.0486 228.959 83.2226 228.83C83.3965 228.7 83.7317 228.634 84.2285 228.634H84.4644L88.6872 216.942ZM102.091 220.316C102.075 220.966 102 221.38 101.868 221.563C101.744 221.734 101.495 221.822 101.123 221.822C100.833 221.822 100.613 221.744 100.464 221.588C100.324 221.423 100.253 221.186 100.253 220.873C100.253 220.873 100.257 220.809 100.266 220.68C100.274 220.541 100.278 220.403 100.278 220.264L100.402 215.981C100.419 215.661 100.502 215.433 100.651 215.294C100.8 215.147 101.031 215.073 101.346 215.073H112.139C112.453 215.073 112.685 215.147 112.834 215.294C112.983 215.433 113.062 215.661 113.07 215.981L113.207 220.264C113.207 220.42 113.211 220.567 113.219 220.705C113.228 220.844 113.232 220.909 113.232 220.9C113.232 221.211 113.153 221.445 112.996 221.602C112.839 221.748 112.603 221.822 112.288 221.822C111.957 221.822 111.729 221.734 111.605 221.563C111.481 221.38 111.41 220.966 111.394 220.316L111.27 216.942H107.705V228.634H109.618H110.102C110.45 228.634 110.702 228.708 110.86 228.855C111.017 228.994 111.096 229.219 111.096 229.53C111.096 229.833 111.021 230.067 110.872 230.231C110.723 230.386 110.508 230.464 110.226 230.464H103.259C102.977 230.464 102.762 230.386 102.613 230.231C102.464 230.067 102.389 229.833 102.389 229.53C102.389 229.209 102.468 228.981 102.625 228.842C102.791 228.705 103.068 228.634 103.457 228.634H103.867H105.78V216.942H102.216L102.091 220.316ZM126.636 228.634C127.274 228.634 127.679 228.7 127.853 228.83C128.035 228.95 128.126 229.184 128.126 229.53C128.126 229.884 128.035 230.131 127.853 230.27C127.679 230.4 127.274 230.464 126.636 230.464H119.097H118.513C118.215 230.464 117.988 230.386 117.83 230.231C117.673 230.075 117.594 229.842 117.594 229.53C117.594 229.184 117.685 228.95 117.868 228.83C118.05 228.7 118.46 228.634 119.097 228.634H121.904V216.942H119.097C118.476 216.942 118.071 216.877 117.88 216.747C117.69 216.609 117.594 216.363 117.594 216.008C117.594 215.688 117.673 215.453 117.83 215.306C117.988 215.152 118.224 215.073 118.538 215.073H119.097H126.636H127.22C127.518 215.073 127.741 215.152 127.89 215.306C128.048 215.463 128.126 215.695 128.126 216.008C128.126 216.363 128.031 216.609 127.841 216.747C127.658 216.877 127.257 216.942 126.636 216.942H123.829V228.634H126.636ZM135.606 228.634H136.24H137.159C137.606 228.634 137.925 228.705 138.115 228.842C138.305 228.981 138.401 229.209 138.401 229.53C138.401 229.884 138.31 230.131 138.128 230.27C137.954 230.4 137.564 230.464 136.96 230.464H133.855H133.271C132.973 230.464 132.75 230.386 132.601 230.231C132.452 230.075 132.377 229.842 132.377 229.53C132.377 229.184 132.46 228.95 132.626 228.83C132.799 228.7 133.131 228.634 133.619 228.634H133.855V216.942H133.545C132.849 216.942 132.377 216.873 132.129 216.734C131.889 216.595 131.769 216.353 131.769 216.008C131.769 215.688 131.872 215.458 132.079 215.32C132.294 215.172 132.638 215.098 133.11 215.098C133.11 215.098 133.193 215.095 133.358 215.086C133.524 215.078 133.69 215.073 133.855 215.073H135.022C135.403 215.073 135.668 215.12 135.817 215.216C135.975 215.303 136.157 215.531 136.364 215.903L142.623 227.194V216.942H142.139H141.257C140.81 216.942 140.483 216.869 140.276 216.722C140.077 216.566 139.978 216.328 139.978 216.008C139.978 215.653 140.065 215.411 140.239 215.281C140.413 215.142 140.777 215.073 141.332 215.073H144.3H144.896C145.194 215.073 145.414 215.152 145.554 215.306C145.703 215.463 145.778 215.695 145.778 216.008C145.778 216.353 145.687 216.595 145.505 216.734C145.331 216.873 145.008 216.942 144.536 216.942H144.387V230.011C144.387 230.261 144.329 230.434 144.213 230.53C144.106 230.625 143.849 230.672 143.443 230.672C143.037 230.672 142.785 230.647 142.685 230.594C142.594 230.552 142.437 230.33 142.214 229.933L135.606 218.031V228.634ZM149.744 216.942H149.545C149.048 216.942 148.704 216.873 148.514 216.734C148.331 216.595 148.24 216.353 148.24 216.008C148.24 215.688 148.319 215.453 148.476 215.306C148.634 215.152 148.87 215.073 149.184 215.073H149.744H152.289C152.96 215.073 153.386 215.142 153.569 215.281C153.751 215.411 153.842 215.653 153.842 216.008C153.842 216.353 153.735 216.595 153.519 216.734C153.304 216.873 152.894 216.942 152.289 216.942H151.755V224.053C151.755 225.014 151.797 225.714 151.879 226.156C151.97 226.589 152.115 226.986 152.314 227.35C152.604 227.878 153.005 228.289 153.519 228.583C154.041 228.877 154.615 229.023 155.245 229.023C156.429 229.023 157.29 228.652 157.829 227.908C158.375 227.164 158.648 225.961 158.648 224.3V216.942H157.99C157.344 216.942 156.909 216.877 156.686 216.747C156.471 216.609 156.363 216.363 156.363 216.008C156.363 215.653 156.45 215.411 156.624 215.281C156.797 215.142 157.157 215.073 157.705 215.073H160.449H161.045C161.343 215.073 161.567 215.152 161.715 215.306C161.874 215.463 161.951 215.695 161.951 216.008C161.951 216.353 161.86 216.595 161.679 216.734C161.497 216.873 161.165 216.942 160.685 216.942H160.511V224.586C160.511 226.688 160.06 228.267 159.157 229.322C158.262 230.369 156.914 230.892 155.109 230.892C153.477 230.892 152.173 230.369 151.197 229.322C150.228 228.267 149.744 226.848 149.744 225.066V216.942ZM171.257 224.08L173.927 215.956C174.044 215.644 174.201 215.419 174.4 215.281C174.606 215.142 174.901 215.073 175.281 215.073H177.319C177.584 215.073 177.782 215.152 177.914 215.306C178.055 215.453 178.125 215.67 178.125 215.956C178.125 216.284 178.038 216.514 177.865 216.644C177.699 216.764 177.389 216.825 176.933 216.825H176.734L177.083 228.634H177.368C177.907 228.634 178.267 228.7 178.448 228.83C178.63 228.95 178.721 229.184 178.721 229.53C178.721 229.833 178.647 230.067 178.499 230.231C178.349 230.386 178.134 230.464 177.853 230.464H174.363C173.883 230.464 173.555 230.395 173.382 230.256C173.207 230.119 173.12 229.877 173.12 229.53C173.12 229.192 173.223 228.959 173.431 228.83C173.637 228.7 174.035 228.634 174.623 228.634H175.157L174.896 217.473L172.437 224.936C172.312 225.3 172.16 225.55 171.978 225.689C171.795 225.827 171.523 225.897 171.158 225.897C170.81 225.897 170.545 225.827 170.363 225.689C170.182 225.542 170.032 225.291 169.915 224.936L167.42 217.473L167.195 228.634H168.028C168.517 228.634 168.86 228.705 169.059 228.842C169.258 228.981 169.358 229.209 169.358 229.53C169.358 229.877 169.27 230.119 169.096 230.256C168.923 230.395 168.591 230.464 168.103 230.464H164.625C164.335 230.464 164.117 230.386 163.967 230.231C163.827 230.075 163.756 229.842 163.756 229.53C163.756 229.184 163.847 228.95 164.028 228.83C164.211 228.7 164.571 228.634 165.11 228.634H165.383L165.744 216.825H165.545C165.089 216.825 164.775 216.764 164.601 216.644C164.426 216.514 164.339 216.284 164.339 215.956C164.339 215.67 164.41 215.453 164.55 215.306C164.691 215.152 164.894 215.073 165.159 215.073H167.195C167.577 215.073 167.867 215.142 168.066 215.281C168.272 215.419 168.429 215.644 168.537 215.956L171.257 224.08Z" fill="white"/>
<path d="M53.625 166.377C53.625 165.169 54.0368 164.125 54.8604 163.245C55.6839 162.367 56.6653 161.927 57.8043 161.927C58.9609 161.927 59.951 162.367 60.7745 163.245C61.5981 164.125 62.0099 165.169 62.0099 166.377C62.0099 167.584 61.5981 168.62 60.7745 169.48C59.951 170.341 58.9609 170.77 57.8043 170.77C56.6653 170.77 55.6839 170.341 54.8604 169.48C54.0368 168.62 53.625 167.584 53.625 166.377ZM70.6874 166.377C70.6874 165.169 71.0992 164.125 71.9229 163.245C72.7465 162.367 73.7277 161.927 74.8669 161.927C76.0234 161.927 77.0134 162.367 77.837 163.245C78.6607 164.125 79.0725 165.169 79.0725 166.377C79.0725 167.584 78.6607 168.62 77.837 169.48C77.0134 170.341 76.0234 170.77 74.8669 170.77C73.7277 170.77 72.7465 170.341 71.9229 169.48C71.0992 168.62 70.6874 167.584 70.6874 166.377ZM87.75 166.377C87.75 165.169 88.1618 164.125 88.9855 163.245C89.8089 162.367 90.7903 161.927 91.9293 161.927C93.0858 161.927 94.076 162.367 94.8995 163.245C95.7231 164.125 96.1349 165.169 96.1349 166.377C96.1349 167.584 95.7231 168.62 94.8995 169.48C94.076 170.341 93.0858 170.77 91.9293 170.77C90.7903 170.77 89.8089 170.341 88.9855 169.48C88.1618 168.62 87.75 167.584 87.75 166.377ZM104.812 166.377C104.812 165.169 105.224 164.125 106.048 163.245C106.872 162.367 107.853 161.927 108.992 161.927C110.148 161.927 111.138 162.367 111.962 163.245C112.786 164.125 113.197 165.169 113.197 166.377C113.197 167.584 112.786 168.62 111.962 169.48C111.138 170.341 110.148 170.77 108.992 170.77C107.853 170.77 106.872 170.341 106.048 169.48C105.224 168.62 104.812 167.584 104.812 166.377ZM156 166.377C156 165.169 156.411 164.125 157.235 163.245C158.059 162.367 159.04 161.927 160.179 161.927C161.335 161.927 162.325 162.367 163.149 163.245C163.973 164.125 164.384 165.169 164.384 166.377C164.384 167.584 163.973 168.62 163.149 169.48C162.325 170.341 161.335 170.77 160.179 170.77C159.04 170.77 158.059 170.341 157.235 169.48C156.411 168.62 156 167.584 156 166.377ZM173.063 166.377C173.063 165.169 173.474 164.125 174.298 163.245C175.121 162.367 176.103 161.927 177.241 161.927C178.399 161.927 179.388 162.367 180.212 163.245C181.036 164.125 181.448 165.169 181.448 166.377C181.448 167.584 181.036 168.62 180.212 169.48C179.388 170.341 178.399 170.77 177.241 170.77C176.103 170.77 175.121 170.341 174.298 169.48C173.474 168.62 173.063 167.584 173.063 166.377ZM190.125 166.377C190.125 165.169 190.536 164.125 191.36 163.245C192.184 162.367 193.165 161.927 194.304 161.927C195.46 161.927 196.452 162.367 197.274 163.245C198.098 164.125 198.509 165.169 198.509 166.377C198.509 167.584 198.098 168.62 197.274 169.48C196.452 170.341 195.46 170.77 194.304 170.77C193.165 170.77 192.184 170.341 191.36 169.48C190.536 168.62 190.125 167.584 190.125 166.377ZM207.188 166.377C207.188 165.169 207.599 164.125 208.423 163.245C209.247 162.367 210.228 161.927 211.368 161.927C212.523 161.927 213.513 162.367 214.337 163.245C215.161 164.125 215.572 165.169 215.572 166.377C215.572 167.584 215.161 168.62 214.337 169.48C213.513 170.341 212.523 170.77 211.368 170.77C210.228 170.77 209.247 170.341 208.423 169.48C207.599 168.62 207.188 167.584 207.188 166.377ZM258.375 166.377C258.375 165.169 258.787 164.125 259.61 163.245C260.434 162.367 261.415 161.927 262.554 161.927C263.711 161.927 264.701 162.367 265.525 163.245C266.348 164.125 266.76 165.169 266.76 166.377C266.76 167.584 266.348 168.62 265.525 169.48C264.701 170.341 263.711 170.77 262.554 170.77C261.415 170.77 260.434 170.341 259.61 169.48C258.787 168.62 258.375 167.584 258.375 166.377ZM275.438 166.377C275.438 165.169 275.849 164.125 276.673 163.245C277.497 162.367 278.478 161.927 279.617 161.927C280.773 161.927 281.763 162.367 282.587 163.245C283.411 164.125 283.822 165.169 283.822 166.377C283.822 167.584 283.411 168.62 282.587 169.48C281.763 170.341 280.773 170.77 279.617 170.77C278.478 170.77 277.497 170.341 276.673 169.48C275.849 168.62 275.438 167.584 275.438 166.377ZM292.499 166.377C292.499 165.169 292.912 164.125 293.736 163.245C294.559 162.367 295.541 161.927 296.679 161.927C297.836 161.927 298.826 162.367 299.65 163.245C300.473 164.125 300.885 165.169 300.885 166.377C300.885 167.584 300.473 168.62 299.65 169.48C298.826 170.341 297.836 170.77 296.679 170.77C295.541 170.77 294.559 170.341 293.736 169.48C292.912 168.62 292.499 167.584 292.499 166.377ZM309.563 166.377C309.563 165.169 309.974 164.125 310.798 163.245C311.622 162.367 312.603 161.927 313.742 161.927C314.898 161.927 315.888 162.367 316.712 163.245C317.536 164.125 317.947 165.169 317.947 166.377C317.947 167.584 317.536 168.62 316.712 169.48C315.888 170.341 314.898 170.77 313.742 170.77C312.603 170.77 311.622 170.341 310.798 169.48C309.974 168.62 309.563 167.584 309.563 166.377ZM361.802 160.814C361.687 160.833 361.6 160.847 361.539 160.856C361.486 160.866 361.439 160.87 361.394 160.87C361.123 160.87 360.899 160.792 360.724 160.636C360.558 160.472 360.474 160.256 360.474 159.991C360.474 159.77 360.549 159.578 360.697 159.414C360.846 159.249 361.062 159.125 361.341 159.044L365.244 157.944C365.341 157.917 365.433 157.899 365.521 157.889C365.617 157.872 365.714 157.863 365.809 157.863C365.977 157.863 366.108 157.944 366.204 158.109C366.3 158.266 366.349 158.48 366.349 158.755V173.614H368.452C369.231 173.614 369.726 173.683 369.937 173.82C370.147 173.949 370.252 174.195 370.252 174.561C370.252 174.891 370.164 175.138 369.989 175.303C369.814 175.467 369.551 175.55 369.201 175.55H361.341C360.991 175.55 360.728 175.467 360.553 175.303C360.378 175.138 360.29 174.891 360.29 174.561C360.29 174.195 360.395 173.949 360.606 173.82C360.815 173.683 361.311 173.614 362.091 173.614H364.272V160.197L361.802 160.814ZM377.431 175.55C376.968 175.55 376.621 175.455 376.393 175.261C376.174 175.061 376.064 174.753 376.064 174.342C376.064 173.747 376.906 172.63 378.588 170.991L378.97 170.606C379.223 170.35 379.592 169.984 380.073 169.508C383.104 166.524 384.621 164.349 384.621 162.984C384.621 162.005 384.353 161.213 383.819 160.609C383.284 159.995 382.591 159.689 381.742 159.689C381.19 159.689 380.66 159.808 380.153 160.045C379.653 160.284 379.249 160.605 378.943 161.006C378.891 161.08 378.807 161.203 378.693 161.378C378.369 161.991 378.005 162.299 377.602 162.299C377.288 162.299 377.063 162.197 376.932 161.995C376.8 161.794 376.734 161.409 376.734 160.842C376.734 160.513 376.766 160.275 376.827 160.128C376.888 159.972 377.002 159.808 377.168 159.634C377.729 159.066 378.421 158.617 379.245 158.288C380.078 157.949 380.927 157.78 381.794 157.78C383.249 157.78 384.462 158.269 385.436 159.249C386.417 160.228 386.907 161.433 386.907 162.861C386.907 164.655 385.418 167.041 382.439 170.016C381.676 170.758 381.093 171.339 380.691 171.759L379.074 173.38H385.08C385.116 172.986 385.216 172.689 385.383 172.488C385.558 172.277 385.79 172.172 386.079 172.172C386.369 172.172 386.596 172.272 386.762 172.474C386.929 172.675 387.012 172.95 387.012 173.299C387.012 173.325 387.007 173.375 387 173.449C386.991 173.513 386.986 173.559 386.986 173.586L386.882 174.644C386.855 174.928 386.775 175.152 386.644 175.317C386.512 175.472 386.342 175.55 386.132 175.55H377.431ZM401.117 166.102C402.143 166.395 402.935 166.93 403.496 167.708C404.066 168.478 404.351 169.42 404.351 170.538C404.351 172.139 403.807 173.453 402.722 174.48C401.634 175.495 400.229 176.003 398.502 176.003C397.171 176.003 395.984 175.738 394.941 175.206C393.907 174.667 393.389 174.077 393.389 173.436C393.389 173.161 393.482 172.936 393.666 172.763C393.859 172.58 394.091 172.488 394.363 172.488C394.511 172.488 395.051 172.722 395.979 173.188C396.917 173.655 397.788 173.889 398.594 173.889C399.637 173.889 400.483 173.577 401.131 172.955C401.788 172.331 402.116 171.527 402.116 170.538C402.116 169.724 401.889 169.036 401.433 168.478C400.987 167.909 400.368 167.549 399.58 167.392C399.344 167.347 399.033 167.311 398.647 167.283C397.911 167.238 397.543 166.917 397.543 166.322C397.543 165.781 397.902 165.466 398.621 165.374C398.901 165.347 399.133 165.314 399.317 165.278C400 165.169 400.553 164.875 400.974 164.399C401.394 163.924 401.605 163.347 401.605 162.669C401.605 161.799 401.346 161.089 400.828 160.541C400.311 159.991 399.655 159.716 398.858 159.716C398.122 159.716 397.364 159.955 396.583 160.43C395.813 160.906 395.33 161.144 395.137 161.144C394.892 161.144 394.687 161.063 394.52 160.897C394.363 160.733 394.283 160.527 394.283 160.28C394.283 159.72 394.774 159.167 395.755 158.617C396.737 158.059 397.823 157.78 399.015 157.78C400.381 157.78 401.516 158.214 402.42 159.084C403.33 159.945 403.786 161.006 403.786 162.27C403.786 163.231 403.566 164.024 403.128 164.647C402.699 165.269 402.029 165.755 401.117 166.102ZM417.234 169.219V159.908L412.253 169.219H417.234ZM415.815 175.55C415.394 175.55 415.109 175.481 414.961 175.344C414.811 175.197 414.737 174.936 414.737 174.561C414.737 174.231 414.811 173.994 414.961 173.847C415.118 173.692 415.368 173.614 415.71 173.614H417.234V171.306H411.097C410.877 171.306 410.707 171.233 410.584 171.088C410.461 170.941 410.4 170.73 410.4 170.455V169.508C410.4 169.141 410.527 168.756 410.781 168.355C410.825 168.281 410.859 168.222 410.886 168.175L416.432 158.342C416.555 158.114 416.655 157.967 416.734 157.903C416.814 157.839 416.918 157.808 417.05 157.808C417.102 157.808 417.195 157.816 417.326 157.834C417.361 157.844 417.397 157.853 417.431 157.863L418.771 158.081C418.895 158.1 418.991 158.174 419.061 158.302C419.14 158.42 419.179 158.581 419.179 158.783V169.219H419.849C420.042 169.219 420.191 169.141 420.296 168.986C420.401 168.82 420.519 168.739 420.651 168.739C420.827 168.739 420.975 168.808 421.098 168.945C421.22 169.081 421.282 169.252 421.282 169.453C421.282 169.534 421.277 169.613 421.268 169.686C421.261 169.75 421.243 169.819 421.216 169.892L421.111 170.455C421.05 170.784 420.957 171.009 420.834 171.128C420.721 171.247 420.537 171.306 420.283 171.306H419.179V173.614H419.64C420.2 173.614 420.585 173.688 420.796 173.833C421.006 173.97 421.111 174.214 421.111 174.561C421.111 174.891 421.023 175.138 420.848 175.303C420.673 175.467 420.41 175.55 420.06 175.55H415.815Z" fill="white"/>
<path d="M59.8429 102.912L60.2736 101.844L49.3457 72.2562H57.4743L64.4186 92.225L72.3857 72.2562H80.3528L67.4332 103.869C65.9977 107.394 64.3289 109.906 62.4268 111.406C60.5248 112.906 58.0485 113.656 54.998 113.656C54.3521 113.656 53.724 113.619 53.1139 113.544C52.5397 113.506 52.0732 113.431 51.7143 113.319V106.681C52.0732 106.756 52.45 106.812 52.8448 106.85C53.2395 106.887 53.724 106.906 54.2982 106.906C55.6261 106.906 56.7386 106.569 57.6358 105.894C58.5689 105.219 59.3046 104.225 59.8429 102.912ZM107.357 97.9062C105.634 99.3687 103.858 100.437 102.028 101.112C100.233 101.787 98.2236 102.125 95.9986 102.125C93.8812 102.125 91.8894 101.731 90.0232 100.944C88.193 100.156 86.5959 99.0875 85.2322 97.7375C83.9044 96.3875 82.8457 94.7937 82.0561 92.9562C81.3025 91.0812 80.9257 89.075 80.9257 86.9375C80.9257 84.8375 81.2845 82.8687 82.0023 81.0312C82.7559 79.1562 83.7788 77.5437 85.0707 76.1937C86.3627 74.8062 87.8879 73.7187 89.6464 72.9312C91.4408 72.1437 93.3429 71.75 95.3526 71.75C97.3264 71.75 99.1567 72.1625 100.843 72.9875C102.566 73.775 104.037 74.8625 105.258 76.25C106.514 77.6375 107.483 79.3062 108.165 81.2562C108.882 83.1687 109.241 85.25 109.241 87.5V89.525H88.3544C88.8569 91.3625 89.8259 92.8437 91.2614 93.9687C92.6969 95.0937 94.3836 95.6562 96.3216 95.6562C97.5417 95.6562 98.6901 95.45 99.7668 95.0375C100.843 94.625 101.759 94.0437 102.512 93.2937L107.357 97.9062ZM95.1911 78.1062C93.5044 78.1062 92.0509 78.65 90.8307 79.7375C89.6105 80.7875 88.7672 82.2125 88.3006 84.0125H102.028C101.561 82.2875 100.7 80.8812 99.4438 79.7937C98.2236 78.6687 96.806 78.1062 95.1911 78.1062ZM121.135 60.5V101.562H113.76V62.1875L121.135 60.5ZM134.277 60.5V101.562H126.902V62.1875L134.277 60.5ZM138.753 86.9375C138.753 84.8 139.129 82.8125 139.883 80.975C140.673 79.1 141.731 77.4875 143.059 76.1375C144.423 74.75 146.02 73.6625 147.85 72.875C149.681 72.0875 151.637 71.6937 153.718 71.6937C155.8 71.6937 157.755 72.0875 159.586 72.875C161.416 73.6625 162.995 74.75 164.323 76.1375C165.687 77.4875 166.745 79.1 167.499 80.975C168.288 82.8125 168.683 84.8 168.683 86.9375C168.683 89.075 168.288 91.0812 167.499 92.9562C166.745 94.7937 165.687 96.3875 164.323 97.7375C162.995 99.0875 161.416 100.156 159.586 100.944C157.755 101.731 155.8 102.125 153.718 102.125C151.637 102.125 149.681 101.731 147.85 100.944C146.02 100.156 144.423 99.0875 143.059 97.7375C141.731 96.3875 140.673 94.7937 139.883 92.9562C139.129 91.0812 138.753 89.075 138.753 86.9375ZM153.718 95.4312C155.871 95.4312 157.702 94.6062 159.209 92.9562C160.716 91.3062 161.47 89.3 161.47 86.9375C161.47 84.5375 160.716 82.5125 159.209 80.8625C157.702 79.2125 155.871 78.3875 153.718 78.3875C151.565 78.3875 149.734 79.2125 148.227 80.8625C146.72 82.5125 145.966 84.5375 145.966 86.9375C145.966 89.3 146.72 91.3062 148.227 92.9562C149.734 94.6062 151.565 95.4312 153.718 95.4312ZM185.126 101.562H178.02L170.322 72.2562H177.32L181.95 91.2125L187.548 72.2562L193.739 72.2562L199.284 91.2125L203.913 72.2562H210.804L203.052 101.562H196L190.563 82.8312L185.126 101.562Z" fill="url(#paint1_linear)"/>
<path d="M217.827 92.9563C219.047 92.9563 220.088 93.4063 220.949 94.3063C221.811 95.2063 222.241 96.2938 222.241 97.5688C222.241 98.8063 221.811 99.875 220.949 100.775C220.088 101.675 219.047 102.125 217.827 102.125C216.643 102.125 215.62 101.675 214.759 100.775C213.897 99.875 213.467 98.8063 213.467 97.5688C213.467 96.2938 213.897 95.2063 214.759 94.3063C215.62 93.4063 216.643 92.9563 217.827 92.9563Z" fill="url(#paint2_linear)"/>
</g>
<defs>
<filter id="filter0_i" x="0" y="0" width="481" height="301" filterUnits="userSpaceOnUse" color-interpolation-filters="sRGB">
<feFlood flood-opacity="0" result="BackgroundImageFix"/>
<feBlend mode="normal" in="SourceGraphic" in2="BackgroundImageFix" result="shape"/>
<feColorMatrix in="SourceAlpha" type="matrix" values="0 0 0 0 0 0 0 0 0 0 0 0 0 0 0 0 0 0 127 0" result="hardAlpha"/>
<feOffset dx="1" dy="1"/>
<feGaussianBlur stdDeviation="1.5"/>
<feComposite in2="hardAlpha" operator="arithmetic" k2="-1" k3="1"/>
<feColorMatrix type="matrix" values="0 0 0 0 1 0 0 0 0 1 0 0 0 0 1 0 0 0 0.15 0"/>
<feBlend mode="normal" in2="shape" result="effect1_innerShadow"/>
</filter>
<linearGradient id="paint0_linear" x1="480" y1="0" x2="-51.5" y2="324" gradientUnits="userSpaceOnUse">
<stop stop-color="#8CA2FF"/>
<stop offset="1" stop-color="#294CCC"/>
</linearGradient>
<linearGradient id="paint1_linear" x1="49.3457" y1="113.656" x2="79.0649" y2="19.096" gradientUnits="userSpaceOnUse">
<stop stop-color="#CE9038"/>
<stop offset="1" stop-color="#FFDDA3"/>
</linearGradient>
<linearGradient id="paint2_linear" x1="213.467" y1="102.125" x2="222.428" y2="93.142" gradientUnits="userSpaceOnUse">
<stop stop-color="#CE9038"/>
<stop offset="1" stop-color="#FFDDA3"/>
</linearGradient>
</defs>
</svg>
