<svg width="480" height="300" viewBox="0 0 480 300" fill="none" xmlns="http://www.w3.org/2000/svg">
<path d="M0 18.2812C0 8.18478 7.83293 0 17.4953 0L462.505 0C472.167 0 480 8.1848 480 18.2812V281.719C480 291.816 472.167 300 462.505 300H17.4953C7.83296 300 0 291.816 0 281.719L0 18.2812Z" fill="url(#paint0_linear)"/>
<g filter="url(#filter0_i)">
<path d="M0 18.2812C0 8.18478 7.83293 0 17.4953 0L462.505 0C472.167 0 480 8.1848 480 18.2812V281.719C480 291.816 472.167 300 462.505 300H17.4953C7.83296 300 0 291.816 0 281.719L0 18.2812Z" fill="url(#paint1_linear)"/>
</g>
<mask id="mask0" mask-type="alpha" maskUnits="userSpaceOnUse" x="0" y="0" width="480" height="300">
<path d="M0 18.2812C0 8.18478 7.83293 0 17.4953 0L462.505 0C472.167 0 480 8.1848 480 18.2812V281.719C480 291.816 472.167 300 462.505 300H17.4953C7.83296 300 0 291.816 0 281.719L0 18.2812Z" fill="white"/>
</mask>
<g mask="url(#mask0)">
<path d="M54.7378 230.009C54.6963 230.4 54.6011 230.667 54.4521 230.814C54.3031 230.97 54.0671 231.048 53.7441 231.048C53.3964 231.048 53.1357 230.941 52.9618 230.723C52.7961 230.516 52.701 230.175 52.6761 229.698L52.5146 226.687V226.455C52.5146 226.039 52.5891 225.745 52.7382 225.572C52.8955 225.398 53.1521 225.312 53.5081 225.312C54.005 225.312 54.3611 225.684 54.5763 226.428C54.6757 226.8 54.7708 227.081 54.862 227.272C55.1517 227.878 55.6071 228.345 56.2281 228.673C56.8574 229.001 57.6067 229.167 58.4761 229.167C59.5442 229.167 60.4094 228.903 61.0718 228.375C61.7425 227.847 62.0777 227.172 62.0777 226.35C62.0777 225.667 61.8708 225.117 61.4569 224.701C61.051 224.287 60.455 224.019 59.6683 223.898L57.8302 223.637C56.1163 223.387 54.8661 222.916 54.0795 222.223C53.293 221.531 52.8997 220.558 52.8997 219.303C52.8997 217.98 53.4213 216.869 54.4646 215.969C55.5161 215.069 56.8242 214.619 58.3892 214.619C58.8445 214.619 59.3248 214.683 59.8298 214.814C60.3349 214.934 60.9061 215.13 61.5437 215.397C61.5603 215.147 61.6266 214.973 61.7425 214.878C61.8583 214.783 62.0571 214.736 62.3386 214.736C62.7029 214.736 62.9555 214.792 63.0962 214.905C63.2369 215.017 63.3239 215.284 63.357 215.709L63.5309 218.422V218.551C63.5309 218.853 63.448 219.092 63.2825 219.264C63.1168 219.43 62.885 219.511 62.587 219.511C62.1481 219.511 61.8087 219.191 61.5686 218.551C61.4527 218.187 61.3368 217.916 61.2209 217.733C60.9475 217.3 60.5543 216.967 60.0409 216.734C59.5276 216.5 58.9438 216.384 58.2898 216.384C57.2879 216.384 56.4723 216.644 55.8431 217.162C55.2221 217.681 54.9117 218.361 54.9117 219.2C54.9117 219.858 55.1434 220.376 55.6071 220.758C56.0791 221.137 56.7953 221.397 57.7558 221.536L59.7429 221.795C61.1835 221.994 62.2682 222.458 62.9969 223.184C63.7254 223.901 64.0898 224.875 64.0898 226.103C64.0898 227.558 63.5723 228.725 62.5374 229.608C61.5023 230.481 60.1196 230.919 58.3892 230.919C57.793 230.919 57.201 230.845 56.613 230.698C56.0252 230.551 55.4002 230.322 54.7378 230.009Z" fill="white"/>
<path d="M71.9299 223.82H77.0097L74.3393 216.942L71.9299 223.82ZM72.5633 216.942H70.7501C70.245 216.942 69.8891 216.872 69.682 216.734C69.4833 216.588 69.384 216.345 69.384 216.008C69.384 215.653 69.4709 215.411 69.6448 215.281C69.8269 215.142 70.3154 215.073 71.1103 215.073H74.6499C75.1053 215.073 75.4116 215.138 75.5689 215.267C75.7345 215.389 75.8836 215.617 76.0161 215.955L80.8721 228.634H81.0833C81.5304 228.634 81.8368 228.7 82.0023 228.83C82.168 228.959 82.2508 229.192 82.2508 229.53C82.2508 229.884 82.1722 230.131 82.0147 230.27C81.8574 230.4 81.5636 230.464 81.1329 230.464H77.7548C77.1256 230.464 76.7199 230.4 76.5378 230.27C76.3639 230.131 76.2768 229.884 76.2768 229.53C76.2768 229.202 76.3721 228.972 76.5626 228.842C76.7613 228.703 77.1298 228.634 77.6679 228.634H78.8229L77.6181 225.545H71.3091L70.241 228.634H71.4456C71.9921 228.634 72.3646 228.703 72.5633 228.842C72.7621 228.972 72.8615 229.202 72.8615 229.53C72.8615 229.884 72.7704 230.131 72.5882 230.27C72.4144 230.4 72.0252 230.464 71.4208 230.464H68.1544C67.6246 230.464 67.2726 230.4 67.0987 230.27C66.9249 230.131 66.8379 229.884 66.8379 229.53C66.8379 229.192 66.9249 228.959 67.0987 228.83C67.2726 228.7 67.608 228.634 68.1047 228.634H68.3407L72.5633 216.942Z" fill="white"/>
<path d="M84.4647 216.942H84.3032C83.8892 216.942 83.5953 216.872 83.4214 216.734C83.2475 216.588 83.1606 216.345 83.1606 216.008C83.1606 215.705 83.2351 215.475 83.3842 215.319C83.5333 215.155 83.7485 215.073 84.03 215.073H87.7932C88.2817 215.073 88.6087 215.142 88.7742 215.281C88.9482 215.419 89.0352 215.661 89.0352 216.008C89.0352 216.328 88.9441 216.566 88.7618 216.72C88.5797 216.869 88.2899 216.942 87.8925 216.942H86.5263L90.749 228.258L94.8599 216.942H93.2082C92.819 216.942 92.5292 216.869 92.3388 216.72C92.1567 216.566 92.0655 216.328 92.0655 216.008C92.0655 215.661 92.1525 215.419 92.3264 215.281C92.5002 215.142 92.8273 215.073 93.3075 215.073H97.2073C97.4889 215.073 97.6999 215.155 97.8407 215.319C97.9897 215.475 98.0643 215.705 98.0643 216.008C98.0643 216.345 97.9772 216.588 97.8035 216.734C97.6296 216.872 97.3274 216.942 96.8967 216.942H96.7478L92.2766 229.167C92.02 229.816 91.8171 230.222 91.6682 230.386C91.5191 230.542 91.3286 230.62 91.0968 230.62H90.3889C89.8424 230.62 89.3994 230.161 89.06 229.244L89.0352 229.167L84.4647 216.942Z" fill="white"/>
<path d="M110.512 228.634C111.149 228.634 111.555 228.7 111.729 228.83C111.911 228.95 112.002 229.184 112.002 229.53C112.002 229.884 111.911 230.131 111.729 230.27C111.555 230.4 111.149 230.464 110.512 230.464H102.973H102.389C102.091 230.464 101.864 230.386 101.706 230.231C101.549 230.075 101.47 229.842 101.47 229.53C101.47 229.184 101.561 228.95 101.744 228.83C101.926 228.7 102.336 228.634 102.973 228.634H105.78V216.942H102.973C102.352 216.942 101.946 216.877 101.756 216.747C101.565 216.608 101.47 216.363 101.47 216.008C101.47 215.688 101.549 215.453 101.706 215.306C101.864 215.15 102.1 215.073 102.414 215.073H102.973H110.512H111.095C111.394 215.073 111.617 215.15 111.766 215.306C111.923 215.463 112.002 215.695 112.002 216.008C112.002 216.363 111.907 216.608 111.717 216.747C111.534 216.877 111.133 216.942 110.512 216.942H107.705V228.634H110.512Z" fill="white"/>
<path d="M119.482 228.634H120.116H121.035C121.482 228.634 121.801 228.703 121.991 228.842C122.181 228.981 122.277 229.209 122.277 229.53C122.277 229.884 122.186 230.131 122.003 230.27C121.829 230.4 121.44 230.464 120.836 230.464H117.731H117.147C116.849 230.464 116.626 230.386 116.477 230.231C116.328 230.075 116.253 229.842 116.253 229.53C116.253 229.184 116.336 228.95 116.501 228.83C116.675 228.7 117.007 228.634 117.495 228.634H117.731V216.942H117.421C116.725 216.942 116.253 216.872 116.005 216.734C115.765 216.595 115.645 216.353 115.645 216.008C115.645 215.688 115.748 215.458 115.955 215.319C116.17 215.172 116.514 215.098 116.986 215.098C116.986 215.098 117.069 215.094 117.234 215.086C117.4 215.077 117.565 215.073 117.731 215.073H118.899C119.279 215.073 119.544 215.12 119.693 215.216C119.851 215.302 120.033 215.531 120.24 215.903L126.499 227.194V216.942H126.015H125.133C124.686 216.942 124.359 216.869 124.152 216.72C123.953 216.566 123.854 216.328 123.854 216.008C123.854 215.653 123.941 215.411 124.115 215.281C124.289 215.142 124.653 215.073 125.208 215.073H128.176H128.772C129.07 215.073 129.29 215.15 129.43 215.306C129.579 215.463 129.654 215.695 129.654 216.008C129.654 216.353 129.563 216.595 129.381 216.734C129.207 216.872 128.884 216.942 128.412 216.942H128.263V230.009C128.263 230.261 128.205 230.434 128.089 230.53C127.981 230.625 127.725 230.672 127.319 230.672C126.913 230.672 126.661 230.645 126.561 230.594C126.47 230.552 126.313 230.33 126.09 229.933L119.482 218.031V228.634Z" fill="white"/>
<path d="M142.934 228.233V225.144H139.854C139.605 225.144 139.419 225.075 139.295 224.936C139.179 224.797 139.121 224.586 139.121 224.3C139.121 223.972 139.175 223.747 139.282 223.625C139.39 223.505 139.597 223.444 139.903 223.444H145.269C145.484 223.444 145.641 223.517 145.741 223.664C145.848 223.803 145.902 224.014 145.902 224.3C145.902 224.62 145.832 224.841 145.691 224.962C145.558 225.083 145.318 225.144 144.971 225.144H144.809V228.739V229.05C144.809 229.283 144.784 229.448 144.735 229.542C144.685 229.63 144.585 229.716 144.437 229.803C143.965 230.097 143.277 230.347 142.375 230.555C141.472 230.762 140.557 230.867 139.63 230.867C137.411 230.867 135.618 230.127 134.252 228.647C132.886 227.169 132.203 225.239 132.203 222.859C132.203 220.48 132.87 218.516 134.203 216.967C135.544 215.419 137.25 214.645 139.32 214.645C139.883 214.645 140.446 214.714 141.009 214.852C141.58 214.983 142.172 215.181 142.785 215.45C142.867 215.225 142.979 215.064 143.12 214.969C143.269 214.866 143.459 214.814 143.691 214.814C144.081 214.814 144.337 214.934 144.461 215.177C144.594 215.419 144.66 215.977 144.66 216.852V218.616C144.66 219.039 144.59 219.337 144.449 219.511C144.308 219.675 144.064 219.758 143.716 219.758C143.286 219.758 142.975 219.481 142.785 218.927C142.718 218.762 142.665 218.637 142.623 218.552C142.317 217.867 141.878 217.339 141.307 216.967C140.735 216.595 140.081 216.409 139.344 216.409C137.862 216.409 136.678 216.972 135.792 218.097C134.907 219.212 134.463 220.722 134.463 222.627C134.463 224.589 134.952 226.152 135.929 227.311C136.906 228.47 138.206 229.05 139.829 229.05C140.301 229.05 140.785 228.984 141.282 228.855C141.787 228.725 142.338 228.517 142.934 228.233Z" fill="white"/>
<path d="M151.482 230.009C151.441 230.4 151.345 230.667 151.197 230.814C151.047 230.97 150.811 231.048 150.488 231.048C150.141 231.048 149.879 230.941 149.706 230.723C149.54 230.516 149.445 230.175 149.42 229.698L149.259 226.687V226.455C149.259 226.039 149.333 225.745 149.482 225.572C149.64 225.398 149.896 225.312 150.252 225.312C150.75 225.312 151.106 225.684 151.321 226.428C151.42 226.8 151.515 227.081 151.607 227.272C151.895 227.878 152.351 228.345 152.972 228.673C153.601 229.001 154.351 229.167 155.221 229.167C156.288 229.167 157.154 228.903 157.815 228.375C158.487 227.847 158.822 227.172 158.822 226.35C158.822 225.667 158.615 225.117 158.201 224.701C157.796 224.287 157.199 224.019 156.413 223.898L154.575 223.637C152.861 223.387 151.61 222.916 150.823 222.223C150.037 221.531 149.643 220.558 149.643 219.303C149.643 217.98 150.165 216.869 151.209 215.969C152.26 215.069 153.568 214.619 155.133 214.619C155.589 214.619 156.069 214.683 156.574 214.814C157.079 214.934 157.651 215.13 158.288 215.397C158.304 215.147 158.37 214.973 158.487 214.878C158.603 214.783 158.801 214.736 159.083 214.736C159.447 214.736 159.699 214.792 159.84 214.905C159.98 215.017 160.069 215.284 160.102 215.709L160.275 218.422V218.551C160.275 218.853 160.193 219.092 160.027 219.264C159.861 219.43 159.629 219.511 159.331 219.511C158.892 219.511 158.552 219.191 158.313 218.551C158.197 218.187 158.081 217.916 157.965 217.733C157.691 217.3 157.298 216.967 156.785 216.734C156.272 216.5 155.687 216.384 155.034 216.384C154.032 216.384 153.217 216.644 152.588 217.162C151.967 217.681 151.656 218.361 151.656 219.2C151.656 219.858 151.888 220.376 152.351 220.758C152.824 221.137 153.54 221.397 154.5 221.536L156.487 221.795C157.927 221.994 159.013 222.458 159.741 223.184C160.469 223.901 160.834 224.875 160.834 226.103C160.834 227.558 160.317 228.725 159.282 229.608C158.246 230.481 156.864 230.919 155.133 230.919C154.537 230.919 153.945 230.845 153.358 230.698C152.77 230.551 152.145 230.322 151.482 230.009Z" fill="white"/>
<path d="M53.625 166.377C53.625 165.169 54.0368 164.125 54.8604 163.245C55.6839 162.367 56.6653 161.927 57.8043 161.927C58.9609 161.927 59.951 162.367 60.7745 163.245C61.5981 164.125 62.0099 165.169 62.0099 166.377C62.0099 167.584 61.5981 168.62 60.7745 169.48C59.951 170.341 58.9609 170.77 57.8043 170.77C56.6653 170.77 55.6839 170.341 54.8604 169.48C54.0368 168.62 53.625 167.584 53.625 166.377Z" fill="white"/>
<path d="M70.6875 166.377C70.6875 165.169 71.0993 164.125 71.9229 163.245C72.7466 162.367 73.7278 161.927 74.8669 161.927C76.0234 161.927 77.0135 162.367 77.8371 163.245C78.6607 164.125 79.0725 165.169 79.0725 166.377C79.0725 167.584 78.6607 168.62 77.8371 169.48C77.0135 170.341 76.0234 170.77 74.8669 170.77C73.7278 170.77 72.7466 170.341 71.9229 169.48C71.0993 168.62 70.6875 167.584 70.6875 166.377Z" fill="white"/>
<path d="M87.75 166.377C87.75 165.169 88.1618 164.125 88.9854 163.245C89.8089 162.367 90.7903 161.927 91.9293 161.927C93.0858 161.927 94.076 162.367 94.8995 163.245C95.7231 164.125 96.1349 165.169 96.1349 166.377C96.1349 167.584 95.7231 168.62 94.8995 169.48C94.076 170.341 93.0858 170.77 91.9293 170.77C90.7903 170.77 89.8089 170.341 88.9854 169.48C88.1618 168.62 87.75 167.584 87.75 166.377Z" fill="white"/>
<path d="M104.812 166.377C104.812 165.169 105.224 164.125 106.048 163.245C106.872 162.367 107.853 161.927 108.992 161.927C110.148 161.927 111.138 162.367 111.962 163.245C112.786 164.125 113.198 165.169 113.198 166.377C113.198 167.584 112.786 168.62 111.962 169.48C111.138 170.341 110.148 170.77 108.992 170.77C107.853 170.77 106.872 170.341 106.048 169.48C105.224 168.62 104.812 167.584 104.812 166.377Z" fill="white"/>
<path d="M156 166.377C156 165.169 156.411 164.125 157.235 163.245C158.059 162.367 159.04 161.927 160.179 161.927C161.335 161.927 162.325 162.367 163.149 163.245C163.973 164.125 164.384 165.169 164.384 166.377C164.384 167.584 163.973 168.62 163.149 169.48C162.325 170.341 161.335 170.77 160.179 170.77C159.04 170.77 158.059 170.341 157.235 169.48C156.411 168.62 156 167.584 156 166.377Z" fill="white"/>
<path d="M173.063 166.377C173.063 165.169 173.474 164.125 174.298 163.245C175.121 162.367 176.103 161.927 177.241 161.927C178.398 161.927 179.388 162.367 180.212 163.245C181.036 164.125 181.447 165.169 181.447 166.377C181.447 167.584 181.036 168.62 180.212 169.48C179.388 170.341 178.398 170.77 177.241 170.77C176.103 170.77 175.121 170.341 174.298 169.48C173.474 168.62 173.063 167.584 173.063 166.377Z" fill="white"/>
<path d="M190.125 166.377C190.125 165.169 190.536 164.125 191.36 163.245C192.184 162.367 193.165 161.927 194.304 161.927C195.46 161.927 196.452 162.367 197.274 163.245C198.098 164.125 198.509 165.169 198.509 166.377C198.509 167.584 198.098 168.62 197.274 169.48C196.452 170.341 195.46 170.77 194.304 170.77C193.165 170.77 192.184 170.341 191.36 169.48C190.536 168.62 190.125 167.584 190.125 166.377Z" fill="white"/>
<path d="M207.188 166.377C207.188 165.169 207.599 164.125 208.423 163.245C209.247 162.367 210.228 161.927 211.367 161.927C212.523 161.927 213.513 162.367 214.337 163.245C215.161 164.125 215.572 165.169 215.572 166.377C215.572 167.584 215.161 168.62 214.337 169.48C213.513 170.341 212.523 170.77 211.367 170.77C210.228 170.77 209.247 170.341 208.423 169.48C207.599 168.62 207.188 167.584 207.188 166.377Z" fill="white"/>
<path d="M258.375 166.377C258.375 165.169 258.787 164.125 259.61 163.245C260.434 162.367 261.415 161.927 262.554 161.927C263.711 161.927 264.701 162.367 265.525 163.245C266.348 164.125 266.76 165.169 266.76 166.377C266.76 167.584 266.348 168.62 265.525 169.48C264.701 170.341 263.711 170.77 262.554 170.77C261.415 170.77 260.434 170.341 259.61 169.48C258.787 168.62 258.375 167.584 258.375 166.377Z" fill="white"/>
<path d="M275.438 166.377C275.438 165.169 275.849 164.125 276.673 163.245C277.497 162.367 278.477 161.927 279.617 161.927C280.773 161.927 281.763 162.367 282.587 163.245C283.411 164.125 283.822 165.169 283.822 166.377C283.822 167.584 283.411 168.62 282.587 169.48C281.763 170.341 280.773 170.77 279.617 170.77C278.477 170.77 277.497 170.341 276.673 169.48C275.849 168.62 275.438 167.584 275.438 166.377Z" fill="white"/>
<path d="M292.5 166.377C292.5 165.169 292.912 164.125 293.736 163.245C294.559 162.367 295.541 161.927 296.679 161.927C297.836 161.927 298.826 162.367 299.65 163.245C300.473 164.125 300.885 165.169 300.885 166.377C300.885 167.584 300.473 168.62 299.65 169.48C298.826 170.341 297.836 170.77 296.679 170.77C295.541 170.77 294.559 170.341 293.736 169.48C292.912 168.62 292.5 167.584 292.5 166.377Z" fill="white"/>
<path d="M309.562 166.377C309.562 165.169 309.974 164.125 310.798 163.245C311.622 162.367 312.602 161.927 313.742 161.927C314.898 161.927 315.888 162.367 316.712 163.245C317.536 164.125 317.947 165.169 317.947 166.377C317.947 167.584 317.536 168.62 316.712 169.48C315.888 170.341 314.898 170.77 313.742 170.77C312.602 170.77 311.622 170.341 310.798 169.48C309.974 168.62 309.562 167.584 309.562 166.377Z" fill="white"/>
<path d="M361.802 160.814C361.687 160.833 361.6 160.847 361.539 160.856C361.486 160.866 361.438 160.87 361.394 160.87C361.123 160.87 360.899 160.792 360.724 160.636C360.558 160.472 360.474 160.256 360.474 159.991C360.474 159.77 360.549 159.578 360.697 159.414C360.846 159.248 361.062 159.125 361.341 159.044L365.244 157.944C365.341 157.917 365.432 157.898 365.521 157.889C365.616 157.872 365.714 157.863 365.809 157.863C365.977 157.863 366.108 157.944 366.204 158.109C366.3 158.266 366.349 158.48 366.349 158.755V173.614H368.452C369.231 173.614 369.726 173.683 369.936 173.82C370.147 173.948 370.252 174.195 370.252 174.561C370.252 174.891 370.164 175.138 369.989 175.303C369.814 175.467 369.551 175.55 369.201 175.55H361.341C360.991 175.55 360.728 175.467 360.553 175.303C360.378 175.138 360.29 174.891 360.29 174.561C360.29 174.195 360.395 173.948 360.606 173.82C360.815 173.683 361.311 173.614 362.09 173.614H364.272V160.197L361.802 160.814Z" fill="white"/>
<path d="M377.431 175.55C376.968 175.55 376.621 175.455 376.393 175.261C376.174 175.061 376.064 174.753 376.064 174.342C376.064 173.747 376.906 172.63 378.589 170.991L378.97 170.606C379.223 170.35 379.592 169.984 380.073 169.508C383.104 166.524 384.621 164.349 384.621 162.984C384.621 162.005 384.353 161.213 383.819 160.609C383.284 159.995 382.592 159.689 381.742 159.689C381.19 159.689 380.66 159.808 380.153 160.045C379.653 160.284 379.249 160.605 378.943 161.006C378.891 161.08 378.807 161.203 378.693 161.378C378.369 161.991 378.005 162.299 377.602 162.299C377.288 162.299 377.063 162.197 376.932 161.995C376.8 161.794 376.734 161.409 376.734 160.842C376.734 160.513 376.766 160.275 376.827 160.128C376.888 159.972 377.002 159.808 377.168 159.634C377.729 159.066 378.421 158.617 379.245 158.288C380.078 157.949 380.927 157.78 381.795 157.78C383.249 157.78 384.462 158.269 385.436 159.249C386.417 160.228 386.907 161.433 386.907 162.861C386.907 164.655 385.418 167.041 382.439 170.016C381.676 170.758 381.093 171.339 380.691 171.759L379.075 173.38H385.08C385.116 172.986 385.216 172.689 385.383 172.488C385.558 172.277 385.79 172.172 386.079 172.172C386.369 172.172 386.596 172.272 386.762 172.474C386.929 172.675 387.012 172.95 387.012 173.299C387.012 173.325 387.007 173.375 387 173.449C386.991 173.513 386.986 173.559 386.986 173.586L386.882 174.644C386.855 174.928 386.775 175.152 386.644 175.317C386.512 175.472 386.342 175.55 386.132 175.55H377.431Z" fill="white"/>
<path d="M401.117 166.102C402.143 166.395 402.935 166.93 403.496 167.708C404.066 168.478 404.351 169.42 404.351 170.538C404.351 172.139 403.807 173.453 402.721 174.48C401.634 175.495 400.229 176.003 398.502 176.003C397.171 176.003 395.984 175.738 394.941 175.206C393.907 174.667 393.389 174.077 393.389 173.436C393.389 173.161 393.482 172.936 393.666 172.763C393.859 172.58 394.09 172.488 394.363 172.488C394.511 172.488 395.05 172.722 395.979 173.188C396.917 173.655 397.788 173.889 398.594 173.889C399.637 173.889 400.483 173.577 401.13 172.955C401.788 172.331 402.116 171.527 402.116 170.538C402.116 169.724 401.889 169.036 401.433 168.478C400.987 167.909 400.368 167.549 399.58 167.392C399.344 167.347 399.033 167.311 398.647 167.283C397.911 167.238 397.543 166.917 397.543 166.322C397.543 165.781 397.902 165.466 398.621 165.374C398.901 165.347 399.133 165.314 399.317 165.278C400 165.169 400.553 164.875 400.973 164.399C401.394 163.924 401.604 163.347 401.604 162.669C401.604 161.799 401.346 161.089 400.828 160.541C400.311 159.991 399.655 159.716 398.858 159.716C398.122 159.716 397.364 159.955 396.583 160.43C395.813 160.906 395.33 161.144 395.137 161.144C394.892 161.144 394.687 161.063 394.52 160.897C394.363 160.733 394.283 160.527 394.283 160.28C394.283 159.72 394.774 159.167 395.755 158.617C396.737 158.059 397.823 157.78 399.015 157.78C400.381 157.78 401.516 158.214 402.419 159.084C403.33 159.945 403.786 161.006 403.786 162.27C403.786 163.231 403.566 164.024 403.128 164.647C402.699 165.269 402.029 165.755 401.117 166.102Z" fill="white"/>
<path d="M417.234 169.219V159.908L412.253 169.219H417.234ZM415.814 175.55C415.394 175.55 415.109 175.481 414.961 175.344C414.811 175.197 414.736 174.936 414.736 174.561C414.736 174.231 414.811 173.994 414.961 173.847C415.118 173.692 415.367 173.614 415.71 173.614H417.234V171.306H411.097C410.877 171.306 410.706 171.233 410.584 171.088C410.461 170.941 410.4 170.73 410.4 170.455V169.508C410.4 169.141 410.527 168.756 410.781 168.355C410.825 168.281 410.859 168.222 410.886 168.175L416.432 158.342C416.555 158.114 416.655 157.967 416.734 157.903C416.813 157.839 416.918 157.808 417.05 157.808C417.102 157.808 417.195 157.816 417.326 157.834C417.361 157.844 417.397 157.853 417.431 157.863L418.771 158.081C418.895 158.1 418.991 158.173 419.061 158.302C419.14 158.42 419.179 158.581 419.179 158.783V169.219H419.849C420.042 169.219 420.191 169.141 420.296 168.986C420.401 168.82 420.519 168.739 420.65 168.739C420.827 168.739 420.975 168.808 421.098 168.945C421.22 169.081 421.281 169.252 421.281 169.453C421.281 169.534 421.277 169.613 421.268 169.686C421.26 169.75 421.243 169.819 421.216 169.892L421.111 170.455C421.05 170.784 420.957 171.009 420.834 171.128C420.721 171.247 420.537 171.306 420.283 171.306H419.179V173.614H419.64C420.2 173.614 420.585 173.688 420.795 173.833C421.006 173.97 421.111 174.214 421.111 174.561C421.111 174.891 421.023 175.138 420.848 175.303C420.673 175.467 420.41 175.55 420.06 175.55H415.814Z" fill="white"/>
<path d="M59.8429 102.913L60.2736 101.844L49.3457 72.2563H57.4743L64.4186 92.2251L72.3857 72.2563H80.3528L67.4332 103.869C65.9977 107.394 64.3289 109.906 62.4268 111.406C60.5248 112.906 58.0485 113.656 54.998 113.656C54.3521 113.656 53.724 113.619 53.1139 113.544C52.5397 113.506 52.0732 113.431 51.7143 113.319V106.681C52.0732 106.756 52.45 106.813 52.8448 106.85C53.2395 106.888 53.724 106.906 54.2982 106.906C55.6261 106.906 56.7386 106.569 57.6358 105.894C58.5689 105.219 59.3046 104.225 59.8429 102.913Z" fill="white"/>
<path d="M107.357 97.9063C105.635 99.3688 103.858 100.438 102.028 101.113C100.233 101.788 98.2237 102.125 95.9987 102.125C93.8813 102.125 91.8895 101.731 90.0233 100.944C88.1931 100.156 86.5961 99.0875 85.2323 97.7375C83.9045 96.3875 82.8458 94.7938 82.0562 92.9563C81.3026 91.0813 80.9258 89.075 80.9258 86.9375C80.9258 84.8375 81.2847 82.8688 82.0024 81.0313C82.7561 79.1563 83.7789 77.5438 85.0708 76.1938C86.3628 74.8063 87.888 73.7188 89.6465 72.9313C91.4409 72.1438 93.343 71.75 95.3527 71.75C97.3265 71.75 99.1568 72.1625 100.844 72.9875C102.566 73.775 104.038 74.8625 105.258 76.25C106.514 77.6375 107.483 79.3063 108.165 81.2563C108.882 83.1688 109.241 85.25 109.241 87.5V89.525H88.3546C88.857 91.3625 89.826 92.8438 91.2615 93.9688C92.697 95.0938 94.3837 95.6563 96.3217 95.6563C97.5419 95.6563 98.6903 95.45 99.7669 95.0375C100.844 94.625 101.759 94.0438 102.512 93.2938L107.357 97.9063ZM95.1912 78.1063C93.5045 78.1063 92.051 78.65 90.8308 79.7375C89.6106 80.7875 88.7673 82.2125 88.3007 84.0125H102.028C101.561 82.2875 100.7 80.8813 99.4439 79.7938C98.2237 78.6688 96.8062 78.1063 95.1912 78.1063Z" fill="white"/>
<path d="M121.135 60.5V101.562H113.76V62.1875L121.135 60.5Z" fill="white"/>
<path d="M134.277 60.5V101.562H126.902V62.1875L134.277 60.5Z" fill="white"/>
<path d="M138.753 86.9376C138.753 84.8001 139.13 82.8126 139.883 80.9751C140.673 79.1001 141.732 77.4876 143.059 76.1376C144.423 74.7501 146.02 73.6626 147.85 72.8751C149.681 72.0876 151.637 71.6938 153.718 71.6938C155.8 71.6938 157.756 72.0876 159.586 72.8751C161.416 73.6626 162.995 74.7501 164.323 76.1376C165.687 77.4876 166.746 79.1001 167.499 80.9751C168.289 82.8126 168.684 84.8001 168.684 86.9376C168.684 89.0751 168.289 91.0814 167.499 92.9564C166.746 94.7939 165.687 96.3876 164.323 97.7376C162.995 99.0876 161.416 100.156 159.586 100.944C157.756 101.731 155.8 102.125 153.718 102.125C151.637 102.125 149.681 101.731 147.85 100.944C146.02 100.156 144.423 99.0876 143.059 97.7376C141.732 96.3876 140.673 94.7939 139.883 92.9564C139.13 91.0814 138.753 89.0751 138.753 86.9376ZM153.718 95.4314C155.872 95.4314 157.702 94.6064 159.209 92.9564C160.716 91.3064 161.47 89.3001 161.47 86.9376C161.47 84.5376 160.716 82.5126 159.209 80.8626C157.702 79.2126 155.872 78.3876 153.718 78.3876C151.565 78.3876 149.735 79.2126 148.227 80.8626C146.72 82.5126 145.966 84.5376 145.966 86.9376C145.966 89.3001 146.72 91.3064 148.227 92.9564C149.735 94.6064 151.565 95.4314 153.718 95.4314Z" fill="white"/>
<path d="M185.126 101.563H178.02L170.322 72.2563H177.32L181.95 91.2126L187.548 72.2563H193.739L199.284 91.2126L203.913 72.2563H210.804L203.052 101.563H196L190.563 82.8314L185.126 101.563Z" fill="white"/>
<path d="M217.827 92.9563C219.047 92.9563 220.088 93.4063 220.949 94.3063C221.811 95.2063 222.241 96.2938 222.241 97.5688C222.241 98.8063 221.811 99.875 220.949 100.775C220.088 101.675 219.047 102.125 217.827 102.125C216.643 102.125 215.62 101.675 214.759 100.775C213.897 99.875 213.467 98.8063 213.467 97.5688C213.467 96.2938 213.897 95.2063 214.759 94.3063C215.62 93.4063 216.643 92.9563 217.827 92.9563Z" fill="white"/>
</g>
<defs>
<filter id="filter0_i" x="0" y="0" width="481" height="301" filterUnits="userSpaceOnUse" color-interpolation-filters="sRGB">
<feFlood flood-opacity="0" result="BackgroundImageFix"/>
<feBlend mode="normal" in="SourceGraphic" in2="BackgroundImageFix" result="shape"/>
<feColorMatrix in="SourceAlpha" type="matrix" values="0 0 0 0 0 0 0 0 0 0 0 0 0 0 0 0 0 0 127 0" result="hardAlpha"/>
<feOffset dx="1" dy="1"/>
<feGaussianBlur stdDeviation="1.5"/>
<feComposite in2="hardAlpha" operator="arithmetic" k2="-1" k3="1"/>
<feColorMatrix type="matrix" values="0 0 0 0 1 0 0 0 0 1 0 0 0 0 1 0 0 0 0.25 0"/>
<feBlend mode="normal" in2="shape" result="effect1_innerShadow"/>
</filter>
<linearGradient id="paint0_linear" x1="0" y1="300" x2="480" y2="300" gradientUnits="userSpaceOnUse">
<stop stop-color="#21A567"/>
<stop offset="1" stop-color="#8ED861"/>
</linearGradient>
<linearGradient id="paint1_linear" x1="0" y1="300" x2="480" y2="300" gradientUnits="userSpaceOnUse">
<stop stop-color="#21A567"/>
<stop offset="1" stop-color="#8ED861"/>
</linearGradient>
</defs>
</svg>
