<svg width="240" height="150" viewBox="0 0 240 150" fill="none" xmlns="http://www.w3.org/2000/svg">
<g filter="url(#filter0_i)">
<path d="M231.252 0H8.74766C3.91646 0 0 4.0924 0 9.14062V140.859C0 145.908 3.91646 150 8.74766 150H231.252C236.084 150 240 145.908 240 140.859V9.14062C240 4.0924 236.084 0 231.252 0Z" fill="url(#paint0_linear)"/>
</g>
<mask id="mask0" mask-type="alpha" maskUnits="userSpaceOnUse" x="0" y="0" width="240" height="150">
<path d="M231.252 0H8.74766C3.91646 0 0 4.0924 0 9.14062V140.859C0 145.908 3.91646 150 8.74766 150H231.252C236.084 150 240 145.908 240 140.859V9.14062C240 4.0924 236.084 0 231.252 0Z" fill="white"/>
</mask>
<g mask="url(#mask0)">
<path d="M32.2203 49.0497L-35.4464 119.756C-38.6445 123.098 -38.6445 128.516 -35.4464 131.858L79.0342 251.481C82.2324 254.823 87.4177 254.823 90.6158 251.481L158.283 180.775C161.481 177.433 161.481 172.015 158.283 168.673L43.8019 49.0497C40.6038 45.7078 35.4185 45.7078 32.2203 49.0497Z" fill="#4F6EF6" fill-opacity="0.04"/>
<path d="M147.063 12.0077L-11.061 177.235C-14.2592 180.577 -14.2592 185.995 -11.061 189.337L103.42 308.96C106.618 312.302 111.803 312.302 115.001 308.96L273.125 143.733C276.323 140.391 276.323 134.973 273.125 131.631L158.645 12.0077C155.446 8.66589 150.261 8.6659 147.063 12.0077Z" fill="#4F6EF6" fill-opacity="0.04"/>
<path d="M238.73 157.112L158.763 73.5525C155.565 70.2107 150.379 70.2107 147.181 73.5525L32.7005 193.176C29.5024 196.518 29.5024 201.936 32.7006 205.278L112.667 288.837C115.866 292.179 121.051 292.179 124.249 288.837L238.73 169.214C241.928 165.872 241.928 160.454 238.73 157.112Z" fill="#4F6EF6" fill-opacity="0.04"/>
<path d="M257.924 155.689L211.009 106.666C207.811 103.324 202.625 103.324 199.427 106.666L84.9465 226.289C81.7483 229.631 81.7483 235.049 84.9465 238.391L131.862 287.414C135.06 290.756 140.246 290.756 143.444 287.414L257.924 167.791C261.122 164.449 261.122 159.031 257.924 155.689Z" fill="#4F6EF6" fill-opacity="0.04"/>
<path fill-rule="evenodd" clip-rule="evenodd" d="M220.232 123.049L220.505 124.467C220.505 124.467 221.29 128.393 221.453 129.215H218.061C218.401 128.271 219.689 124.616 219.689 124.616C219.664 124.661 220.025 123.665 220.232 123.049ZM219.944 118.614C218.965 118.614 218.232 118.904 217.8 119.979L211.734 135.054H216.025C216.025 135.054 216.727 133.024 216.886 132.58C217.354 132.58 221.522 132.59 222.117 132.59C222.244 133.163 222.615 135.053 222.615 135.053H226.41L223.101 118.614H219.944ZM190.283 118.612L186.283 129.825L185.857 127.547C184.861 124.753 182.705 121.823 180.194 120.634L183.853 135.033L188.178 135.03L194.61 118.612H190.283ZM196.268 118.597L193.711 135.048H197.797L200.354 118.596H196.268V118.597ZM208.958 118.31C204.916 118.31 202.076 120.544 202.051 123.738C202.025 126.105 204.081 127.424 205.628 128.211C207.224 129.015 207.757 129.531 207.752 130.251C207.735 131.354 206.475 131.855 205.303 131.855C203.669 131.855 202.798 131.608 201.46 130.996L200.929 130.734L200.358 134.416C201.314 134.873 203.078 135.271 204.913 135.291C209.203 135.291 211.994 133.083 212.027 129.673C212.043 127.796 210.952 126.376 208.592 125.202C207.168 124.44 206.287 123.934 206.3 123.162C206.301 122.479 207.039 121.748 208.641 121.748C209.98 121.724 210.942 122.043 211.699 122.38L212.064 122.569L212.62 119.002C211.812 118.67 210.538 118.31 208.958 118.31Z" fill="white"/>
<path fill-rule="evenodd" clip-rule="evenodd" d="M182.998 117.877L176.179 117.503L176.126 117.776C181.361 119.391 184.695 122.835 185.959 126.761L184.846 119.329C184.641 118.304 183.915 117.962 182.998 117.877Z" fill="white"/>
<path d="M28.1388 108.471V111.482H29.3C29.95 111.482 30.4365 111.356 30.7594 111.105C31.0822 110.855 31.2437 110.476 31.2437 109.97C31.2437 109.473 31.0802 109.098 30.7531 108.848C30.4303 108.596 29.9459 108.471 29.3 108.471H28.1388ZM29.4366 114.317C29.6395 114.317 29.7865 114.354 29.8775 114.427C29.9687 114.497 30.0142 114.609 30.0142 114.765C30.0142 114.938 29.9707 115.059 29.8838 115.128C29.7968 115.198 29.6312 115.232 29.387 115.232H26.3503C26.2096 115.232 26.102 115.193 26.0274 115.116C25.953 115.034 25.9156 114.916 25.9156 114.765C25.9156 114.614 25.9509 114.502 26.0212 114.427C26.0958 114.354 26.2096 114.317 26.3628 114.317H27.1639V108.471H26.7292C26.3648 108.471 26.1372 108.438 26.0461 108.373C25.9592 108.305 25.9156 108.181 25.9156 108.004C25.9156 107.852 25.953 107.738 26.0274 107.66C26.102 107.577 26.2096 107.537 26.3503 107.537H29.2256C30.2315 107.537 30.9953 107.74 31.5169 108.147C32.0386 108.553 32.2994 109.152 32.2994 109.944C32.2994 110.735 32.0407 111.333 31.5231 111.735C31.0057 112.138 30.2398 112.338 29.2256 112.338H28.1388V114.317H29.4366ZM39.5852 112.617C39.5852 112.293 39.6162 112.083 39.6783 111.988C39.7405 111.893 39.8585 111.845 40.0323 111.845C40.1814 111.845 40.2931 111.886 40.3676 111.969C40.4422 112.046 40.4794 112.17 40.4794 112.338V112.617V114.752C40.4794 114.903 40.4401 115.023 40.3614 115.109C40.2828 115.191 40.1731 115.232 40.0323 115.232H34.5242H34.2323C34.0833 115.232 33.9715 115.193 33.897 115.116C33.8225 115.038 33.7852 114.921 33.7852 114.765C33.7852 114.592 33.8287 114.475 33.9156 114.415C34.0067 114.35 34.2096 114.317 34.5242 114.317H35.3004V108.471H34.5242C34.2179 108.471 34.017 108.438 33.9219 108.373C33.8307 108.305 33.7852 108.181 33.7852 108.004C33.7852 107.844 33.8225 107.727 33.897 107.653C33.9756 107.576 34.0957 107.537 34.2572 107.537H34.5242H37.3248H37.6167C37.7657 107.537 37.8795 107.576 37.9582 107.653C38.0368 107.731 38.0762 107.848 38.0762 108.004C38.0762 108.181 38.0286 108.305 37.9334 108.373C37.8423 108.438 37.6395 108.471 37.3248 108.471H36.2816V114.317H39.5852V112.617ZM44.0269 111.91H46.5667L45.2316 108.471L44.0269 111.91ZM44.3436 108.471H43.4369C43.1844 108.471 43.0064 108.437 42.9029 108.367C42.8036 108.294 42.7539 108.173 42.7539 108.004C42.7539 107.827 42.7974 107.705 42.8842 107.641C42.9754 107.571 43.2196 107.537 43.617 107.537H45.3868C45.6146 107.537 45.7677 107.569 45.8463 107.634C45.9292 107.695 46.0037 107.809 46.0699 107.978L48.498 114.317H48.6036C48.8271 114.317 48.9802 114.35 49.0631 114.415C49.1459 114.48 49.1873 114.596 49.1873 114.765C49.1873 114.942 49.148 115.066 49.0693 115.135C48.9906 115.2 48.8436 115.232 48.6284 115.232H46.9393C46.6247 115.232 46.4218 115.2 46.3308 115.135C46.2438 115.066 46.2004 114.942 46.2004 114.765C46.2004 114.601 46.2479 114.486 46.3432 114.421C46.4425 114.352 46.6268 114.317 46.8958 114.317H47.4733L46.871 112.773H43.7164L43.1823 114.317H43.7847C44.0579 114.317 44.2442 114.352 44.3436 114.421C44.443 114.486 44.4926 114.601 44.4926 114.765C44.4926 114.942 44.4471 115.066 44.356 115.135C44.2691 115.2 44.0745 115.232 43.7722 115.232H42.1391C41.8742 115.232 41.6982 115.2 41.6113 115.135C41.5243 115.066 41.4809 114.942 41.4809 114.765C41.4809 114.596 41.5243 114.48 41.6113 114.415C41.6982 114.35 41.8659 114.317 42.1142 114.317H42.2322L44.3436 108.471ZM51.0457 110.158C51.0374 110.483 51.0001 110.69 50.9339 110.781C50.8718 110.867 50.7476 110.911 50.5613 110.911C50.4164 110.911 50.3067 110.872 50.2322 110.794C50.1618 110.712 50.1266 110.593 50.1266 110.437C50.1266 110.437 50.1287 110.405 50.1328 110.34C50.137 110.27 50.139 110.202 50.139 110.132L50.2011 107.991C50.2094 107.83 50.2508 107.716 50.3253 107.647C50.3998 107.573 50.5157 107.537 50.6731 107.537H56.0694C56.2267 107.537 56.3426 107.573 56.4172 107.647C56.4917 107.716 56.531 107.83 56.5352 107.991L56.6035 110.132C56.6035 110.21 56.6055 110.284 56.6097 110.352C56.6138 110.422 56.6159 110.455 56.6159 110.45C56.6159 110.605 56.5766 110.723 56.4979 110.801C56.4193 110.874 56.3013 110.911 56.1439 110.911C55.9784 110.911 55.8645 110.867 55.8024 110.781C55.7403 110.69 55.7051 110.483 55.6968 110.158L55.6348 108.471H53.8525V114.317H54.8088H55.051C55.2249 114.317 55.3512 114.354 55.4298 114.427C55.5085 114.497 55.5478 114.609 55.5478 114.765C55.5478 114.916 55.5106 115.034 55.436 115.116C55.3615 115.193 55.2539 115.232 55.1131 115.232H51.6294C51.4887 115.232 51.381 115.193 51.3065 115.116C51.232 115.034 51.1947 114.916 51.1947 114.765C51.1947 114.605 51.234 114.491 51.3127 114.421C51.3955 114.352 51.5342 114.317 51.7287 114.317H51.9337H52.89V108.471H51.1078L51.0457 110.158ZM63.318 114.317C63.6368 114.317 63.8396 114.35 63.9266 114.415C64.0176 114.475 64.0632 114.592 64.0632 114.765C64.0632 114.942 64.0176 115.066 63.9266 115.135C63.8396 115.2 63.6368 115.232 63.318 115.232H59.5486H59.2567C59.1077 115.232 58.9939 115.193 58.9152 115.116C58.8365 115.038 58.7972 114.921 58.7972 114.765C58.7972 114.592 58.8428 114.475 58.9338 114.415C59.0249 114.35 59.2298 114.317 59.5486 114.317H60.952V108.471H59.5486C59.2381 108.471 59.0353 108.438 58.94 108.373C58.8448 108.305 58.7972 108.181 58.7972 108.004C58.7972 107.844 58.8365 107.727 58.9152 107.653C58.9939 107.576 59.1118 107.537 59.2691 107.537H59.5486H63.318H63.6099C63.7589 107.537 63.8706 107.576 63.9452 107.653C64.0238 107.731 64.0632 107.848 64.0632 108.004C64.0632 108.181 64.0155 108.305 63.9204 108.373C63.8292 108.438 63.6285 108.471 63.318 108.471H61.9145V114.317H63.318ZM67.8031 114.317H68.1198H68.5793C68.8029 114.317 68.9623 114.352 69.0576 114.421C69.1527 114.491 69.2004 114.605 69.2004 114.765C69.2004 114.942 69.1548 115.066 69.0638 115.135C68.9768 115.2 68.7822 115.232 68.48 115.232H66.9275H66.6356C66.4866 115.232 66.3749 115.193 66.3003 115.116C66.2259 115.038 66.1885 114.921 66.1885 114.765C66.1885 114.592 66.23 114.475 66.3128 114.415C66.3997 114.35 66.5653 114.317 66.8096 114.317H66.9275V108.471H66.7723C66.4246 108.471 66.1885 108.437 66.0644 108.367C65.9443 108.298 65.8843 108.177 65.8843 108.004C65.8843 107.844 65.9361 107.729 66.0395 107.66C66.1472 107.586 66.319 107.549 66.555 107.549C66.555 107.549 66.5963 107.548 66.6792 107.543C66.7619 107.539 66.8448 107.537 66.9275 107.537H67.5112C67.7017 107.537 67.8342 107.56 67.9087 107.608C67.9874 107.652 68.0784 107.766 68.182 107.952L71.3117 113.597V108.471H71.0695H70.6286C70.4051 108.471 70.2416 108.434 70.138 108.361C70.0386 108.283 69.989 108.164 69.989 108.004C69.989 107.827 70.0324 107.705 70.1194 107.641C70.2063 107.571 70.3885 107.537 70.6659 107.537H72.15H72.4481C72.5971 107.537 72.7068 107.576 72.7772 107.653C72.8517 107.731 72.889 107.848 72.889 108.004C72.889 108.177 72.8434 108.298 72.7524 108.367C72.6654 108.437 72.504 108.471 72.268 108.471H72.1935V115.005C72.1935 115.13 72.1645 115.217 72.1065 115.265C72.0528 115.313 71.9244 115.336 71.7216 115.336C71.5187 115.336 71.3924 115.323 71.3427 115.297C71.2972 115.276 71.2185 115.165 71.1068 114.966L67.8031 109.016V114.317ZM74.8718 108.471H74.7723C74.5238 108.471 74.3521 108.437 74.2568 108.367C74.1657 108.298 74.1202 108.177 74.1202 108.004C74.1202 107.844 74.1595 107.727 74.2382 107.653C74.3168 107.576 74.4348 107.537 74.5921 107.537H74.8718H76.1443C76.48 107.537 76.6931 107.571 76.7843 107.641C76.8755 107.705 76.9211 107.827 76.9211 108.004C76.9211 108.177 76.8673 108.298 76.7596 108.367C76.6519 108.437 76.4471 108.471 76.1443 108.471H75.8774V112.027C75.8774 112.507 75.8983 112.857 75.9394 113.078C75.985 113.295 76.0576 113.493 76.157 113.675C76.302 113.939 76.5024 114.145 76.7596 114.291C77.0205 114.438 77.3076 114.512 77.6224 114.512C78.2146 114.512 78.6452 114.326 78.9144 113.954C79.1873 113.582 79.3241 112.98 79.3241 112.15V108.471H78.9951C78.6721 108.471 78.4546 108.438 78.3432 108.373C78.2355 108.305 78.1817 108.181 78.1817 108.004C78.1817 107.827 78.225 107.705 78.3118 107.641C78.3985 107.571 78.5787 107.537 78.8523 107.537H80.2243H80.5226C80.6714 107.537 80.7835 107.576 80.8576 107.653C80.9368 107.731 80.9757 107.848 80.9757 108.004C80.9757 108.177 80.9301 108.298 80.8396 108.367C80.7484 108.437 80.5824 108.471 80.3424 108.471H80.2557V112.293C80.2557 113.344 80.0299 114.134 79.5783 114.661C79.1312 115.184 78.4568 115.446 77.5544 115.446C76.7387 115.446 76.0867 115.184 75.5985 114.661C75.114 114.134 74.8718 113.424 74.8718 112.533V108.471ZM85.6284 112.04L86.9637 107.978C87.022 107.822 87.1005 107.709 87.2 107.641C87.3032 107.571 87.4505 107.537 87.6404 107.537H88.6594C88.7918 107.537 88.8912 107.576 88.957 107.653C89.0273 107.727 89.0624 107.835 89.0624 107.978C89.0624 108.142 89.0191 108.257 88.9323 108.322C88.8493 108.382 88.6946 108.413 88.4665 108.413H88.3671L88.5413 114.317H88.6841C88.9533 114.317 89.1334 114.35 89.2239 114.415C89.3151 114.475 89.3607 114.592 89.3607 114.765C89.3607 114.916 89.3234 115.034 89.2493 115.116C89.1746 115.193 89.0669 115.232 88.9263 115.232H87.1813C86.9413 115.232 86.7776 115.198 86.6908 115.128C86.6033 115.059 86.56 114.938 86.56 114.765C86.56 114.596 86.6116 114.48 86.7155 114.415C86.8187 114.35 87.0176 114.317 87.3114 114.317H87.5783L87.4482 108.737L86.2183 112.468C86.1562 112.65 86.08 112.775 85.9888 112.845C85.8976 112.913 85.7615 112.948 85.579 112.948C85.4048 112.948 85.2725 112.913 85.1813 112.845C85.0908 112.771 85.0161 112.645 84.9577 112.468L83.7099 108.737L83.5977 114.317H84.0142C84.2587 114.317 84.4299 114.352 84.5293 114.421C84.6288 114.491 84.6789 114.605 84.6789 114.765C84.6789 114.938 84.6348 115.059 84.548 115.128C84.4613 115.198 84.2953 115.232 84.0516 115.232H82.3125C82.1675 115.232 82.0583 115.193 81.9835 115.116C81.9133 115.038 81.8781 114.921 81.8781 114.765C81.8781 114.592 81.9237 114.475 82.0142 114.415C82.1054 114.35 82.2856 114.317 82.5548 114.317H82.6916L82.8718 108.413H82.7723C82.5443 108.413 82.3873 108.382 82.3005 108.322C82.2131 108.257 82.1697 108.142 82.1697 107.978C82.1697 107.835 82.2048 107.727 82.2751 107.653C82.3454 107.576 82.4471 107.537 82.5794 107.537H83.5977C83.7884 107.537 83.9334 107.571 84.0329 107.641C84.1361 107.709 84.2146 107.822 84.2684 107.978L85.6284 112.04Z" fill="#333435"/>
<path d="M26.8125 83.1883C26.8125 82.5844 27.0184 82.0625 27.4302 81.6226C27.842 81.1836 28.3327 80.9633 28.9021 80.9633C29.4805 80.9633 29.9755 81.1836 30.3872 81.6226C30.799 82.0625 31.005 82.5844 31.005 83.1883C31.005 83.7922 30.799 84.3102 30.3872 84.7398C29.9755 85.1703 29.4805 85.3851 28.9021 85.3851C28.3327 85.3851 27.842 85.1703 27.4302 84.7398C27.0184 84.3102 26.8125 83.7922 26.8125 83.1883ZM35.3437 83.1883C35.3437 82.5844 35.5496 82.0625 35.9614 81.6226C36.3732 81.1836 36.8639 80.9633 37.4334 80.9633C38.0117 80.9633 38.5067 81.1836 38.9185 81.6226C39.3303 82.0625 39.5362 82.5844 39.5362 83.1883C39.5362 83.7922 39.3303 84.3102 38.9185 84.7398C38.5067 85.1703 38.0117 85.3851 37.4334 85.3851C36.8639 85.3851 36.3732 85.1703 35.9614 84.7398C35.5496 84.3102 35.3437 83.7922 35.3437 83.1883ZM43.875 83.1883C43.875 82.5844 44.0809 82.0625 44.4927 81.6226C44.9045 81.1836 45.3952 80.9633 45.9647 80.9633C46.5429 80.9633 47.038 81.1836 47.4497 81.6226C47.8615 82.0625 48.0675 82.5844 48.0675 83.1883C48.0675 83.7922 47.8615 84.3102 47.4497 84.7398C47.038 85.1703 46.5429 85.3851 45.9647 85.3851C45.3952 85.3851 44.9045 85.1703 44.4927 84.7398C44.0809 84.3102 43.875 83.7922 43.875 83.1883ZM52.4062 83.1883C52.4062 82.5844 52.6121 82.0625 53.0239 81.6226C53.4358 81.1836 53.9264 80.9633 54.4959 80.9633C55.0742 80.9633 55.5692 81.1836 55.981 81.6226C56.3928 82.0625 56.5987 82.5844 56.5987 83.1883C56.5987 83.7922 56.3928 84.3102 55.981 84.7398C55.5692 85.1703 55.0742 85.3851 54.4959 85.3851C53.9264 85.3851 53.4358 85.1703 53.0239 84.7398C52.6121 84.3102 52.4062 83.7922 52.4062 83.1883ZM78 83.1883C78 82.5844 78.2056 82.0625 78.6176 81.6226C79.0296 81.1836 79.52 80.9633 80.0897 80.9633C80.6677 80.9633 81.1626 81.1836 81.5746 81.6226C81.9866 82.0625 82.1922 82.5844 82.1922 83.1883C82.1922 83.7922 81.9866 84.3102 81.5746 84.7398C81.1626 85.1703 80.6677 85.3851 80.0897 85.3851C79.52 85.3851 79.0296 85.1703 78.6176 84.7398C78.2056 84.3102 78 83.7922 78 83.1883ZM86.5316 83.1883C86.5316 82.5844 86.7372 82.0625 87.1492 81.6226C87.5604 81.1836 88.0516 80.9633 88.6206 80.9633C89.1993 80.9633 89.6942 81.1836 90.1062 81.6226C90.5181 82.0625 90.7238 82.5844 90.7238 83.1883C90.7238 83.7922 90.5181 84.3102 90.1062 84.7398C89.6942 85.1703 89.1993 85.3851 88.6206 85.3851C88.0516 85.3851 87.5604 85.1703 87.1492 84.7398C86.7372 84.3102 86.5316 83.7922 86.5316 83.1883ZM95.0624 83.1883C95.0624 82.5844 95.2681 82.0625 95.68 81.6226C96.092 81.1836 96.5824 80.9633 97.1522 80.9633C97.7301 80.9633 98.2258 81.1836 98.637 81.6226C99.049 82.0625 99.2546 82.5844 99.2546 83.1883C99.2546 83.7922 99.049 84.3102 98.637 84.7398C98.2258 85.1703 97.7301 85.3851 97.1522 85.3851C96.5824 85.3851 96.092 85.1703 95.68 84.7398C95.2681 84.3102 95.0624 83.7922 95.0624 83.1883ZM103.594 83.1883C103.594 82.5844 103.8 82.0625 104.212 81.6226C104.624 81.1836 105.114 80.9633 105.684 80.9633C106.262 80.9633 106.757 81.1836 107.169 81.6226C107.581 82.0625 107.786 82.5844 107.786 83.1883C107.786 83.7922 107.581 84.3102 107.169 84.7398C106.757 85.1703 106.262 85.3851 105.684 85.3851C105.114 85.3851 104.624 85.1703 104.212 84.7398C103.8 84.3102 103.594 83.7922 103.594 83.1883ZM129.187 83.1883C129.187 82.5844 129.394 82.0625 129.805 81.6226C130.217 81.1836 130.707 80.9633 131.277 80.9633C131.856 80.9633 132.351 81.1836 132.763 81.6226C133.174 82.0625 133.38 82.5844 133.38 83.1883C133.38 83.7922 133.174 84.3102 132.763 84.7398C132.351 85.1703 131.856 85.3851 131.277 85.3851C130.707 85.3851 130.217 85.1703 129.805 84.7398C129.394 84.3102 129.187 83.7922 129.187 83.1883ZM137.719 83.1883C137.719 82.5844 137.924 82.0625 138.336 81.6226C138.748 81.1836 139.239 80.9633 139.809 80.9633C140.387 80.9633 140.882 81.1836 141.293 81.6226C141.705 82.0625 141.911 82.5844 141.911 83.1883C141.911 83.7922 141.705 84.3102 141.293 84.7398C140.882 85.1703 140.387 85.3851 139.809 85.3851C139.239 85.3851 138.748 85.1703 138.336 84.7398C137.924 84.3102 137.719 83.7922 137.719 83.1883ZM146.25 83.1883C146.25 82.5844 146.456 82.0625 146.868 81.6226C147.279 81.1836 147.77 80.9633 148.339 80.9633C148.918 80.9633 149.413 81.1836 149.825 81.6226C150.236 82.0625 150.443 82.5844 150.443 83.1883C150.443 83.7922 150.236 84.3102 149.825 84.7398C149.413 85.1703 148.918 85.3851 148.339 85.3851C147.77 85.3851 147.279 85.1703 146.868 84.7398C146.456 84.3102 146.25 83.7922 146.25 83.1883ZM154.781 83.1883C154.781 82.5844 154.987 82.0625 155.399 81.6226C155.811 81.1836 156.301 80.9633 156.871 80.9633C157.449 80.9633 157.944 81.1836 158.356 81.6226C158.768 82.0625 158.973 82.5844 158.973 83.1883C158.973 83.7922 158.768 84.3102 158.356 84.7398C157.944 85.1703 157.449 85.3851 156.871 85.3851C156.301 85.3851 155.811 85.1703 155.399 84.7398C154.987 84.3102 154.781 83.7922 154.781 83.1883ZM180.901 80.407C180.843 80.4164 180.8 80.4234 180.769 80.4281C180.743 80.4328 180.719 80.4351 180.697 80.4351C180.562 80.4351 180.449 80.3961 180.362 80.318C180.279 80.2359 180.237 80.1281 180.237 79.9953C180.237 79.8851 180.274 79.7891 180.348 79.707C180.423 79.6242 180.531 79.5625 180.671 79.5219L182.622 78.9719C182.671 78.9586 182.716 78.9492 182.76 78.9445C182.808 78.9359 182.857 78.9312 182.905 78.9312C182.988 78.9312 183.054 78.9719 183.102 79.0547C183.15 79.1328 183.175 79.2398 183.175 79.3773V86.807H184.226C184.615 86.807 184.863 86.8414 184.968 86.9102C185.074 86.9742 185.126 87.0977 185.126 87.2805C185.126 87.4453 185.082 87.5687 184.994 87.6516C184.907 87.7336 184.775 87.775 184.6 87.775H180.671C180.496 87.775 180.364 87.7336 180.277 87.6516C180.189 87.5687 180.145 87.4453 180.145 87.2805C180.145 87.0977 180.197 86.9742 180.303 86.9102C180.408 86.8414 180.656 86.807 181.045 86.807H182.136V80.0984L180.901 80.407ZM188.716 87.775C188.484 87.775 188.31 87.7273 188.197 87.6305C188.087 87.5305 188.032 87.3766 188.032 87.1711C188.032 86.8734 188.453 86.3148 189.294 85.4953L189.485 85.3031C189.611 85.175 189.796 84.9922 190.037 84.7539C191.552 83.2617 192.31 82.1742 192.31 81.4922C192.31 81.0023 192.176 80.6062 191.91 80.3047C191.642 79.9976 191.296 79.8445 190.871 79.8445C190.595 79.8445 190.33 79.9039 190.076 80.0226C189.827 80.1422 189.625 80.3023 189.471 80.5031C189.445 80.5398 189.403 80.6016 189.347 80.6891C189.184 80.9953 189.003 81.1492 188.801 81.1492C188.644 81.1492 188.532 81.0984 188.466 80.9976C188.4 80.8969 188.367 80.7047 188.367 80.4211C188.367 80.2562 188.383 80.1375 188.413 80.0641C188.444 79.9859 188.501 79.9039 188.584 79.8172C188.864 79.5328 189.21 79.3086 189.622 79.1437C190.039 78.9742 190.464 78.8898 190.897 78.8898C191.625 78.8898 192.231 79.1344 192.718 79.6242C193.208 80.1141 193.453 80.7164 193.453 81.4305C193.453 82.3273 192.709 83.5203 191.219 85.0078C190.838 85.3789 190.547 85.6695 190.345 85.8797L189.537 86.6898H192.54C192.558 86.493 192.608 86.3445 192.692 86.2437C192.779 86.1383 192.895 86.0859 193.039 86.0859C193.184 86.0859 193.298 86.1359 193.381 86.2367C193.465 86.3375 193.506 86.475 193.506 86.6492C193.506 86.6625 193.504 86.6875 193.5 86.7242C193.495 86.7562 193.493 86.7797 193.493 86.793L193.441 87.3219C193.427 87.4641 193.388 87.5758 193.322 87.6586C193.256 87.7359 193.171 87.775 193.066 87.775H188.716ZM200.559 83.0508C201.071 83.1976 201.468 83.4648 201.748 83.8539C202.033 84.2391 202.176 84.7101 202.176 85.2687C202.176 86.0695 201.904 86.7266 201.361 87.2398C200.817 87.7477 200.114 88.0016 199.251 88.0016C198.585 88.0016 197.992 87.8687 197.471 87.6031C196.953 87.3336 196.695 87.0383 196.695 86.718C196.695 86.5805 196.741 86.468 196.833 86.3812C196.929 86.2898 197.045 86.2437 197.181 86.2437C197.255 86.2437 197.525 86.3609 197.99 86.5937C198.458 86.8273 198.894 86.9445 199.297 86.9445C199.818 86.9445 200.242 86.7883 200.565 86.4773C200.894 86.1656 201.058 85.7633 201.058 85.2687C201.058 84.8617 200.944 84.518 200.716 84.2391C200.493 83.9547 200.184 83.7742 199.79 83.6961C199.672 83.6734 199.516 83.6555 199.323 83.6414C198.956 83.6187 198.772 83.4586 198.772 83.1609C198.772 82.8906 198.951 82.7328 199.311 82.6867C199.45 82.6734 199.566 82.657 199.658 82.6391C200 82.5844 200.277 82.4375 200.487 82.1992C200.697 81.9617 200.802 81.6734 200.802 81.3344C200.802 80.8992 200.673 80.5445 200.414 80.2703C200.156 79.9953 199.827 79.8578 199.429 79.8578C199.061 79.8578 198.682 79.9773 198.292 80.2148C197.907 80.4531 197.665 80.5719 197.569 80.5719C197.446 80.5719 197.344 80.5312 197.26 80.4484C197.181 80.3664 197.142 80.2633 197.142 80.1398C197.142 79.8601 197.387 79.5836 197.877 79.3086C198.369 79.0297 198.911 78.8898 199.507 78.8898C200.191 78.8898 200.758 79.107 201.21 79.5422C201.665 79.9726 201.893 80.5031 201.893 81.1351C201.893 81.6156 201.783 82.0117 201.564 82.3234C201.35 82.6344 201.015 82.8773 200.559 83.0508ZM208.617 84.6094V79.9539L206.126 84.6094H208.617ZM207.907 87.775C207.697 87.775 207.554 87.7406 207.48 87.6719C207.406 87.5984 207.368 87.468 207.368 87.2805C207.368 87.1156 207.406 86.9969 207.48 86.9234C207.559 86.8461 207.684 86.807 207.855 86.807H208.617V85.6531H205.548C205.439 85.6531 205.353 85.6164 205.292 85.5437C205.231 85.4703 205.2 85.3648 205.2 85.2273V84.7539C205.2 84.5703 205.264 84.3781 205.391 84.1773C205.412 84.1406 205.43 84.1109 205.443 84.0875L208.216 79.1711C208.277 79.057 208.327 78.9836 208.367 78.9516C208.407 78.9195 208.459 78.9039 208.525 78.9039C208.551 78.9039 208.597 78.9078 208.663 78.9172C208.68 78.9219 208.698 78.9266 208.716 78.9312L209.385 79.0406C209.448 79.05 209.495 79.0867 209.53 79.1508C209.57 79.2101 209.59 79.2906 209.59 79.3914V84.6094H209.924C210.021 84.6094 210.096 84.5703 210.148 84.493C210.2 84.4102 210.259 84.3695 210.325 84.3695C210.413 84.3695 210.488 84.4039 210.549 84.4727C210.61 84.5406 210.641 84.6258 210.641 84.7266C210.641 84.7672 210.639 84.8062 210.634 84.843C210.63 84.875 210.621 84.9094 210.608 84.9461L210.556 85.2273C210.525 85.3922 210.479 85.5047 210.417 85.5641C210.36 85.6234 210.268 85.6531 210.141 85.6531H209.59V86.807H209.82C210.1 86.807 210.292 86.8437 210.398 86.9164C210.503 86.9852 210.556 87.107 210.556 87.2805C210.556 87.4453 210.511 87.5687 210.424 87.6516C210.336 87.7336 210.205 87.775 210.03 87.775H207.907Z" fill="#333435"/>
<path d="M29.9214 51.4562L30.1368 50.9219L24.6729 36.1281H28.7372L32.2093 46.1125L36.1929 36.1281H40.1764L33.7166 51.9344C32.9988 53.6969 32.1644 54.9531 31.2134 55.7031C30.2624 56.4531 29.0243 56.8281 27.499 56.8281C27.176 56.8281 26.862 56.8094 26.557 56.7719C26.2699 56.7531 26.0366 56.7156 25.8572 56.6594V53.3406C26.0366 53.3781 26.225 53.4063 26.4224 53.425C26.6198 53.4438 26.862 53.4531 27.1491 53.4531C27.813 53.4531 28.3693 53.2844 28.8179 52.9469C29.2844 52.6094 29.6523 52.1125 29.9214 51.4562ZM53.6785 48.9531C52.8172 49.6844 51.929 50.2187 51.0139 50.5562C50.1167 50.8937 49.1118 51.0625 47.9993 51.0625C46.9406 51.0625 45.9447 50.8656 45.0116 50.4719C44.0965 50.0781 43.298 49.5437 42.6161 48.8687C41.9522 48.1937 41.4228 47.3969 41.0281 46.4781C40.6512 45.5406 40.4628 44.5375 40.4628 43.4687C40.4628 42.4187 40.6423 41.4344 41.0012 40.5156C41.378 39.5781 41.8894 38.7719 42.5354 38.0969C43.1813 37.4031 43.944 36.8594 44.8232 36.4656C45.7204 36.0719 46.6714 35.875 47.6763 35.875C48.6632 35.875 49.5783 36.0813 50.4217 36.4938C51.283 36.8875 52.0187 37.4312 52.6288 38.125C53.2568 38.8187 53.7413 39.6531 54.0823 40.6281C54.4411 41.5844 54.6206 42.625 54.6206 43.75V44.7625H44.1772C44.4284 45.6813 44.9129 46.4219 45.6307 46.9844C46.3484 47.5469 47.1918 47.8281 48.1608 47.8281C48.7709 47.8281 49.3451 47.725 49.8834 47.5187C50.4217 47.3125 50.8793 47.0219 51.2561 46.6469L53.6785 48.9531ZM47.5955 39.0531C46.7522 39.0531 46.0254 39.325 45.4154 39.8688C44.8053 40.3938 44.3836 41.1063 44.1503 42.0063H51.0139C50.7806 41.1438 50.3499 40.4406 49.7219 39.8969C49.1118 39.3344 48.403 39.0531 47.5955 39.0531ZM60.5673 30.25V50.7812H56.8798V31.0937L60.5673 30.25ZM67.1386 30.25V50.7812H63.4511V31.0937L67.1386 30.25ZM69.3763 43.4687C69.3763 42.4 69.5647 41.4062 69.9416 40.4875C70.3363 39.55 70.8657 38.7437 71.5296 38.0687C72.2115 37.375 73.01 36.8312 73.9251 36.4375C74.8403 36.0437 75.8183 35.8469 76.859 35.8469C77.8998 35.8469 78.8777 36.0437 79.7928 36.4375C80.708 36.8312 81.4975 37.375 82.1614 38.0687C82.8433 38.7437 83.3727 39.55 83.7495 40.4875C84.1442 41.4062 84.3416 42.4 84.3416 43.4687C84.3416 44.5375 84.1442 45.5406 83.7495 46.4781C83.3727 47.3969 82.8433 48.1937 82.1614 48.8687C81.4975 49.5437 80.708 50.0781 79.7928 50.4719C78.8777 50.8656 77.8998 51.0625 76.859 51.0625C75.8183 51.0625 74.8403 50.8656 73.9251 50.4719C73.01 50.0781 72.2115 49.5437 71.5296 48.8687C70.8657 48.1937 70.3363 47.3969 69.9416 46.4781C69.5647 45.5406 69.3763 44.5375 69.3763 43.4687ZM76.859 47.7156C77.9357 47.7156 78.8508 47.3031 79.6044 46.4781C80.3581 45.6531 80.7349 44.65 80.7349 43.4687C80.7349 42.2687 80.3581 41.2562 79.6044 40.4312C78.8508 39.6062 77.9357 39.1937 76.859 39.1937C75.7824 39.1937 74.8672 39.6062 74.1135 40.4312C73.3599 41.2562 72.9831 42.2687 72.9831 43.4687C72.9831 44.65 73.3599 45.6531 74.1135 46.4781C74.8672 47.3031 75.7824 47.7156 76.859 47.7156ZM92.5629 50.7812H89.01L85.1611 36.1281H88.6601L90.9749 45.6062L93.7742 36.1281H96.8695L99.6418 45.6062L101.957 36.1281H105.402L101.526 50.7812H97.9999L95.2814 41.4156L92.5629 50.7812Z" fill="#4F6EF6"/>
<path d="M108.914 46.4781C109.524 46.4781 110.044 46.7031 110.475 47.1531C110.905 47.6031 111.121 48.1469 111.121 48.7844C111.121 49.4031 110.905 49.9375 110.475 50.3875C110.044 50.8375 109.524 51.0625 108.914 51.0625C108.321 51.0625 107.81 50.8375 107.379 50.3875C106.949 49.9375 106.733 49.4031 106.733 48.7844C106.733 48.1469 106.949 47.6031 107.379 47.1531C107.81 46.7031 108.321 46.4781 108.914 46.4781Z" fill="#FEBA46"/>
</g>
<defs>
<filter id="filter0_i" x="0" y="0" width="241" height="151" filterUnits="userSpaceOnUse" color-interpolation-filters="sRGB">
<feFlood flood-opacity="0" result="BackgroundImageFix"/>
<feBlend mode="normal" in="SourceGraphic" in2="BackgroundImageFix" result="shape"/>
<feColorMatrix in="SourceAlpha" type="matrix" values="0 0 0 0 0 0 0 0 0 0 0 0 0 0 0 0 0 0 127 0" result="hardAlpha"/>
<feOffset dx="1" dy="1"/>
<feGaussianBlur stdDeviation="1.5"/>
<feComposite in2="hardAlpha" operator="arithmetic" k2="-1" k3="1"/>
<feColorMatrix type="matrix" values="0 0 0 0 1 0 0 0 0 1 0 0 0 0 1 0 0 0 0.15 0"/>
<feBlend mode="normal" in2="shape" result="effect1_innerShadow"/>
</filter>
<linearGradient id="paint0_linear" x1="240" y1="0" x2="0" y2="0" gradientUnits="userSpaceOnUse">
<stop stop-color="#F2F2F2"/>
<stop offset="1" stop-color="#FBFBFB"/>
</linearGradient>
</defs>
</svg>
