<svg width="240" height="150" viewBox="0 0 240 150" fill="none" xmlns="http://www.w3.org/2000/svg">
<g filter="url(#filter0_i)">
<path d="M231.252 0H8.74766C3.91646 0 0 4.0924 0 9.14062V140.859C0 145.908 3.91646 150 8.74766 150H231.252C236.084 150 240 145.908 240 140.859V9.14062C240 4.0924 236.084 0 231.252 0Z" fill="url(#paint0_linear)"/>
</g>
<mask id="mask0" mask-type="alpha" maskUnits="userSpaceOnUse" x="0" y="0" width="240" height="150">
<path d="M231.252 0H8.74766C3.91646 0 0 4.0924 0 9.14062V140.859C0 145.908 3.91646 150 8.74766 150H231.252C236.084 150 240 145.908 240 140.859V9.14062C240 4.0924 236.084 0 231.252 0Z" fill="white"/>
</mask>
<g mask="url(#mask0)">
<path fill-rule="evenodd" clip-rule="evenodd" d="M-8.0672 61.9848C-8.0672 61.9848 21.0414 39.9715 51.4188 61.9848C81.7959 83.9976 113.782 57.3672 113.782 57.3672C113.782 57.3672 144.869 33.6619 177.949 57.3672C211.03 81.0726 242.421 54.1432 242.421 54.1432V178.91L-8.0672 180.281V61.9848Z" fill="white" fill-opacity="0.1"/>
<path fill-rule="evenodd" clip-rule="evenodd" d="M-8.0672 86.6328C-8.0672 86.6328 21.0414 64.6194 51.4188 86.6328C81.7959 108.646 113.782 82.0149 113.782 82.0149C113.782 82.0149 144.869 58.3099 177.949 82.0149C211.03 105.72 242.421 78.7914 242.421 78.7914V203.559L-8.0672 204.93V86.6328Z" fill="white" fill-opacity="0.1"/>
<path fill-rule="evenodd" clip-rule="evenodd" d="M-8.0672 111.28C-8.0672 111.28 21.0414 89.2672 51.4188 111.28C81.7959 133.294 113.782 106.663 113.782 106.663C113.782 106.663 144.869 82.9578 177.949 106.663C211.03 130.368 242.421 103.439 242.421 103.439V228.206L-8.0672 229.577V111.28Z" fill="white" fill-opacity="0.1"/>
<path fill-rule="evenodd" clip-rule="evenodd" d="M-8.0672 135.928C-8.0672 135.928 21.0414 113.915 51.4188 135.928C81.7959 157.941 113.782 131.311 113.782 131.311C113.782 131.311 144.869 107.605 177.949 131.311C211.03 155.016 242.421 128.087 242.421 128.087V252.854L-8.0672 254.225V135.928Z" fill="white" fill-opacity="0.1"/>
<path fill-rule="evenodd" clip-rule="evenodd" d="M220.233 123.049L220.505 124.467C220.505 124.467 221.29 128.393 221.453 129.215H218.061C218.401 128.271 219.689 124.616 219.689 124.616C219.664 124.661 220.025 123.665 220.233 123.049ZM219.944 118.614C218.965 118.614 218.232 118.904 217.8 119.979L211.734 135.054H216.025C216.025 135.054 216.727 133.024 216.886 132.58C217.354 132.58 221.522 132.59 222.117 132.59C222.244 133.163 222.615 135.053 222.615 135.053H226.41L223.101 118.614H219.944ZM190.283 118.612L186.283 129.825L185.857 127.547C184.861 124.753 182.705 121.823 180.194 120.634L183.853 135.033L188.178 135.03L194.61 118.612H190.283ZM196.268 118.597L193.711 135.048H197.797L200.354 118.596H196.268V118.597ZM208.958 118.31C204.916 118.31 202.076 120.544 202.051 123.738C202.025 126.105 204.082 127.424 205.628 128.211C207.224 129.015 207.757 129.531 207.752 130.251C207.735 131.354 206.475 131.855 205.303 131.855C203.67 131.855 202.799 131.608 201.46 130.996L200.929 130.734L200.358 134.416C201.314 134.873 203.078 135.271 204.913 135.291C209.203 135.291 211.994 133.083 212.027 129.673C212.043 127.796 210.953 126.376 208.592 125.202C207.168 124.44 206.287 123.934 206.3 123.162C206.301 122.479 207.039 121.748 208.642 121.748C209.98 121.724 210.942 122.043 211.699 122.38L212.064 122.569L212.62 119.002C211.812 118.67 210.538 118.31 208.958 118.31Z" fill="white"/>
<path fill-rule="evenodd" clip-rule="evenodd" d="M182.998 117.877L176.179 117.503L176.126 117.776C181.361 119.391 184.695 122.835 185.959 126.761L184.846 119.329C184.641 118.304 183.915 117.962 182.998 117.877Z" fill="white"/>
<path d="M27.3688 115.005C27.3481 115.2 27.3005 115.334 27.2259 115.408C27.1515 115.485 27.0335 115.524 26.872 115.524C26.6981 115.524 26.5677 115.47 26.4808 115.362C26.398 115.259 26.3504 115.088 26.338 114.849L26.2572 113.344V113.227C26.2572 113.02 26.2945 112.873 26.369 112.786C26.4477 112.699 26.576 112.656 26.754 112.656C27.0024 112.656 27.1804 112.842 27.2881 113.214C27.3377 113.4 27.3854 113.541 27.4309 113.636C27.5758 113.939 27.8035 114.173 28.114 114.337C28.4286 114.502 28.8033 114.584 29.238 114.584C29.772 114.584 30.2046 114.452 30.5358 114.188C30.8712 113.923 31.0388 113.586 31.0388 113.175C31.0388 112.834 30.9353 112.559 30.7283 112.352C30.5255 112.144 30.2274 112.009 29.8341 111.949L28.9151 111.82C28.0581 111.694 27.433 111.458 27.0397 111.112C26.6464 110.766 26.4497 110.279 26.4497 109.652C26.4497 108.99 26.7106 108.434 27.2322 107.984C27.7579 107.534 28.412 107.309 29.1945 107.309C29.4222 107.309 29.6623 107.342 29.9148 107.407C30.1673 107.467 30.453 107.565 30.7718 107.698C30.78 107.573 30.8132 107.487 30.8712 107.439C30.9291 107.391 31.0285 107.368 31.1692 107.368C31.3514 107.368 31.4776 107.396 31.548 107.452C31.6184 107.509 31.6618 107.642 31.6784 107.855L31.7654 109.211V109.276C31.7654 109.427 31.724 109.546 31.6412 109.633C31.5584 109.715 31.4425 109.755 31.2934 109.755C31.074 109.755 30.9043 109.595 30.7842 109.276C30.7263 109.094 30.6683 108.958 30.6103 108.866C30.4737 108.651 30.2771 108.484 30.0204 108.367C29.7637 108.25 29.4719 108.192 29.1448 108.192C28.6439 108.192 28.2361 108.322 27.9215 108.581C27.611 108.841 27.4557 109.18 27.4557 109.6C27.4557 109.929 27.5717 110.188 27.8035 110.379C28.0395 110.569 28.3975 110.698 28.8778 110.768L29.8713 110.898C30.5917 110.997 31.1341 111.229 31.4983 111.592C31.8627 111.951 32.0448 112.438 32.0448 113.052C32.0448 113.779 31.7861 114.363 31.2686 114.804C30.7511 115.241 30.0597 115.459 29.1945 115.459C28.8965 115.459 28.6004 115.423 28.3065 115.349C28.0126 115.276 27.7 115.161 27.3688 115.005ZM39.5852 112.617C39.5852 112.293 39.6162 112.083 39.6784 111.988C39.7405 111.893 39.8585 111.845 40.0323 111.845C40.1814 111.845 40.2932 111.886 40.3676 111.969C40.4422 112.046 40.4794 112.17 40.4794 112.338V112.617V114.752C40.4794 114.903 40.4401 115.023 40.3614 115.109C40.2828 115.191 40.1731 115.232 40.0323 115.232H34.5242H34.2323C34.0833 115.232 33.9715 115.193 33.897 115.116C33.8225 115.038 33.7852 114.921 33.7852 114.765C33.7852 114.592 33.8287 114.475 33.9156 114.415C34.0067 114.35 34.2096 114.317 34.5242 114.317H35.3004V108.471H34.5242C34.2179 108.471 34.0171 108.438 33.9219 108.373C33.8307 108.305 33.7852 108.181 33.7852 108.004C33.7852 107.844 33.8225 107.727 33.897 107.653C33.9756 107.576 34.0957 107.537 34.2572 107.537H34.5242H37.3249H37.6167C37.7658 107.537 37.8796 107.576 37.9582 107.653C38.0369 107.731 38.0762 107.848 38.0762 108.004C38.0762 108.181 38.0286 108.305 37.9334 108.373C37.8423 108.438 37.6395 108.471 37.3249 108.471H36.2816V114.317H39.5852V112.617ZM47.1939 114.317C47.5127 114.317 47.7155 114.35 47.8025 114.415C47.8935 114.475 47.9391 114.592 47.9391 114.765C47.9391 114.942 47.8935 115.066 47.8025 115.135C47.7155 115.2 47.5127 115.232 47.1939 115.232H43.4245H43.1327C42.9836 115.232 42.8698 115.193 42.7912 115.116C42.7125 115.038 42.6731 114.921 42.6731 114.765C42.6731 114.592 42.7187 114.475 42.8098 114.415C42.9009 114.35 43.1058 114.317 43.4245 114.317H44.828V108.471H43.4245C43.114 108.471 42.9112 108.438 42.816 108.373C42.7208 108.305 42.6731 108.181 42.6731 108.004C42.6731 107.844 42.7125 107.727 42.7912 107.653C42.8698 107.576 42.9878 107.537 43.1451 107.537H43.4245H47.1939H47.4858C47.6348 107.537 47.7466 107.576 47.8211 107.653C47.8997 107.731 47.9391 107.848 47.9391 108.004C47.9391 108.181 47.8915 108.305 47.7963 108.373C47.7052 108.438 47.5045 108.471 47.1939 108.471H45.7905V114.317H47.1939ZM50.2943 108.471H50.2135C50.0066 108.471 49.8596 108.437 49.7726 108.367C49.6858 108.294 49.6422 108.173 49.6422 108.004C49.6422 107.852 49.6795 107.738 49.754 107.66C49.8286 107.577 49.9362 107.537 50.0769 107.537H51.9585C52.2028 107.537 52.3663 107.571 52.4491 107.641C52.5361 107.709 52.5795 107.83 52.5795 108.004C52.5795 108.164 52.534 108.283 52.4429 108.361C52.3519 108.434 52.207 108.471 52.0082 108.471H51.3251L53.4365 114.129L55.492 108.471H54.666C54.4715 108.471 54.3266 108.434 54.2313 108.361C54.1403 108.283 54.0947 108.164 54.0947 108.004C54.0947 107.83 54.1382 107.709 54.2251 107.641C54.3121 107.571 54.4756 107.537 54.7157 107.537H56.6656C56.8064 107.537 56.9119 107.577 56.9823 107.66C57.0568 107.738 57.0941 107.852 57.0941 108.004C57.0941 108.173 57.0506 108.294 56.9637 108.367C56.8767 108.437 56.7256 108.471 56.5104 108.471H56.4358L54.2003 114.584C54.0719 114.908 53.9705 115.111 53.896 115.193C53.8215 115.271 53.7263 115.31 53.6103 115.31H53.2564C52.9832 115.31 52.7616 115.081 52.5919 114.623L52.5795 114.584L50.2943 108.471ZM58.7724 115.232H58.4805C58.3315 115.232 58.2177 115.193 58.139 115.116C58.0645 115.038 58.0272 114.921 58.0272 114.765C58.0272 114.592 58.0707 114.475 58.1576 114.415C58.2487 114.35 58.4536 114.317 58.7724 114.317H59.1698V108.471H58.7724C58.4619 108.471 58.2591 108.438 58.1638 108.373C58.0728 108.305 58.0272 108.181 58.0272 108.004C58.0272 107.844 58.0645 107.727 58.139 107.653C58.2177 107.576 58.3356 107.537 58.4929 107.537H58.7724H63.9017C64.0425 107.537 64.148 107.582 64.2184 107.673C64.2929 107.759 64.3302 107.887 64.3302 108.055V109.587C64.3302 109.812 64.2991 109.968 64.237 110.054C64.175 110.141 64.0632 110.184 63.9017 110.184C63.732 110.184 63.614 110.137 63.5477 110.041C63.4857 109.946 63.4546 109.732 63.4546 109.399V108.471H60.151V110.658H61.7779V110.314C61.7779 110.08 61.807 109.918 61.8649 109.827C61.927 109.736 62.0325 109.691 62.1816 109.691C62.3265 109.691 62.4259 109.741 62.4796 109.84C62.5376 109.935 62.5666 110.143 62.5666 110.463V111.67C62.5666 111.995 62.5376 112.202 62.4796 112.293C62.4217 112.384 62.3182 112.429 62.1692 112.429C62.0201 112.429 61.9166 112.377 61.8587 112.273C61.8049 112.17 61.7779 111.969 61.7779 111.67V111.443H60.151V114.317H63.4546V113.266C63.4546 112.933 63.4857 112.719 63.5477 112.623C63.614 112.529 63.732 112.481 63.9017 112.481C64.059 112.481 64.1688 112.527 64.2308 112.617C64.2971 112.704 64.3302 112.87 64.3302 113.117V114.752C64.3302 114.908 64.2929 115.027 64.2184 115.109C64.1439 115.191 64.0384 115.232 63.9017 115.232H58.7724ZM68.1074 108.413V111.034H69.3929C69.9725 111.034 70.4072 110.926 70.6969 110.709C70.9909 110.489 71.1379 110.163 71.1379 109.73C71.1379 109.293 70.995 108.964 70.7094 108.744C70.4237 108.523 69.9973 108.413 69.4301 108.413H68.1074ZM68.1074 114.317H68.5297C68.7698 114.317 68.9395 114.352 69.0389 114.421C69.1382 114.491 69.188 114.605 69.188 114.765C69.188 114.938 69.1445 115.059 69.0576 115.128C68.9706 115.198 68.8071 115.232 68.567 115.232H66.4805C66.3397 115.232 66.2321 115.193 66.1575 115.116C66.083 115.034 66.0458 114.916 66.0458 114.765C66.0458 114.605 66.0872 114.491 66.1699 114.421C66.2528 114.352 66.3894 114.317 66.5798 114.317H66.7848H67.1449V108.413H66.7848C66.4742 108.413 66.2734 108.382 66.1824 108.322C66.0913 108.261 66.0458 108.147 66.0458 107.978C66.0458 107.83 66.081 107.72 66.1513 107.647C66.2259 107.573 66.3356 107.537 66.4805 107.537H69.101C69.7344 107.537 70.2064 107.569 70.5169 107.634C70.8315 107.695 71.0965 107.801 71.3117 107.952C71.5891 108.147 71.8064 108.404 71.9637 108.724C72.1252 109.044 72.2059 109.388 72.2059 109.755C72.2059 110.253 72.059 110.681 71.765 111.041C71.4752 111.395 71.0695 111.642 70.5479 111.78C70.6556 111.845 70.7507 111.921 70.8336 112.007C70.9205 112.094 71.0033 112.198 71.0819 112.319L72.3301 114.317H72.535C72.7669 114.317 72.9263 114.352 73.0132 114.421C73.1001 114.486 73.1436 114.601 73.1436 114.765C73.1436 114.916 73.1063 115.034 73.0319 115.116C72.9614 115.193 72.8559 115.232 72.7151 115.232H72.0134C71.8105 115.232 71.6119 115.077 71.4173 114.765C71.3925 114.739 71.3738 114.717 71.3614 114.7L70.1691 112.812C69.9249 112.427 69.722 112.178 69.5605 112.066C69.4032 111.953 69.1942 111.897 68.9333 111.897H68.1074V114.317Z" fill="white"/>
<path d="M26.8125 83.1883C26.8125 82.5844 27.0184 82.0625 27.4302 81.6226C27.842 81.1836 28.3327 80.9633 28.9021 80.9633C29.4805 80.9633 29.9755 81.1836 30.3872 81.6226C30.799 82.0625 31.005 82.5844 31.005 83.1883C31.005 83.7922 30.799 84.3102 30.3872 84.7398C29.9755 85.1703 29.4805 85.3851 28.9021 85.3851C28.3327 85.3851 27.842 85.1703 27.4302 84.7398C27.0184 84.3102 26.8125 83.7922 26.8125 83.1883ZM35.3437 83.1883C35.3437 82.5844 35.5496 82.0625 35.9614 81.6226C36.3732 81.1836 36.8639 80.9633 37.4334 80.9633C38.0117 80.9633 38.5067 81.1836 38.9185 81.6226C39.3303 82.0625 39.5362 82.5844 39.5362 83.1883C39.5362 83.7922 39.3303 84.3102 38.9185 84.7398C38.5067 85.1703 38.0117 85.3851 37.4334 85.3851C36.8639 85.3851 36.3732 85.1703 35.9614 84.7398C35.5496 84.3102 35.3437 83.7922 35.3437 83.1883ZM43.875 83.1883C43.875 82.5844 44.0809 82.0625 44.4927 81.6226C44.9045 81.1836 45.3952 80.9633 45.9647 80.9633C46.5429 80.9633 47.038 81.1836 47.4497 81.6226C47.8615 82.0625 48.0675 82.5844 48.0675 83.1883C48.0675 83.7922 47.8615 84.3102 47.4497 84.7398C47.038 85.1703 46.5429 85.3851 45.9647 85.3851C45.3952 85.3851 44.9045 85.1703 44.4927 84.7398C44.0809 84.3102 43.875 83.7922 43.875 83.1883ZM52.4062 83.1883C52.4062 82.5844 52.6121 82.0625 53.0239 81.6226C53.4358 81.1836 53.9264 80.9633 54.4959 80.9633C55.0742 80.9633 55.5692 81.1836 55.981 81.6226C56.3928 82.0625 56.5987 82.5844 56.5987 83.1883C56.5987 83.7922 56.3928 84.3102 55.981 84.7398C55.5692 85.1703 55.0742 85.3851 54.4959 85.3851C53.9264 85.3851 53.4358 85.1703 53.0239 84.7398C52.6121 84.3102 52.4062 83.7922 52.4062 83.1883ZM78 83.1883C78 82.5844 78.2056 82.0625 78.6176 81.6226C79.0296 81.1836 79.52 80.9633 80.0897 80.9633C80.6677 80.9633 81.1626 81.1836 81.5746 81.6226C81.9866 82.0625 82.1922 82.5844 82.1922 83.1883C82.1922 83.7922 81.9866 84.3102 81.5746 84.7398C81.1626 85.1703 80.6677 85.3851 80.0897 85.3851C79.52 85.3851 79.0296 85.1703 78.6176 84.7398C78.2056 84.3102 78 83.7922 78 83.1883ZM86.5316 83.1883C86.5316 82.5844 86.7372 82.0625 87.1492 81.6226C87.5604 81.1836 88.0516 80.9633 88.6206 80.9633C89.1993 80.9633 89.6942 81.1836 90.1062 81.6226C90.5181 82.0625 90.7238 82.5844 90.7238 83.1883C90.7238 83.7922 90.5181 84.3102 90.1062 84.7398C89.6942 85.1703 89.1993 85.3851 88.6206 85.3851C88.0516 85.3851 87.5604 85.1703 87.1492 84.7398C86.7372 84.3102 86.5316 83.7922 86.5316 83.1883ZM95.0624 83.1883C95.0624 82.5844 95.2681 82.0625 95.68 81.6226C96.092 81.1836 96.5824 80.9633 97.1522 80.9633C97.7301 80.9633 98.2258 81.1836 98.637 81.6226C99.049 82.0625 99.2546 82.5844 99.2546 83.1883C99.2546 83.7922 99.049 84.3102 98.637 84.7398C98.2258 85.1703 97.7301 85.3851 97.1522 85.3851C96.5824 85.3851 96.092 85.1703 95.68 84.7398C95.2681 84.3102 95.0624 83.7922 95.0624 83.1883ZM103.594 83.1883C103.594 82.5844 103.8 82.0625 104.212 81.6226C104.624 81.1836 105.114 80.9633 105.684 80.9633C106.262 80.9633 106.757 81.1836 107.169 81.6226C107.581 82.0625 107.786 82.5844 107.786 83.1883C107.786 83.7922 107.581 84.3102 107.169 84.7398C106.757 85.1703 106.262 85.3851 105.684 85.3851C105.114 85.3851 104.624 85.1703 104.212 84.7398C103.8 84.3102 103.594 83.7922 103.594 83.1883ZM129.187 83.1883C129.187 82.5844 129.394 82.0625 129.805 81.6226C130.217 81.1836 130.707 80.9633 131.277 80.9633C131.856 80.9633 132.351 81.1836 132.763 81.6226C133.174 82.0625 133.38 82.5844 133.38 83.1883C133.38 83.7922 133.174 84.3102 132.763 84.7398C132.351 85.1703 131.856 85.3851 131.277 85.3851C130.707 85.3851 130.217 85.1703 129.805 84.7398C129.394 84.3102 129.187 83.7922 129.187 83.1883ZM137.719 83.1883C137.719 82.5844 137.924 82.0625 138.336 81.6226C138.748 81.1836 139.239 80.9633 139.809 80.9633C140.387 80.9633 140.882 81.1836 141.293 81.6226C141.705 82.0625 141.911 82.5844 141.911 83.1883C141.911 83.7922 141.705 84.3102 141.293 84.7398C140.882 85.1703 140.387 85.3851 139.809 85.3851C139.239 85.3851 138.748 85.1703 138.336 84.7398C137.924 84.3102 137.719 83.7922 137.719 83.1883ZM146.25 83.1883C146.25 82.5844 146.456 82.0625 146.868 81.6226C147.279 81.1836 147.77 80.9633 148.339 80.9633C148.918 80.9633 149.413 81.1836 149.825 81.6226C150.236 82.0625 150.443 82.5844 150.443 83.1883C150.443 83.7922 150.236 84.3102 149.825 84.7398C149.413 85.1703 148.918 85.3851 148.339 85.3851C147.77 85.3851 147.279 85.1703 146.868 84.7398C146.456 84.3102 146.25 83.7922 146.25 83.1883ZM154.781 83.1883C154.781 82.5844 154.987 82.0625 155.399 81.6226C155.811 81.1836 156.301 80.9633 156.871 80.9633C157.449 80.9633 157.944 81.1836 158.356 81.6226C158.768 82.0625 158.973 82.5844 158.973 83.1883C158.973 83.7922 158.768 84.3102 158.356 84.7398C157.944 85.1703 157.449 85.3851 156.871 85.3851C156.301 85.3851 155.811 85.1703 155.399 84.7398C154.987 84.3102 154.781 83.7922 154.781 83.1883ZM180.901 80.407C180.843 80.4164 180.8 80.4234 180.769 80.4281C180.743 80.4328 180.719 80.4351 180.697 80.4351C180.562 80.4351 180.449 80.3961 180.362 80.318C180.279 80.2359 180.237 80.1281 180.237 79.9953C180.237 79.8851 180.274 79.7891 180.348 79.707C180.423 79.6242 180.531 79.5625 180.671 79.5219L182.622 78.9719C182.671 78.9586 182.716 78.9492 182.76 78.9445C182.808 78.9359 182.857 78.9312 182.905 78.9312C182.988 78.9312 183.054 78.9719 183.102 79.0547C183.15 79.1328 183.175 79.2398 183.175 79.3773V86.807H184.226C184.615 86.807 184.863 86.8414 184.968 86.9102C185.074 86.9742 185.126 87.0977 185.126 87.2805C185.126 87.4453 185.082 87.5687 184.994 87.6516C184.907 87.7336 184.775 87.775 184.6 87.775H180.671C180.496 87.775 180.364 87.7336 180.277 87.6516C180.189 87.5687 180.145 87.4453 180.145 87.2805C180.145 87.0977 180.197 86.9742 180.303 86.9102C180.408 86.8414 180.656 86.807 181.045 86.807H182.136V80.0984L180.901 80.407ZM188.716 87.775C188.484 87.775 188.31 87.7273 188.197 87.6305C188.087 87.5305 188.032 87.3766 188.032 87.1711C188.032 86.8734 188.453 86.3148 189.294 85.4953L189.485 85.3031C189.611 85.175 189.796 84.9922 190.037 84.7539C191.552 83.2617 192.31 82.1742 192.31 81.4922C192.31 81.0023 192.176 80.6062 191.91 80.3047C191.642 79.9976 191.296 79.8445 190.871 79.8445C190.595 79.8445 190.33 79.9039 190.076 80.0226C189.827 80.1422 189.625 80.3023 189.471 80.5031C189.445 80.5398 189.403 80.6016 189.347 80.6891C189.184 80.9953 189.003 81.1492 188.801 81.1492C188.644 81.1492 188.532 81.0984 188.466 80.9976C188.4 80.8969 188.367 80.7047 188.367 80.4211C188.367 80.2562 188.383 80.1375 188.413 80.0641C188.444 79.9859 188.501 79.9039 188.584 79.8172C188.864 79.5328 189.21 79.3086 189.622 79.1437C190.039 78.9742 190.464 78.8898 190.897 78.8898C191.625 78.8898 192.231 79.1344 192.718 79.6242C193.208 80.1141 193.453 80.7164 193.453 81.4305C193.453 82.3273 192.709 83.5203 191.219 85.0078C190.838 85.3789 190.547 85.6695 190.345 85.8797L189.537 86.6898H192.54C192.558 86.493 192.608 86.3445 192.692 86.2437C192.779 86.1383 192.895 86.0859 193.039 86.0859C193.184 86.0859 193.298 86.1359 193.381 86.2367C193.465 86.3375 193.506 86.475 193.506 86.6492C193.506 86.6625 193.504 86.6875 193.5 86.7242C193.495 86.7562 193.493 86.7797 193.493 86.793L193.441 87.3219C193.427 87.4641 193.388 87.5758 193.322 87.6586C193.256 87.7359 193.171 87.775 193.066 87.775H188.716ZM200.559 83.0508C201.071 83.1976 201.468 83.4648 201.748 83.8539C202.033 84.2391 202.176 84.7101 202.176 85.2687C202.176 86.0695 201.904 86.7266 201.361 87.2398C200.817 87.7477 200.114 88.0016 199.251 88.0016C198.585 88.0016 197.992 87.8687 197.471 87.6031C196.953 87.3336 196.695 87.0383 196.695 86.718C196.695 86.5805 196.741 86.468 196.833 86.3812C196.929 86.2898 197.045 86.2437 197.181 86.2437C197.255 86.2437 197.525 86.3609 197.99 86.5937C198.458 86.8273 198.894 86.9445 199.297 86.9445C199.818 86.9445 200.242 86.7883 200.565 86.4773C200.894 86.1656 201.058 85.7633 201.058 85.2687C201.058 84.8617 200.944 84.518 200.716 84.2391C200.493 83.9547 200.184 83.7742 199.79 83.6961C199.672 83.6734 199.516 83.6555 199.323 83.6414C198.956 83.6187 198.772 83.4586 198.772 83.1609C198.772 82.8906 198.951 82.7328 199.311 82.6867C199.45 82.6734 199.566 82.657 199.658 82.6391C200 82.5844 200.277 82.4375 200.487 82.1992C200.697 81.9617 200.802 81.6734 200.802 81.3344C200.802 80.8992 200.673 80.5445 200.414 80.2703C200.156 79.9953 199.827 79.8578 199.429 79.8578C199.061 79.8578 198.682 79.9773 198.292 80.2148C197.907 80.4531 197.665 80.5719 197.569 80.5719C197.446 80.5719 197.344 80.5312 197.26 80.4484C197.181 80.3664 197.142 80.2633 197.142 80.1398C197.142 79.8601 197.387 79.5836 197.877 79.3086C198.369 79.0297 198.911 78.8898 199.507 78.8898C200.191 78.8898 200.758 79.107 201.21 79.5422C201.665 79.9726 201.893 80.5031 201.893 81.1351C201.893 81.6156 201.783 82.0117 201.564 82.3234C201.35 82.6344 201.015 82.8773 200.559 83.0508ZM208.617 84.6094V79.9539L206.126 84.6094H208.617ZM207.907 87.775C207.697 87.775 207.554 87.7406 207.48 87.6719C207.406 87.5984 207.368 87.468 207.368 87.2805C207.368 87.1156 207.406 86.9969 207.48 86.9234C207.559 86.8461 207.684 86.807 207.855 86.807H208.617V85.6531H205.548C205.439 85.6531 205.353 85.6164 205.292 85.5437C205.231 85.4703 205.2 85.3648 205.2 85.2273V84.7539C205.2 84.5703 205.264 84.3781 205.391 84.1773C205.412 84.1406 205.43 84.1109 205.443 84.0875L208.216 79.1711C208.277 79.057 208.327 78.9836 208.367 78.9516C208.407 78.9195 208.459 78.9039 208.525 78.9039C208.551 78.9039 208.597 78.9078 208.663 78.9172C208.68 78.9219 208.698 78.9266 208.716 78.9312L209.385 79.0406C209.448 79.05 209.495 79.0867 209.53 79.1508C209.57 79.2101 209.59 79.2906 209.59 79.3914V84.6094H209.924C210.021 84.6094 210.096 84.5703 210.148 84.493C210.2 84.4102 210.259 84.3695 210.325 84.3695C210.413 84.3695 210.488 84.4039 210.549 84.4727C210.61 84.5406 210.641 84.6258 210.641 84.7266C210.641 84.7672 210.639 84.8062 210.634 84.843C210.63 84.875 210.621 84.9094 210.608 84.9461L210.556 85.2273C210.525 85.3922 210.479 85.5047 210.417 85.5641C210.36 85.6234 210.268 85.6531 210.141 85.6531H209.59V86.807H209.82C210.1 86.807 210.292 86.8437 210.398 86.9164C210.503 86.9852 210.556 87.107 210.556 87.2805C210.556 87.4453 210.511 87.5687 210.424 87.6516C210.336 87.7336 210.205 87.775 210.03 87.775H207.907Z" fill="white"/>
<path d="M29.9215 51.4563L30.1368 50.9219L24.6729 36.1282H28.7372L32.2094 46.1125L36.1929 36.1282H40.1765L33.7167 51.9344C32.9989 53.6969 32.1645 54.9532 31.2135 55.7032C30.2624 56.4532 29.0243 56.8282 27.4991 56.8282C27.1761 56.8282 26.8621 56.8094 26.557 56.7719C26.2699 56.7532 26.0367 56.7157 25.8572 56.6594V53.3407C26.0367 53.3782 26.2251 53.4063 26.4224 53.4251C26.6198 53.4438 26.8621 53.4532 27.1492 53.4532C27.8131 53.4532 28.3694 53.2844 28.818 52.9469C29.2845 52.6094 29.6524 52.1125 29.9215 51.4563Z" fill="white"/>
<path d="M53.6786 48.9531C52.8173 49.6844 51.9291 50.2188 51.0139 50.5563C50.1167 50.8938 49.1119 51.0625 47.9993 51.0625C46.9406 51.0625 45.9448 50.8656 45.0117 50.4719C44.0965 50.0781 43.298 49.5438 42.6162 48.8688C41.9522 48.1938 41.4229 47.3969 41.0281 46.4781C40.6513 45.5406 40.4629 44.5375 40.4629 43.4688C40.4629 42.4188 40.6423 41.4344 41.0012 40.5156C41.378 39.5781 41.8894 38.7719 42.5354 38.0969C43.1814 37.4031 43.944 36.8594 44.8233 36.4656C45.7205 36.0719 46.6715 35.875 47.6764 35.875C48.6633 35.875 49.5784 36.0813 50.4218 36.4938C51.2831 36.8875 52.0188 37.4313 52.6289 38.125C53.2569 38.8188 53.7414 39.6531 54.0823 40.6281C54.4412 41.5844 54.6207 42.625 54.6207 43.75V44.7625H44.1773C44.4285 45.6813 44.913 46.4219 45.6307 46.9844C46.3485 47.5469 47.1919 47.8281 48.1608 47.8281C48.7709 47.8281 49.3451 47.725 49.8835 47.5188C50.4218 47.3125 50.8793 47.0219 51.2562 46.6469L53.6786 48.9531ZM47.5956 39.0531C46.7522 39.0531 46.0255 39.325 45.4154 39.8688C44.8053 40.3938 44.3836 41.1063 44.1504 42.0063H51.0139C50.7807 41.1438 50.35 40.4406 49.722 39.8969C49.1119 39.3344 48.4031 39.0531 47.5956 39.0531Z" fill="white"/>
<path d="M60.5674 30.25V50.7812H56.8799V31.0937L60.5674 30.25Z" fill="white"/>
<path d="M67.1386 30.25V50.7812H63.4512V31.0937L67.1386 30.25Z" fill="white"/>
<path d="M69.3764 43.4687C69.3764 42.4 69.5648 41.4062 69.9416 40.4875C70.3364 39.55 70.8657 38.7437 71.5297 38.0687C72.2115 37.375 73.01 36.8312 73.9252 36.4375C74.8404 36.0437 75.8183 35.8469 76.8591 35.8469C77.8998 35.8469 78.8778 36.0437 79.7929 36.4375C80.7081 36.8312 81.4976 37.375 82.1615 38.0687C82.8434 38.7437 83.3727 39.55 83.7496 40.4875C84.1443 41.4062 84.3417 42.4 84.3417 43.4687C84.3417 44.5375 84.1443 45.5406 83.7496 46.4781C83.3727 47.3969 82.8434 48.1937 82.1615 48.8687C81.4976 49.5437 80.7081 50.0781 79.7929 50.4719C78.8778 50.8656 77.8998 51.0625 76.8591 51.0625C75.8183 51.0625 74.8404 50.8656 73.9252 50.4719C73.01 50.0781 72.2115 49.5437 71.5297 48.8687C70.8657 48.1937 70.3364 47.3969 69.9416 46.4781C69.5648 45.5406 69.3764 44.5375 69.3764 43.4687ZM76.8591 47.7156C77.9357 47.7156 78.8509 47.3031 79.6045 46.4781C80.3582 45.6531 80.735 44.65 80.735 43.4687C80.735 42.2687 80.3582 41.2562 79.6045 40.4312C78.8509 39.6062 77.9357 39.1937 76.8591 39.1937C75.7825 39.1937 74.8673 39.6062 74.1136 40.4312C73.36 41.2562 72.9831 42.2687 72.9831 43.4687C72.9831 44.65 73.36 45.6531 74.1136 46.4781C74.8673 47.3031 75.7825 47.7156 76.8591 47.7156Z" fill="white"/>
<path d="M92.563 50.7813H89.0101L85.1611 36.1282H88.6602L90.975 45.6063L93.7742 36.1282H96.8695L99.6419 45.6063L101.957 36.1282H105.402L101.526 50.7813H98L95.2815 41.4157L92.563 50.7813Z" fill="white"/>
<path d="M108.914 46.4781C109.524 46.4781 110.044 46.7031 110.475 47.1531C110.905 47.6031 111.121 48.1469 111.121 48.7844C111.121 49.4031 110.905 49.9375 110.475 50.3875C110.044 50.8375 109.524 51.0625 108.914 51.0625C108.321 51.0625 107.81 50.8375 107.379 50.3875C106.949 49.9375 106.733 49.4031 106.733 48.7844C106.733 48.1469 106.949 47.6031 107.379 47.1531C107.81 46.7031 108.321 46.4781 108.914 46.4781Z" fill="white"/>
</g>
<defs>
<filter id="filter0_i" x="0" y="0" width="241" height="151" filterUnits="userSpaceOnUse" color-interpolation-filters="sRGB">
<feFlood flood-opacity="0" result="BackgroundImageFix"/>
<feBlend mode="normal" in="SourceGraphic" in2="BackgroundImageFix" result="shape"/>
<feColorMatrix in="SourceAlpha" type="matrix" values="0 0 0 0 0 0 0 0 0 0 0 0 0 0 0 0 0 0 127 0" result="hardAlpha"/>
<feOffset dx="1" dy="1"/>
<feGaussianBlur stdDeviation="1.5"/>
<feComposite in2="hardAlpha" operator="arithmetic" k2="-1" k3="1"/>
<feColorMatrix type="matrix" values="0 0 0 0 1 0 0 0 0 1 0 0 0 0 1 0 0 0 0.25 0"/>
<feBlend mode="normal" in2="shape" result="effect1_innerShadow"/>
</filter>
<linearGradient id="paint0_linear" x1="240" y1="0" x2="0" y2="0" gradientUnits="userSpaceOnUse">
<stop stop-color="#C4C5C6"/>
<stop offset="1" stop-color="#787D82"/>
</linearGradient>
</defs>
</svg>
