<svg width="240" height="150" viewBox="0 0 240 150" fill="none" xmlns="http://www.w3.org/2000/svg">
<g filter="url(#filter0_i)">
<path d="M231.252 0H8.74766C3.91646 0 0 4.0924 0 9.14062V140.859C0 145.908 3.91646 150 8.74766 150H231.252C236.084 150 240 145.908 240 140.859V9.14062C240 4.0924 236.084 0 231.252 0Z" fill="url(#paint0_linear)"/>
</g>
<mask id="mask0" mask-type="alpha" maskUnits="userSpaceOnUse" x="0" y="0" width="240" height="150">
<path d="M231.252 0H8.74766C3.91646 0 0 4.0924 0 9.14062V140.859C0 145.908 3.91646 150 8.74766 150H231.252C236.084 150 240 145.908 240 140.859V9.14062C240 4.0924 236.084 0 231.252 0Z" fill="white"/>
</mask>
<g mask="url(#mask0)">
<path fill-rule="evenodd" clip-rule="evenodd" d="M0.336166 102.113C14.2593 102.113 25.5463 90.2891 25.5463 75.7043C25.5463 61.1193 14.2593 49.2958 0.336166 49.2958C-13.5869 49.2958 -24.8739 61.1193 -24.8739 75.7043C-24.8739 90.2891 -13.5869 102.113 0.336166 102.113Z" fill="white" fill-opacity="0.07"/>
<path fill-rule="evenodd" clip-rule="evenodd" d="M13.7814 124.648C39.9569 124.648 61.1764 102.42 61.1764 75.0001C61.1764 47.5803 39.9569 25.3522 13.7814 25.3522C-12.3941 25.3522 -33.6135 47.5803 -33.6135 75.0001C-33.6135 102.42 -12.3941 124.648 13.7814 124.648Z" fill="white" fill-opacity="0.07"/>
<path fill-rule="evenodd" clip-rule="evenodd" d="M33.9496 155.634C76.8329 155.634 111.597 119.217 111.597 74.2957C111.597 29.374 76.8329 -7.0423 33.9496 -7.0423C-8.9337 -7.0423 -43.6975 29.374 -43.6975 74.2957C-43.6975 119.217 -8.9337 155.634 33.9496 155.634Z" fill="white" fill-opacity="0.07"/>
<path fill-rule="evenodd" clip-rule="evenodd" d="M71.2605 186.62C130.295 186.62 178.151 136.488 178.151 74.6479C178.151 12.8076 130.295 -37.324 71.2605 -37.324C12.2264 -37.324 -35.6302 12.8076 -35.6302 74.6479C-35.6302 136.488 12.2264 186.62 71.2605 186.62Z" fill="white" fill-opacity="0.07"/>
<path fill-rule="evenodd" clip-rule="evenodd" d="M220.232 123.049L220.505 124.467C220.505 124.467 221.29 128.393 221.453 129.215H218.061C218.401 128.271 219.689 124.616 219.689 124.616C219.664 124.661 220.025 123.665 220.232 123.049ZM219.944 118.614C218.965 118.614 218.232 118.904 217.8 119.979L211.734 135.054H216.025C216.025 135.054 216.727 133.024 216.886 132.58C217.354 132.58 221.522 132.59 222.117 132.59C222.244 133.163 222.615 135.053 222.615 135.053H226.41L223.101 118.614H219.944ZM190.283 118.612L186.283 129.825L185.857 127.547C184.861 124.753 182.705 121.823 180.194 120.634L183.853 135.033L188.178 135.03L194.61 118.612H190.283ZM196.268 118.597L193.711 135.048H197.797L200.354 118.596H196.268V118.597ZM208.958 118.31C204.916 118.31 202.076 120.544 202.051 123.738C202.025 126.105 204.081 127.424 205.628 128.211C207.224 129.015 207.757 129.531 207.752 130.251C207.735 131.354 206.475 131.855 205.303 131.855C203.669 131.855 202.798 131.608 201.46 130.996L200.929 130.734L200.358 134.416C201.314 134.873 203.078 135.271 204.913 135.291C209.203 135.291 211.994 133.083 212.027 129.673C212.043 127.796 210.952 126.376 208.592 125.202C207.168 124.44 206.287 123.934 206.3 123.162C206.301 122.479 207.039 121.748 208.641 121.748C209.98 121.724 210.942 122.043 211.699 122.38L212.064 122.569L212.62 119.002C211.812 118.67 210.538 118.31 208.958 118.31Z" fill="white"/>
<path fill-rule="evenodd" clip-rule="evenodd" d="M182.998 117.877L176.179 117.503L176.126 117.776C181.361 119.391 184.695 122.835 185.959 126.761L184.846 119.329C184.641 118.304 183.915 117.962 182.998 117.877Z" fill="white"/>
<path d="M31.1568 114.116V112.572H29.6168C29.4926 112.572 29.3994 112.537 29.3374 112.468C29.2794 112.399 29.2504 112.293 29.2504 112.15C29.2504 111.986 29.2773 111.873 29.3311 111.812C29.3849 111.752 29.4885 111.722 29.6416 111.722H32.3243C32.4319 111.722 32.5105 111.759 32.5603 111.832C32.6141 111.902 32.641 112.007 32.641 112.15C32.641 112.31 32.6058 112.42 32.5354 112.481C32.4692 112.541 32.3491 112.572 32.1752 112.572H32.0945V114.37V114.525C32.0945 114.641 32.0821 114.724 32.0572 114.772C32.0324 114.815 31.9828 114.858 31.9082 114.902C31.6723 115.048 31.3286 115.174 30.8774 115.277C30.4261 115.381 29.9687 115.434 29.505 115.434C28.3955 115.434 27.4992 115.063 26.8162 114.324C26.133 113.584 25.7915 112.62 25.7915 111.43C25.7915 110.24 26.1248 109.259 26.7913 108.484C27.4619 107.709 28.3148 107.323 29.3498 107.323C29.6313 107.323 29.9128 107.357 30.1943 107.427C30.48 107.491 30.7759 107.591 31.0823 107.725C31.1237 107.612 31.1796 107.532 31.25 107.484C31.3245 107.433 31.4197 107.407 31.5357 107.407C31.7302 107.407 31.8586 107.467 31.9206 107.588C31.9869 107.709 32.02 107.988 32.02 108.426V109.308C32.02 109.52 31.9848 109.67 31.9144 109.755C31.8441 109.838 31.7219 109.879 31.5481 109.879C31.3327 109.879 31.1775 109.741 31.0823 109.464C31.0491 109.381 31.0223 109.319 31.0016 109.276C30.8484 108.934 30.629 108.67 30.3434 108.484C30.0577 108.298 29.7306 108.205 29.3622 108.205C28.6211 108.205 28.0291 108.486 27.5862 109.048C27.1432 109.606 26.9217 110.362 26.9217 111.313C26.9217 112.295 27.1659 113.076 27.6545 113.655C28.143 114.235 28.7929 114.525 29.6044 114.525C29.8403 114.525 30.0825 114.492 30.3309 114.427C30.5834 114.362 30.8587 114.259 31.1568 114.116ZM40.6036 111.378C40.6036 112.563 40.289 113.537 39.6598 114.298C39.0305 115.055 38.2253 115.434 37.2441 115.434C36.2713 115.434 35.4681 115.053 34.8347 114.291C34.2054 113.53 33.8908 112.559 33.8908 111.378C33.8908 110.184 34.2034 109.211 34.8285 108.458C35.4536 107.701 36.2588 107.323 37.2441 107.323C38.2253 107.323 39.0305 107.703 39.6598 108.465C40.289 109.226 40.6036 110.197 40.6036 111.378ZM37.2441 114.512C37.9396 114.512 38.4861 114.235 38.8835 113.681C39.2851 113.123 39.4859 112.355 39.4859 111.378C39.4859 110.4 39.2851 109.634 38.8835 109.081C38.4861 108.523 37.9396 108.244 37.2441 108.244C36.5445 108.244 35.9959 108.52 35.5985 109.074C35.2053 109.623 35.0085 110.391 35.0085 111.378C35.0085 112.355 35.2073 113.123 35.6047 113.681C36.0063 114.235 36.5528 114.512 37.2441 114.512ZM47.6473 112.617C47.6473 112.293 47.6783 112.083 47.7404 111.987C47.8025 111.893 47.9205 111.845 48.0944 111.845C48.2434 111.845 48.3552 111.886 48.4297 111.969C48.5042 112.046 48.5415 112.17 48.5415 112.338V112.617V114.752C48.5415 114.903 48.5022 115.023 48.4235 115.109C48.3448 115.191 48.2352 115.232 48.0944 115.232H42.5863H42.2944C42.1454 115.232 42.0336 115.193 41.9591 115.116C41.8845 115.037 41.8473 114.921 41.8473 114.765C41.8473 114.592 41.8907 114.475 41.9777 114.415C42.0687 114.35 42.2716 114.317 42.5863 114.317H43.3625V108.471H42.5863C42.2799 108.471 42.0791 108.438 41.9839 108.373C41.8928 108.305 41.8473 108.181 41.8473 108.004C41.8473 107.844 41.8845 107.727 41.9591 107.653C42.0377 107.576 42.1578 107.537 42.3192 107.537H42.5863H45.3869H45.6788C45.8278 107.537 45.9416 107.576 46.0203 107.653C46.0989 107.731 46.1383 107.848 46.1383 108.004C46.1383 108.181 46.0906 108.305 45.9955 108.373C45.9044 108.438 45.7015 108.471 45.3869 108.471H44.3437V114.317H47.6473V112.617ZM51.8841 114.317C52.0165 114.33 52.1469 114.341 52.2752 114.35C52.4077 114.354 52.5361 114.356 52.6603 114.356C53.6787 114.356 54.4239 114.119 54.8958 113.642C55.3719 113.166 55.61 112.416 55.61 111.391C55.61 110.362 55.3719 109.613 54.8958 109.146C54.4197 108.674 53.658 108.438 52.6106 108.438C52.416 108.438 52.2669 108.441 52.1635 108.445C52.0641 108.449 51.9709 108.458 51.8841 108.471V114.317ZM51.8841 115.232H50.9029H50.6234C50.4702 115.232 50.3543 115.193 50.2757 115.116C50.2011 115.037 50.1639 114.921 50.1639 114.765C50.1639 114.596 50.2074 114.48 50.2943 114.415C50.3854 114.35 50.5551 114.317 50.8035 114.317H50.9153V108.471H50.816C50.5676 108.471 50.3958 108.437 50.3005 108.367C50.2094 108.298 50.1639 108.177 50.1639 108.004C50.1639 107.844 50.2011 107.727 50.2757 107.653C50.3543 107.576 50.4744 107.537 50.6358 107.537H50.9029H51.8841H53.2564C54.2873 107.537 55.109 107.885 55.7217 108.581C56.3345 109.273 56.6408 110.21 56.6408 111.391C56.6408 111.966 56.5518 112.501 56.3738 112.994C56.1999 113.487 55.9453 113.92 55.61 114.291C55.2995 114.629 54.9206 114.876 54.4735 115.031C54.0306 115.183 53.4592 115.259 52.7597 115.259C52.6768 115.259 52.5361 115.254 52.3374 115.245C52.1428 115.237 51.9916 115.232 51.8841 115.232Z" fill="white"/>
<path d="M26.8125 83.1883C26.8125 82.5844 27.0184 82.0625 27.4302 81.6226C27.842 81.1836 28.3327 80.9633 28.9021 80.9633C29.4805 80.9633 29.9755 81.1836 30.3872 81.6226C30.799 82.0625 31.005 82.5844 31.005 83.1883C31.005 83.7922 30.799 84.3102 30.3872 84.7398C29.9755 85.1703 29.4805 85.3851 28.9021 85.3851C28.3327 85.3851 27.842 85.1703 27.4302 84.7398C27.0184 84.3102 26.8125 83.7922 26.8125 83.1883ZM35.3437 83.1883C35.3437 82.5844 35.5496 82.0625 35.9614 81.6226C36.3732 81.1836 36.8639 80.9633 37.4334 80.9633C38.0117 80.9633 38.5067 81.1836 38.9185 81.6226C39.3303 82.0625 39.5362 82.5844 39.5362 83.1883C39.5362 83.7922 39.3303 84.3102 38.9185 84.7398C38.5067 85.1703 38.0117 85.3851 37.4334 85.3851C36.8639 85.3851 36.3732 85.1703 35.9614 84.7398C35.5496 84.3102 35.3437 83.7922 35.3437 83.1883ZM43.875 83.1883C43.875 82.5844 44.0809 82.0625 44.4927 81.6226C44.9045 81.1836 45.3952 80.9633 45.9647 80.9633C46.5429 80.9633 47.038 81.1836 47.4497 81.6226C47.8615 82.0625 48.0675 82.5844 48.0675 83.1883C48.0675 83.7922 47.8615 84.3102 47.4497 84.7398C47.038 85.1703 46.5429 85.3851 45.9647 85.3851C45.3952 85.3851 44.9045 85.1703 44.4927 84.7398C44.0809 84.3102 43.875 83.7922 43.875 83.1883ZM52.4062 83.1883C52.4062 82.5844 52.6121 82.0625 53.0239 81.6226C53.4358 81.1836 53.9264 80.9633 54.4959 80.9633C55.0742 80.9633 55.5692 81.1836 55.981 81.6226C56.3928 82.0625 56.5987 82.5844 56.5987 83.1883C56.5987 83.7922 56.3928 84.3102 55.981 84.7398C55.5692 85.1703 55.0742 85.3851 54.4959 85.3851C53.9264 85.3851 53.4358 85.1703 53.0239 84.7398C52.6121 84.3102 52.4062 83.7922 52.4062 83.1883ZM78 83.1883C78 82.5844 78.2056 82.0625 78.6176 81.6226C79.0296 81.1836 79.52 80.9633 80.0897 80.9633C80.6677 80.9633 81.1626 81.1836 81.5746 81.6226C81.9866 82.0625 82.1922 82.5844 82.1922 83.1883C82.1922 83.7922 81.9866 84.3102 81.5746 84.7398C81.1626 85.1703 80.6677 85.3851 80.0897 85.3851C79.52 85.3851 79.0296 85.1703 78.6176 84.7398C78.2056 84.3102 78 83.7922 78 83.1883ZM86.5316 83.1883C86.5316 82.5844 86.7372 82.0625 87.1492 81.6226C87.5604 81.1836 88.0516 80.9633 88.6206 80.9633C89.1993 80.9633 89.6942 81.1836 90.1062 81.6226C90.5181 82.0625 90.7238 82.5844 90.7238 83.1883C90.7238 83.7922 90.5181 84.3102 90.1062 84.7398C89.6942 85.1703 89.1993 85.3851 88.6206 85.3851C88.0516 85.3851 87.5604 85.1703 87.1492 84.7398C86.7372 84.3102 86.5316 83.7922 86.5316 83.1883ZM95.0624 83.1883C95.0624 82.5844 95.2681 82.0625 95.68 81.6226C96.092 81.1836 96.5824 80.9633 97.1522 80.9633C97.7301 80.9633 98.2258 81.1836 98.637 81.6226C99.049 82.0625 99.2546 82.5844 99.2546 83.1883C99.2546 83.7922 99.049 84.3102 98.637 84.7398C98.2258 85.1703 97.7301 85.3851 97.1522 85.3851C96.5824 85.3851 96.092 85.1703 95.68 84.7398C95.2681 84.3102 95.0624 83.7922 95.0624 83.1883ZM103.594 83.1883C103.594 82.5844 103.8 82.0625 104.212 81.6226C104.624 81.1836 105.114 80.9633 105.684 80.9633C106.262 80.9633 106.757 81.1836 107.169 81.6226C107.581 82.0625 107.786 82.5844 107.786 83.1883C107.786 83.7922 107.581 84.3102 107.169 84.7398C106.757 85.1703 106.262 85.3851 105.684 85.3851C105.114 85.3851 104.624 85.1703 104.212 84.7398C103.8 84.3102 103.594 83.7922 103.594 83.1883ZM129.187 83.1883C129.187 82.5844 129.394 82.0625 129.805 81.6226C130.217 81.1836 130.707 80.9633 131.277 80.9633C131.856 80.9633 132.351 81.1836 132.763 81.6226C133.174 82.0625 133.38 82.5844 133.38 83.1883C133.38 83.7922 133.174 84.3102 132.763 84.7398C132.351 85.1703 131.856 85.3851 131.277 85.3851C130.707 85.3851 130.217 85.1703 129.805 84.7398C129.394 84.3102 129.187 83.7922 129.187 83.1883ZM137.719 83.1883C137.719 82.5844 137.924 82.0625 138.336 81.6226C138.748 81.1836 139.239 80.9633 139.809 80.9633C140.387 80.9633 140.882 81.1836 141.293 81.6226C141.705 82.0625 141.911 82.5844 141.911 83.1883C141.911 83.7922 141.705 84.3102 141.293 84.7398C140.882 85.1703 140.387 85.3851 139.809 85.3851C139.239 85.3851 138.748 85.1703 138.336 84.7398C137.924 84.3102 137.719 83.7922 137.719 83.1883ZM146.25 83.1883C146.25 82.5844 146.456 82.0625 146.868 81.6226C147.279 81.1836 147.77 80.9633 148.339 80.9633C148.918 80.9633 149.413 81.1836 149.825 81.6226C150.236 82.0625 150.443 82.5844 150.443 83.1883C150.443 83.7922 150.236 84.3102 149.825 84.7398C149.413 85.1703 148.918 85.3851 148.339 85.3851C147.77 85.3851 147.279 85.1703 146.868 84.7398C146.456 84.3102 146.25 83.7922 146.25 83.1883ZM154.781 83.1883C154.781 82.5844 154.987 82.0625 155.399 81.6226C155.811 81.1836 156.301 80.9633 156.871 80.9633C157.449 80.9633 157.944 81.1836 158.356 81.6226C158.768 82.0625 158.973 82.5844 158.973 83.1883C158.973 83.7922 158.768 84.3102 158.356 84.7398C157.944 85.1703 157.449 85.3851 156.871 85.3851C156.301 85.3851 155.811 85.1703 155.399 84.7398C154.987 84.3102 154.781 83.7922 154.781 83.1883ZM180.901 80.407C180.843 80.4164 180.8 80.4234 180.769 80.4281C180.743 80.4328 180.719 80.4351 180.697 80.4351C180.562 80.4351 180.449 80.3961 180.362 80.318C180.279 80.2359 180.237 80.1281 180.237 79.9953C180.237 79.8851 180.274 79.7891 180.348 79.707C180.423 79.6242 180.531 79.5625 180.671 79.5219L182.622 78.9719C182.671 78.9586 182.716 78.9492 182.76 78.9445C182.808 78.9359 182.857 78.9312 182.905 78.9312C182.988 78.9312 183.054 78.9719 183.102 79.0547C183.15 79.1328 183.175 79.2398 183.175 79.3773V86.807H184.226C184.615 86.807 184.863 86.8414 184.968 86.9102C185.074 86.9742 185.126 87.0977 185.126 87.2805C185.126 87.4453 185.082 87.5687 184.994 87.6516C184.907 87.7336 184.775 87.775 184.6 87.775H180.671C180.496 87.775 180.364 87.7336 180.277 87.6516C180.189 87.5687 180.145 87.4453 180.145 87.2805C180.145 87.0977 180.197 86.9742 180.303 86.9102C180.408 86.8414 180.656 86.807 181.045 86.807H182.136V80.0984L180.901 80.407ZM188.716 87.775C188.484 87.775 188.31 87.7273 188.197 87.6305C188.087 87.5305 188.032 87.3766 188.032 87.1711C188.032 86.8734 188.453 86.3148 189.294 85.4953L189.485 85.3031C189.611 85.175 189.796 84.9922 190.037 84.7539C191.552 83.2617 192.31 82.1742 192.31 81.4922C192.31 81.0023 192.176 80.6062 191.91 80.3047C191.642 79.9976 191.296 79.8445 190.871 79.8445C190.595 79.8445 190.33 79.9039 190.076 80.0226C189.827 80.1422 189.625 80.3023 189.471 80.5031C189.445 80.5398 189.403 80.6016 189.347 80.6891C189.184 80.9953 189.003 81.1492 188.801 81.1492C188.644 81.1492 188.532 81.0984 188.466 80.9976C188.4 80.8969 188.367 80.7047 188.367 80.4211C188.367 80.2562 188.383 80.1375 188.413 80.0641C188.444 79.9859 188.501 79.9039 188.584 79.8172C188.864 79.5328 189.21 79.3086 189.622 79.1437C190.039 78.9742 190.464 78.8898 190.897 78.8898C191.625 78.8898 192.231 79.1344 192.718 79.6242C193.208 80.1141 193.453 80.7164 193.453 81.4305C193.453 82.3273 192.709 83.5203 191.219 85.0078C190.838 85.3789 190.547 85.6695 190.345 85.8797L189.537 86.6898H192.54C192.558 86.493 192.608 86.3445 192.692 86.2437C192.779 86.1383 192.895 86.0859 193.039 86.0859C193.184 86.0859 193.298 86.1359 193.381 86.2367C193.465 86.3375 193.506 86.475 193.506 86.6492C193.506 86.6625 193.504 86.6875 193.5 86.7242C193.495 86.7562 193.493 86.7797 193.493 86.793L193.441 87.3219C193.427 87.4641 193.388 87.5758 193.322 87.6586C193.256 87.7359 193.171 87.775 193.066 87.775H188.716ZM200.559 83.0508C201.071 83.1976 201.468 83.4648 201.748 83.8539C202.033 84.2391 202.176 84.7101 202.176 85.2687C202.176 86.0695 201.904 86.7266 201.361 87.2398C200.817 87.7477 200.114 88.0016 199.251 88.0016C198.585 88.0016 197.992 87.8687 197.471 87.6031C196.953 87.3336 196.695 87.0383 196.695 86.718C196.695 86.5805 196.741 86.468 196.833 86.3812C196.929 86.2898 197.045 86.2437 197.181 86.2437C197.255 86.2437 197.525 86.3609 197.99 86.5937C198.458 86.8273 198.894 86.9445 199.297 86.9445C199.818 86.9445 200.242 86.7883 200.565 86.4773C200.894 86.1656 201.058 85.7633 201.058 85.2687C201.058 84.8617 200.944 84.518 200.716 84.2391C200.493 83.9547 200.184 83.7742 199.79 83.6961C199.672 83.6734 199.516 83.6555 199.323 83.6414C198.956 83.6187 198.772 83.4586 198.772 83.1609C198.772 82.8906 198.951 82.7328 199.311 82.6867C199.45 82.6734 199.566 82.657 199.658 82.6391C200 82.5844 200.277 82.4375 200.487 82.1992C200.697 81.9617 200.802 81.6734 200.802 81.3344C200.802 80.8992 200.673 80.5445 200.414 80.2703C200.156 79.9953 199.827 79.8578 199.429 79.8578C199.061 79.8578 198.682 79.9773 198.292 80.2148C197.907 80.4531 197.665 80.5719 197.569 80.5719C197.446 80.5719 197.344 80.5312 197.26 80.4484C197.181 80.3664 197.142 80.2633 197.142 80.1398C197.142 79.8601 197.387 79.5836 197.877 79.3086C198.369 79.0297 198.911 78.8898 199.507 78.8898C200.191 78.8898 200.758 79.107 201.21 79.5422C201.665 79.9726 201.893 80.5031 201.893 81.1351C201.893 81.6156 201.783 82.0117 201.564 82.3234C201.35 82.6344 201.015 82.8773 200.559 83.0508ZM208.617 84.6094V79.9539L206.126 84.6094H208.617ZM207.907 87.775C207.697 87.775 207.554 87.7406 207.48 87.6719C207.406 87.5984 207.368 87.468 207.368 87.2805C207.368 87.1156 207.406 86.9969 207.48 86.9234C207.559 86.8461 207.684 86.807 207.855 86.807H208.617V85.6531H205.548C205.439 85.6531 205.353 85.6164 205.292 85.5437C205.231 85.4703 205.2 85.3648 205.2 85.2273V84.7539C205.2 84.5703 205.264 84.3781 205.391 84.1773C205.412 84.1406 205.43 84.1109 205.443 84.0875L208.216 79.1711C208.277 79.057 208.327 78.9836 208.367 78.9516C208.407 78.9195 208.459 78.9039 208.525 78.9039C208.551 78.9039 208.597 78.9078 208.663 78.9172C208.68 78.9219 208.698 78.9266 208.716 78.9312L209.385 79.0406C209.448 79.05 209.495 79.0867 209.53 79.1508C209.57 79.2101 209.59 79.2906 209.59 79.3914V84.6094H209.924C210.021 84.6094 210.096 84.5703 210.148 84.493C210.2 84.4102 210.259 84.3695 210.325 84.3695C210.413 84.3695 210.488 84.4039 210.549 84.4727C210.61 84.5406 210.641 84.6258 210.641 84.7266C210.641 84.7672 210.639 84.8062 210.634 84.843C210.63 84.875 210.621 84.9094 210.608 84.9461L210.556 85.2273C210.525 85.3922 210.479 85.5047 210.417 85.5641C210.36 85.6234 210.268 85.6531 210.141 85.6531H209.59V86.807H209.82C210.1 86.807 210.292 86.8437 210.398 86.9164C210.503 86.9852 210.556 87.107 210.556 87.2805C210.556 87.4453 210.511 87.5687 210.424 87.6516C210.336 87.7336 210.205 87.775 210.03 87.775H207.907Z" fill="white"/>
<path d="M29.9215 51.4563L30.1368 50.9219L24.6729 36.1282H28.7372L32.2093 46.1125L36.1929 36.1282H40.1764L33.7166 51.9344C32.9988 53.6969 32.1644 54.9532 31.2134 55.7032C30.2624 56.4532 29.0243 56.8282 27.499 56.8282C27.176 56.8282 26.862 56.8094 26.557 56.7719C26.2699 56.7532 26.0366 56.7157 25.8572 56.6594V53.3407C26.0366 53.3782 26.225 53.4063 26.4224 53.4251C26.6198 53.4438 26.862 53.4532 27.1491 53.4532C27.813 53.4532 28.3693 53.2844 28.8179 52.9469C29.2844 52.6094 29.6523 52.1125 29.9215 51.4563Z" fill="white"/>
<path d="M53.6786 48.9531C52.8173 49.6844 51.9291 50.2188 51.0139 50.5563C50.1167 50.8938 49.1119 51.0625 47.9993 51.0625C46.9406 51.0625 45.9448 50.8656 45.0117 50.4719C44.0965 50.0781 43.298 49.5438 42.6162 48.8688C41.9522 48.1938 41.4229 47.3969 41.0281 46.4781C40.6513 45.5406 40.4629 44.5375 40.4629 43.4688C40.4629 42.4188 40.6423 41.4344 41.0012 40.5156C41.378 39.5781 41.8894 38.7719 42.5354 38.0969C43.1814 37.4031 43.944 36.8594 44.8233 36.4656C45.7205 36.0719 46.6715 35.875 47.6764 35.875C48.6633 35.875 49.5784 36.0813 50.4218 36.4938C51.2831 36.8875 52.0188 37.4313 52.6289 38.125C53.2569 38.8188 53.7414 39.6531 54.0823 40.6281C54.4412 41.5844 54.6207 42.625 54.6207 43.75V44.7625H44.1773C44.4285 45.6813 44.913 46.4219 45.6307 46.9844C46.3485 47.5469 47.1919 47.8281 48.1608 47.8281C48.7709 47.8281 49.3451 47.725 49.8835 47.5188C50.4218 47.3125 50.8793 47.0219 51.2562 46.6469L53.6786 48.9531ZM47.5956 39.0531C46.7522 39.0531 46.0255 39.325 45.4154 39.8688C44.8053 40.3938 44.3836 41.1063 44.1504 42.0063H51.0139C50.7807 41.1438 50.35 40.4406 49.722 39.8969C49.1119 39.3344 48.4031 39.0531 47.5956 39.0531Z" fill="white"/>
<path d="M60.5674 30.25V50.7812H56.8799V31.0937L60.5674 30.25Z" fill="white"/>
<path d="M67.1386 30.25V50.7812H63.4512V31.0937L67.1386 30.25Z" fill="white"/>
<path d="M69.3763 43.4687C69.3763 42.4 69.5648 41.4062 69.9416 40.4875C70.3363 39.55 70.8657 38.7437 71.5296 38.0687C72.2115 37.375 73.01 36.8312 73.9251 36.4375C74.8403 36.0437 75.8183 35.8469 76.859 35.8469C77.8998 35.8469 78.8777 36.0437 79.7929 36.4375C80.708 36.8312 81.4975 37.375 82.1615 38.0687C82.8433 38.7437 83.3727 39.55 83.7495 40.4875C84.1443 41.4062 84.3416 42.4 84.3416 43.4687C84.3416 44.5375 84.1443 45.5406 83.7495 46.4781C83.3727 47.3969 82.8433 48.1937 82.1615 48.8687C81.4975 49.5437 80.708 50.0781 79.7929 50.4719C78.8777 50.8656 77.8998 51.0625 76.859 51.0625C75.8183 51.0625 74.8403 50.8656 73.9251 50.4719C73.01 50.0781 72.2115 49.5437 71.5296 48.8687C70.8657 48.1937 70.3363 47.3969 69.9416 46.4781C69.5648 45.5406 69.3763 44.5375 69.3763 43.4687ZM76.859 47.7156C77.9357 47.7156 78.8508 47.3031 79.6045 46.4781C80.3581 45.6531 80.7349 44.65 80.7349 43.4687C80.7349 42.2687 80.3581 41.2562 79.6045 40.4312C78.8508 39.6062 77.9357 39.1937 76.859 39.1937C75.7824 39.1937 74.8673 39.6062 74.1135 40.4312C73.3599 41.2562 72.9831 42.2687 72.9831 43.4687C72.9831 44.65 73.3599 45.6531 74.1135 46.4781C74.8673 47.3031 75.7824 47.7156 76.859 47.7156Z" fill="white"/>
<path d="M92.563 50.7813H89.0101L85.1611 36.1282H88.6602L90.975 45.6063L93.7742 36.1282H96.8695L99.6419 45.6063L101.957 36.1282H105.402L101.526 50.7813H98L95.2815 41.4157L92.563 50.7813Z" fill="white"/>
<path d="M108.914 46.4781C109.524 46.4781 110.044 46.7031 110.475 47.1531C110.905 47.6031 111.121 48.1469 111.121 48.7844C111.121 49.4031 110.905 49.9375 110.475 50.3875C110.044 50.8375 109.524 51.0625 108.914 51.0625C108.321 51.0625 107.81 50.8375 107.379 50.3875C106.949 49.9375 106.733 49.4031 106.733 48.7844C106.733 48.1469 106.949 47.6031 107.379 47.1531C107.81 46.7031 108.321 46.4781 108.914 46.4781Z" fill="white"/>
</g>
<defs>
<filter id="filter0_i" x="0" y="0" width="241" height="151" filterUnits="userSpaceOnUse" color-interpolation-filters="sRGB">
<feFlood flood-opacity="0" result="BackgroundImageFix"/>
<feBlend mode="normal" in="SourceGraphic" in2="BackgroundImageFix" result="shape"/>
<feColorMatrix in="SourceAlpha" type="matrix" values="0 0 0 0 0 0 0 0 0 0 0 0 0 0 0 0 0 0 127 0" result="hardAlpha"/>
<feOffset dx="1" dy="1"/>
<feGaussianBlur stdDeviation="1.5"/>
<feComposite in2="hardAlpha" operator="arithmetic" k2="-1" k3="1"/>
<feColorMatrix type="matrix" values="0 0 0 0 1 0 0 0 0 1 0 0 0 0 1 0 0 0 0.08 0"/>
<feBlend mode="normal" in2="shape" result="effect1_innerShadow"/>
</filter>
<linearGradient id="paint0_linear" x1="-3.1531e-06" y1="150" x2="129.008" y2="-66.2227" gradientUnits="userSpaceOnUse">
<stop stop-color="#CE7F0F"/>
<stop offset="1" stop-color="#FFCA6F"/>
</linearGradient>
</defs>
</svg>
