<svg width="186" height="48" viewBox="0 0 186 48" fill="none" xmlns="http://www.w3.org/2000/svg">
<path d="M7.02 37.864L7.308 37.18L0 18.244H5.436L10.08 31.024L15.408 18.244H20.736L12.096 38.476C11.136 40.732 10.02 42.34 8.748 43.3C7.476 44.26 5.82 44.74 3.78 44.74C3.348 44.74 2.928 44.716 2.52 44.668C2.136 44.644 1.824 44.596 1.584 44.524V40.276C1.824 40.324 2.076 40.36 2.34 40.384C2.604 40.408 2.928 40.42 3.312 40.42C4.2 40.42 4.944 40.204 5.544 39.772C6.168 39.34 6.66 38.704 7.02 37.864ZM38.7951 34.66C37.6431 35.596 36.4551 36.28 35.2311 36.712C34.0311 37.144 32.6871 37.36 31.1991 37.36C29.7831 37.36 28.4511 37.108 27.2031 36.604C25.9791 36.1 24.9111 35.416 23.9991 34.552C23.1111 33.688 22.4031 32.668 21.8751 31.492C21.3711 30.292 21.1191 29.008 21.1191 27.64C21.1191 26.296 21.3591 25.036 21.8391 23.86C22.3431 22.66 23.0271 21.628 23.8911 20.764C24.7551 19.876 25.7751 19.18 26.9511 18.676C28.1511 18.172 29.4231 17.92 30.7671 17.92C32.0871 17.92 33.3111 18.184 34.4391 18.712C35.5911 19.216 36.5751 19.912 37.3911 20.8C38.2311 21.688 38.8791 22.756 39.3351 24.004C39.8151 25.228 40.0551 26.56 40.0551 28V29.296H26.0871C26.4231 30.472 27.0711 31.42 28.0311 32.14C28.9911 32.86 30.1191 33.22 31.4151 33.22C32.2311 33.22 32.9991 33.088 33.7191 32.824C34.4391 32.56 35.0511 32.188 35.5551 31.708L38.7951 34.66ZM30.6591 21.988C29.5311 21.988 28.5591 22.336 27.7431 23.032C26.9271 23.704 26.3631 24.616 26.0511 25.768H35.2311C34.9191 24.664 34.3431 23.764 33.5031 23.068C32.6871 22.348 31.7391 21.988 30.6591 21.988ZM48.0088 10.72V37H43.0768V11.8L48.0088 10.72ZM56.7979 10.72V37H51.8659V11.8L56.7979 10.72ZM59.7909 27.64C59.7909 26.272 60.0429 25 60.5469 23.824C61.0749 22.624 61.7829 21.592 62.6709 20.728C63.5829 19.84 64.6509 19.144 65.8749 18.64C67.0989 18.136 68.4069 17.884 69.7989 17.884C71.1909 17.884 72.4989 18.136 73.7229 18.64C74.9469 19.144 76.0029 19.84 76.8909 20.728C77.8029 21.592 78.5109 22.624 79.0149 23.824C79.5429 25 79.8069 26.272 79.8069 27.64C79.8069 29.008 79.5429 30.292 79.0149 31.492C78.5109 32.668 77.8029 33.688 76.8909 34.552C76.0029 35.416 74.9469 36.1 73.7229 36.604C72.4989 37.108 71.1909 37.36 69.7989 37.36C68.4069 37.36 67.0989 37.108 65.8749 36.604C64.6509 36.1 63.5829 35.416 62.6709 34.552C61.7829 33.688 61.0749 32.668 60.5469 31.492C60.0429 30.292 59.7909 29.008 59.7909 27.64ZM69.7989 33.076C71.2389 33.076 72.4629 32.548 73.4709 31.492C74.4789 30.436 74.9829 29.152 74.9829 27.64C74.9829 26.104 74.4789 24.808 73.4709 23.752C72.4629 22.696 71.2389 22.168 69.7989 22.168C68.3589 22.168 67.1349 22.696 66.1269 23.752C65.1189 24.808 64.6149 26.104 64.6149 27.64C64.6149 29.152 65.1189 30.436 66.1269 31.492C67.1349 32.548 68.3589 33.076 69.7989 33.076ZM90.803 37H86.051L80.903 18.244H85.583L88.679 30.376L92.423 18.244H96.563L100.271 30.376L103.367 18.244H107.975L102.791 37H98.075L94.439 25.012L90.803 37Z" fill="#3540A8"/>
<path d="M112.672 31.492C113.488 31.492 114.184 31.78 114.76 32.356C115.336 32.932 115.624 33.628 115.624 34.444C115.624 35.236 115.336 35.92 114.76 36.496C114.184 37.072 113.488 37.36 112.672 37.36C111.88 37.36 111.196 37.072 110.62 36.496C110.044 35.92 109.756 35.236 109.756 34.444C109.756 33.628 110.044 32.932 110.62 32.356C111.196 31.78 111.88 31.492 112.672 31.492ZM124.205 37L129.389 24.4H132.413L137.525 37H134.699L133.421 33.688H128.219L126.923 37H124.205ZM129.029 31.6H132.629L130.847 26.956L129.029 31.6ZM138.595 37V24.4H143.437C144.373 24.4 145.249 24.562 146.065 24.886C146.881 25.21 147.583 25.654 148.171 26.218C148.771 26.782 149.239 27.454 149.575 28.234C149.923 29.014 150.097 29.848 150.097 30.736C150.097 31.612 149.923 32.434 149.575 33.202C149.239 33.97 148.771 34.636 148.171 35.2C147.583 35.752 146.881 36.19 146.065 36.514C145.249 36.838 144.373 37 143.437 37H138.595ZM143.419 26.722H141.205V34.678H143.419C143.971 34.678 144.487 34.576 144.967 34.372C145.459 34.168 145.885 33.892 146.245 33.544C146.605 33.184 146.887 32.764 147.091 32.284C147.295 31.804 147.397 31.288 147.397 30.736C147.397 30.172 147.295 29.644 147.091 29.152C146.887 28.66 146.605 28.234 146.245 27.874C145.885 27.514 145.459 27.232 144.967 27.028C144.487 26.824 143.971 26.722 143.419 26.722ZM158.652 36.1L154.296 27.73V37H151.884V24.4H155.232L158.688 31.168L162.144 24.4H165.492V37H163.026V27.748L158.652 36.1ZM167.757 37V24.4H170.367V37H167.757ZM172.661 24.4H175.145L181.409 32.554V24.4H183.857V37H181.553L175.127 28.576V37H172.661V24.4Z" fill="#FEBA46"/>
</svg>
